<?xml version="1.0" encoding="UTF-8"?>
<svg xmlns="http://www.w3.org/2000/svg" xmlns:xlink="http://www.w3.org/1999/xlink" width="100px" height="100px" viewBox="0 0 100 100" version="1.1">
<g id="surface1">
<path style=" stroke:none;fill-rule:nonzero;fill:rgb(100%,100%,100%);fill-opacity:1;" d="M 21.808594 53.625 C 22.320312 54.519531 23.722656 54.390625 24.105469 53.367188 L 26.535156 46.980469 C 26.917969 46.085938 26.152344 45.191406 25.257812 45.191406 L 23.597656 45.320312 C 23.597656 37.015625 30.367188 30.242188 38.671875 30.242188 L 38.671875 32.035156 C 38.671875 32.929688 39.566406 33.695312 40.460938 33.3125 L 46.722656 30.628906 C 47.738281 30.246094 47.738281 28.839844 46.847656 28.328125 L 40.972656 24.878906 C 40.207031 24.367188 39.054688 25.007812 39.054688 25.898438 L 38.929688 27.8125 L 38.796875 27.8125 C 34.082031 27.804688 29.558594 29.671875 26.226562 33.003906 C 22.894531 36.335938 21.027344 40.859375 21.039062 45.574219 L 21.039062 45.699219 L 19.125 45.832031 C 18.230469 45.960938 17.589844 46.980469 18.105469 47.75 Z M 89.777344 4.820312 C 87.988281 2.265625 85.046875 0.476562 81.851562 0.09375 C 76.101562 -0.675781 70.609375 3.414062 69.332031 9.289062 L 67.929688 15.554688 C 67.546875 17.214844 67.800781 19.003906 68.824219 20.410156 C 69.84375 21.816406 71.25 22.839844 72.910156 23.222656 L 81.214844 25.011719 C 81.726562 25.136719 82.109375 25.136719 82.621094 25.136719 C 85.175781 25.136719 87.605469 23.605469 88.625 21.175781 L 91.5625 14.152344 L 91.691406 13.769531 C 92.203125 10.828125 91.5625 7.507812 89.777344 4.824219 Z M 86.582031 12.613281 L 83.769531 19.382812 C 83.515625 20.023438 82.875 20.277344 82.238281 20.152344 L 73.933594 18.363281 C 73.550781 18.234375 73.292969 18.105469 73.039062 17.722656 C 72.785156 17.46875 72.785156 17.085938 72.910156 16.703125 L 74.316406 10.445312 C 74.957031 7.378906 77.640625 5.207031 80.578125 5.207031 L 81.214844 5.207031 C 83.003906 5.464844 84.535156 6.351562 85.554688 7.757812 C 86.574219 9.164062 86.832031 10.953125 86.574219 12.613281 Z M 80.578125 26.667969 L 78.148438 26.027344 C 73.035156 24.621094 68.4375 25.132812 64.734375 27.433594 C 60.261719 30.242188 57.066406 35.609375 55.535156 42.894531 L 51.066406 65.375 C 50.9375 66.144531 50.296875 66.527344 49.53125 66.527344 L 31.132812 64.738281 C 23.980469 64.351562 17.59375 66.144531 13.632812 69.976562 C 10.183594 73.171875 8.136719 77.769531 8.136719 83.265625 L 8.136719 83.773438 C 8.136719 87.480469 11.074219 90.671875 14.527344 91.824219 L 14.527344 93.738281 C 14.527344 97.316406 17.464844 100 21.042969 100 L 62.820312 100 C 66.394531 100 69.460938 97.316406 69.460938 93.738281 L 69.460938 85.308594 C 70.480469 83.902344 71.25 82.242188 71.761719 80.453125 L 85.304688 34.96875 C 86.070312 31.136719 84.027344 27.6875 80.582031 26.667969 Z M 64.222656 93.609375 C 64.222656 94.378906 63.457031 94.761719 62.691406 94.761719 L 20.914062 94.761719 C 20.148438 94.761719 19.507812 94.25 19.507812 93.609375 L 19.507812 92.207031 L 55.917969 92.207031 C 58.859375 92.1875 61.738281 91.347656 64.222656 89.78125 Z M 80.320312 33.183594 L 66.652344 78.796875 C 65.375 83.652344 60.902344 87.101562 55.917969 87.101562 L 16.953125 87.101562 C 15.164062 87.101562 13.121094 85.441406 13.121094 83.652344 L 13.121094 83.140625 C 13.121094 79.050781 14.652344 75.859375 17.082031 73.558594 C 19.765625 71.003906 24.105469 69.597656 28.960938 69.597656 L 30.625 69.597656 L 48.890625 71.507812 C 52.339844 71.894531 55.53125 69.59375 56.042969 66.269531 L 60.519531 44.042969 C 61.796875 38.164062 64.097656 33.949219 67.417969 31.90625 C 69.972656 30.371094 73.167969 29.988281 76.871094 31.011719 L 79.300781 31.648438 C 79.9375 31.90625 80.449219 32.542969 80.316406 33.183594 Z M 80.320312 33.183594 "/>
</g>
</svg>
