<svg id="Layer_1" data-name="Layer 1" xmlns="http://www.w3.org/2000/svg" viewBox="0 0 1080.53 298.26"><defs><style>.cls-1{fill:#fff;}.cls-2{fill:none;}</style></defs><title>Afrikonekta</title><path class="cls-1" d="M309.58,80.06h0q-6.24,0-8.8,3.58h0a13.08,13.08,0,0,0-2.57,7.79h0V100h16.68a10.14,10.14,0,0,1,7.33,2.84h0a9.66,9.66,0,0,1,2.93,7.24h0a9.64,9.64,0,0,1-2.93,7.23h0a10.14,10.14,0,0,1-7.33,2.84H298.21v64.87h0a11,11,0,0,1-3.11,8h0a10.5,10.5,0,0,1-7.88,3.21h0a10.48,10.48,0,0,1-7.87-3.21h0a11,11,0,0,1-3.12-8h0V120.19h-9.9a10.14,10.14,0,0,1-7.33-2.84h0a9.64,9.64,0,0,1-2.93-7.23h0a9.66,9.66,0,0,1,2.93-7.24h0a10.14,10.14,0,0,1,7.33-2.84h9.9V91.61h0q0-13.74,9.44-22.36h0q9.43-8.61,27.21-8.61h0a24.17,24.17,0,0,1,11.81,2.76h0a9,9,0,0,1,5,8.43h0A10.1,10.1,0,0,1,327.17,79h0a8.22,8.22,0,0,1-6.24,2.74h0a11,11,0,0,1-1.92-.18h0l-2.11-.36h0a30.92,30.92,0,0,0-7.32-1.11Zm69.26,16.32h0a14,14,0,0,1,9.25,3.1h0a9.33,9.33,0,0,1,3.76,7.34h0q0,5.69-2.94,8.52h0a9.66,9.66,0,0,1-7,2.84h0a18.24,18.24,0,0,1-6.23-1.29h0c-.36-.12-1.18-.36-2.47-.73h0a15.25,15.25,0,0,0-4.12-.54h0a16.28,16.28,0,0,0-9.16,2.92h0a21.35,21.35,0,0,0-7.24,8.89h0a32.66,32.66,0,0,0-2.84,14.21h0v43.42h0a11,11,0,0,1-3.12,8h0a10.51,10.51,0,0,1-7.87,3.21h0A10.54,10.54,0,0,1,331,193h0a11,11,0,0,1-3.12-8h0V109.38h0a11,11,0,0,1,3.12-8h0a10.57,10.57,0,0,1,7.89-3.2h0a10.54,10.54,0,0,1,7.87,3.2h0a11,11,0,0,1,3.12,8h0v2.38h0A27.67,27.67,0,0,1,362,100.31h0a37.3,37.3,0,0,1,16.86-3.93Zm38.3,88.68h0a11,11,0,0,1-3.12,8h0a10.53,10.53,0,0,1-7.88,3.21h0a10.53,10.53,0,0,1-7.88-3.21h0a11,11,0,0,1-3.11-8h0V109.38h0a11,11,0,0,1,3.11-8h0a10.56,10.56,0,0,1,7.88-3.2h0a10.56,10.56,0,0,1,7.88,3.2h0a11,11,0,0,1,3.12,8h0ZM406,86.3h0c-4.14,0-7.08-.67-8.79-2h0q-2.57-2-2.56-7.14h0V73.66h0q0-5.13,2.74-7.16h0q2.76-2,8.8-2h0c4.27,0,7.27.67,9,2h0q2.56,2,2.56,7.16h0v3.48h0q0,5.31-2.65,7.23h0c-1.77,1.28-4.8,1.93-9.08,1.93Zm122.78,90.88h0a13.2,13.2,0,0,1,1.83,3.58h0a12.18,12.18,0,0,1,.73,3.93h0a10.54,10.54,0,0,1-3.75,8.25h0a12.81,12.81,0,0,1-8.71,3.3h0a10.08,10.08,0,0,1-4.59-1.11h0a9.94,9.94,0,0,1-3.66-3.1h0l-39.75-52.42-17.41,16.68v28.77h0a10.73,10.73,0,0,1-3.21,8.06h0a11.46,11.46,0,0,1-8.34,3.12h0a11,11,0,0,1-8.15-3.21h0a10.83,10.83,0,0,1-3.21-8h0V79.15h0a10.66,10.66,0,0,1,3.3-8h0A11.59,11.59,0,0,1,442.24,68h0a10.9,10.9,0,0,1,8.06,3.12h0a10.88,10.88,0,0,1,3.12,8.06h0V129l58.63-57.72h0q4.22-4.22,9-4.21h0a9,9,0,0,1,7.15,3.48h0a11.2,11.2,0,0,1,2.93,7.33h0A10,10,0,0,1,527.81,85h0l-39.95,38.12Zm103.15-29.87h0a52.38,52.38,0,0,1-6.59,26.3h0a46.57,46.57,0,0,1-18,18h0a50.68,50.68,0,0,1-25.2,6.42h0a50.47,50.47,0,0,1-25.28-6.42h0a46.59,46.59,0,0,1-18-18h0a52.38,52.38,0,0,1-6.6-26.3h0a52.32,52.32,0,0,1,6.6-26.29h0a47.33,47.33,0,0,1,18-18.14h0A50,50,0,0,1,582,96.38h0a50.23,50.23,0,0,1,25.2,6.5h0a47.31,47.31,0,0,1,18,18.14h0a52.31,52.31,0,0,1,6.59,26.29Zm-22,0h0a33.62,33.62,0,0,0-3.75-16h0a27.65,27.65,0,0,0-10.08-10.91h0a26.45,26.45,0,0,0-14-3.84h0a26.44,26.44,0,0,0-14,3.84h0A27.79,27.79,0,0,0,558,131.28h0a33.51,33.51,0,0,0-3.76,16h0A33,33,0,0,0,558,163.25h0A27.78,27.78,0,0,0,568,174.06h0a26.36,26.36,0,0,0,14,3.85h0a26.37,26.37,0,0,0,14-3.85h0a27.63,27.63,0,0,0,10.08-10.81h0a33.07,33.07,0,0,0,3.75-15.94Zm81.73-50.93h0q18.69,0,25.83,11.08h0q7.15,11.08,7.15,30.7h0v46.9h0a11,11,0,0,1-3.11,8h0a10.51,10.51,0,0,1-7.88,3.21h0a10.54,10.54,0,0,1-7.89-3.21h0a11,11,0,0,1-3.1-8h0v-46.9h0q0-10.08-4.22-15.86h0q-4.21-5.77-14.48-5.77h0q-10.62,0-16.67,6.14h0a21.16,21.16,0,0,0-6,15.49h0v46.9h0a11,11,0,0,1-3.11,8h0a10.53,10.53,0,0,1-7.88,3.21h0a10.53,10.53,0,0,1-7.88-3.21h0a11,11,0,0,1-3.12-8h0V109.38h0a11,11,0,0,1,3.12-8h0a10.56,10.56,0,0,1,7.88-3.2h0a10.56,10.56,0,0,1,7.88,3.2h0a11,11,0,0,1,3.11,8h0v3.12h0a44.38,44.38,0,0,1,12.92-11.37h0a33.55,33.55,0,0,1,17.5-4.75Zm133.76,48.56h0a9.4,9.4,0,0,1-3.48,7.14h0a11.67,11.67,0,0,1-7.69,2.74H753.74q2.19,10.81,10.08,17h0a28.17,28.17,0,0,0,17.77,6.14h0a39.73,39.73,0,0,0,11.73-1.37h0a30.79,30.79,0,0,0,6.68-2.93h0c1.65-1,2.78-1.74,3.4-2.11h0a13.89,13.89,0,0,1,6.22-1.65h0a9,9,0,0,1,6.6,2.75h0A8.76,8.76,0,0,1,819,179h0q0,5-5.13,9h0a43.67,43.67,0,0,1-13.74,7.14h0a53.58,53.58,0,0,1-17.41,2.94h0q-15.39,0-26.84-6.42h0A44.75,44.75,0,0,1,738.16,174h0a51.61,51.61,0,0,1-6.22-25.38h0q0-15.76,6.58-27.67h0a46.88,46.88,0,0,1,17.41-18.23h0A45,45,0,0,1,779,96.38h0a42.72,42.72,0,0,1,22.8,6.59h0A49.14,49.14,0,0,1,819,120.75h0a47.82,47.82,0,0,1,6.41,24.19ZM779,116.53h0q-21.27,0-25.11,20h48v-1.29h0q-.73-7.69-7.52-13.2h0A23.75,23.75,0,0,0,779,116.53ZM914.25,177h0a11.67,11.67,0,0,1,3.48,8.25h0a9.81,9.81,0,0,1-3.57,7.69h0a11.39,11.39,0,0,1-7.6,3.11h0a10.46,10.46,0,0,1-8.07-3.66h0l-33-34.81-9,8.24v19.24h0a11,11,0,0,1-3.12,8h0a10.48,10.48,0,0,1-7.87,3.21h0a10.5,10.5,0,0,1-7.88-3.21h0a11,11,0,0,1-3.12-8h0V71.83h0a11,11,0,0,1,3.12-8h0a10.53,10.53,0,0,1,7.88-3.2h0a10.51,10.51,0,0,1,7.87,3.2h0a11,11,0,0,1,3.12,8h0v67.78l39.22-37.92h0a11,11,0,0,1,8-3.48h0a9.75,9.75,0,0,1,7.24,3.38h0q3.21,3.41,3.21,6.88h0q0,4.4-4.39,8.24h0l-27.67,25.47Zm59-1.47h0a6.08,6.08,0,0,1,4.67,2.47h0a9.67,9.67,0,0,1,2.11,6.51h0q0,5-5.41,8.34h0a22.43,22.43,0,0,1-12.18,3.39h0q-11.37,0-19.15-4.86h0q-7.78-4.86-7.79-20.62h0V120.19h-8.42a10,10,0,0,1-7.34-2.92h0a10,10,0,0,1-2.92-7.34h0a9.42,9.42,0,0,1,2.92-7.05h0a10.16,10.16,0,0,1,7.34-2.84h8.42V88.31h0a10.81,10.81,0,0,1,3.21-8h0a10.86,10.86,0,0,1,8-3.2h0a10.35,10.35,0,0,1,7.7,3.2h0a11,11,0,0,1,3.11,8h0V100h13a9.93,9.93,0,0,1,7.32,2.93h0a10,10,0,0,1,2.93,7.33h0a9.42,9.42,0,0,1-2.93,7h0a10.1,10.1,0,0,1-7.32,2.84h-13v49.66h0q0,3.85,2,5.59h0a8.11,8.11,0,0,0,5.49,1.74h0a15.67,15.67,0,0,0,4-.73h0a10.94,10.94,0,0,1,4.21-.92Zm96-79.15h0a10.72,10.72,0,0,1,7.89,3.1h0a10.91,10.91,0,0,1,3.11,8.07h0v77.51h0a11,11,0,0,1-3.11,8h0a10.54,10.54,0,0,1-7.89,3.21h0a10.37,10.37,0,0,1-7.78-3.12h0a11.49,11.49,0,0,1-3.21-7.87h0a37.54,37.54,0,0,1-12.37,9.06h0a37.21,37.21,0,0,1-16.4,3.76h0a41.92,41.92,0,0,1-22.9-6.5h0a45.69,45.69,0,0,1-16.22-18h0a56.49,56.49,0,0,1-6-26.21h0A57.7,57.7,0,0,1,990.29,121h0a45,45,0,0,1,16-18.14h0a40.85,40.85,0,0,1,22.44-6.5h0a42.59,42.59,0,0,1,16.49,3.2h0a43.29,43.29,0,0,1,13,8.15h0v-.18h0a11,11,0,0,1,3.12-8h0a10.54,10.54,0,0,1,7.87-3.2Zm-37,81.53h0a24.45,24.45,0,0,0,19.42-8.7h0q7.51-8.72,7.51-21.9h0q0-13.19-7.51-22h0a24.35,24.35,0,0,0-19.42-8.79h0a24.17,24.17,0,0,0-19.24,8.79h0q-7.5,8.81-7.51,22h0q0,13.2,7.42,21.9h0q7.43,8.7,19.33,8.7Z"/><path class="cls-1" d="M515.66,236h0a3.8,3.8,0,0,1,2.21,3.63h0a4.83,4.83,0,0,1-1.07,2.92h0a3.51,3.51,0,0,1-2.92,1.5h0a5.1,5.1,0,0,1-2.42-.64h0a17.62,17.62,0,0,0-7.56-1.64h0a17.34,17.34,0,0,0-8.69,2.1h0a14.27,14.27,0,0,0-5.71,5.91h0a18.6,18.6,0,0,0-2,8.73h0q0,8.41,4.53,12.76h0q4.51,4.35,11.86,4.35h0a16.33,16.33,0,0,0,7.56-1.64h0a5.65,5.65,0,0,1,2.27-.56h0a3.93,3.93,0,0,1,3.14,1.56h0a4.66,4.66,0,0,1,1.07,2.92h0a3.83,3.83,0,0,1-.57,2.07h0a3.71,3.71,0,0,1-1.64,1.43h0a26.12,26.12,0,0,1-11.83,2.78h0a27.91,27.91,0,0,1-12.83-3h0a22.74,22.74,0,0,1-9.34-8.73h0a26.48,26.48,0,0,1-3.49-14h0a25.69,25.69,0,0,1,3.32-13h0a23.54,23.54,0,0,1,9.15-9h0a26.64,26.64,0,0,1,13.19-3.25h0A25.36,25.36,0,0,1,515.66,236Zm45.69,28.44h0a20.26,20.26,0,0,1-2.58,10.22h0a18,18,0,0,1-7,7h0a19.66,19.66,0,0,1-9.8,2.5h0a19.59,19.59,0,0,1-9.84-2.5h0a18.11,18.11,0,0,1-7-7h0a20.26,20.26,0,0,1-2.57-10.22h0a20.24,20.24,0,0,1,2.57-10.23h0a18.35,18.35,0,0,1,7-7.06h0a19.41,19.41,0,0,1,9.84-2.53h0a19.47,19.47,0,0,1,9.8,2.53h0a18.23,18.23,0,0,1,7,7.06h0a20.25,20.25,0,0,1,2.58,10.23Zm-8.56,0h0a13.19,13.19,0,0,0-1.46-6.25h0a10.63,10.63,0,0,0-3.92-4.23h0a10.25,10.25,0,0,0-5.45-1.5h0a10.31,10.31,0,0,0-5.46,1.5h0a10.77,10.77,0,0,0-3.92,4.23h0a13.18,13.18,0,0,0-1.45,6.25h0a12.83,12.83,0,0,0,1.45,6.19h0a10.92,10.92,0,0,0,3.92,4.21h0a10.31,10.31,0,0,0,5.46,1.5h0a10.25,10.25,0,0,0,5.45-1.5h0a10.77,10.77,0,0,0,3.92-4.21h0a12.84,12.84,0,0,0,1.46-6.19Zm36.06-19.82h0q7.27,0,10,4.32h0q2.77,4.31,2.78,11.93h0v18.24h0a4.33,4.33,0,0,1-1.21,3.11h0a4.1,4.1,0,0,1-3.07,1.24h0a4.09,4.09,0,0,1-3.06-1.24h0a4.29,4.29,0,0,1-1.21-3.11h0V260.83h0a10.32,10.32,0,0,0-1.64-6.17h0q-1.63-2.24-5.63-2.24h0a8.74,8.74,0,0,0-6.49,2.39h0a8.22,8.22,0,0,0-2.35,6h0v18.24h0a4.33,4.33,0,0,1-1.21,3.11h0a4.1,4.1,0,0,1-3.07,1.24h0a4.09,4.09,0,0,1-3.06-1.24h0a4.29,4.29,0,0,1-1.21-3.11h0V249.64h0a4.25,4.25,0,0,1,1.21-3.1h0a4.09,4.09,0,0,1,3.06-1.24h0a4.1,4.1,0,0,1,3.07,1.24h0a4.29,4.29,0,0,1,1.21,3.1h0v1.21h0a17.24,17.24,0,0,1,5-4.42h0a13.06,13.06,0,0,1,6.8-1.85Zm42.48,0h0q7.27,0,10,4.32h0q2.77,4.31,2.78,11.93h0v18.24h0a4.29,4.29,0,0,1-1.21,3.11h0a4.09,4.09,0,0,1-3.06,1.24h0a4.1,4.1,0,0,1-3.07-1.24h0a4.3,4.3,0,0,1-1.22-3.11h0V260.83h0a10.25,10.25,0,0,0-1.64-6.17h0q-1.63-2.24-5.62-2.24h0a8.7,8.7,0,0,0-6.49,2.39h0a8.22,8.22,0,0,0-2.35,6h0v18.24h0a4.29,4.29,0,0,1-1.21,3.11h0a4.09,4.09,0,0,1-3.06,1.24h0a4.14,4.14,0,0,1-3.08-1.24h0a4.33,4.33,0,0,1-1.21-3.11h0V249.64h0a4.29,4.29,0,0,1,1.21-3.1h0a4.14,4.14,0,0,1,3.08-1.24h0a4.09,4.09,0,0,1,3.06,1.24h0a4.25,4.25,0,0,1,1.21,3.1h0v1.21h0a17.24,17.24,0,0,1,5-4.42h0a13,13,0,0,1,6.8-1.85Zm56.3,18.89h0a3.61,3.61,0,0,1-1.35,2.78h0a4.53,4.53,0,0,1-3,1.06H659.77a10.76,10.76,0,0,0,3.92,6.6h0a11,11,0,0,0,6.91,2.39h0a15.14,15.14,0,0,0,4.56-.54h0a11.88,11.88,0,0,0,2.61-1.14h0l1.31-.82h0a5.58,5.58,0,0,1,2.42-.64h0a3.55,3.55,0,0,1,2.58,1.07h0a3.48,3.48,0,0,1,1.06,2.5h0a4.46,4.46,0,0,1-2,3.49h0A16.76,16.76,0,0,1,677.8,283h0a20.67,20.67,0,0,1-6.77,1.15h0a21,21,0,0,1-10.45-2.5h0a17.46,17.46,0,0,1-6.87-6.87h0a20.06,20.06,0,0,1-2.42-9.88h0a21.7,21.7,0,0,1,2.57-10.75h0a18,18,0,0,1,6.77-7.1h0a17.46,17.46,0,0,1,9-2.46h0a16.64,16.64,0,0,1,8.87,2.57h0a19.06,19.06,0,0,1,6.67,6.91h0a18.63,18.63,0,0,1,2.49,9.41Zm-18-11.05h0q-8.26,0-9.77,7.77h18.69v-.51h0a7.42,7.42,0,0,0-2.93-5.13h0a9.27,9.27,0,0,0-6-2.13Zm41.77-7.84h0a21.57,21.57,0,0,1,9.76,1.89h0q3.71,1.89,3.71,5h0a4.29,4.29,0,0,1-.93,2.75h0a2.94,2.94,0,0,1-2.42,1.17h0a4.59,4.59,0,0,1-1.85-.32h0a6.57,6.57,0,0,1-1.39-.85h0a11.92,11.92,0,0,0-1.32-.9h0a9.43,9.43,0,0,0-2.11-.64h0a11.56,11.56,0,0,0-2.24-.28h0a10.82,10.82,0,0,0-8.38,3.31h0a12.37,12.37,0,0,0-3,8.67h0a12.16,12.16,0,0,0,3.07,8.51h0a10.11,10.11,0,0,0,7.84,3.39h0a12.1,12.1,0,0,0,5.2-.86h0a8.71,8.71,0,0,0,1.18-.75h0a8.86,8.86,0,0,1,1.38-.82h0a3.92,3.92,0,0,1,1.58-.28h0a3.68,3.68,0,0,1,2.82,1.13h0a4.25,4.25,0,0,1,1,2.93h0a4.1,4.1,0,0,1-2,3.2h0a15.42,15.42,0,0,1-5.28,2.39h0a26.28,26.28,0,0,1-7,.9h0a18.06,18.06,0,0,1-9.66-2.57h0a17.27,17.27,0,0,1-6.44-7.09h0a22,22,0,0,1-2.29-10.08h0A21.52,21.52,0,0,1,695,254.14h0a17.52,17.52,0,0,1,6.67-7h0a18.61,18.61,0,0,1,9.69-2.53Zm38.48,30.79h0a2.36,2.36,0,0,1,1.82,1h0a3.76,3.76,0,0,1,.82,2.53h0a3.8,3.8,0,0,1-2.11,3.25h0a8.76,8.76,0,0,1-4.73,1.31h0a13.9,13.9,0,0,1-7.45-1.88h0c-2-1.27-3-3.94-3-8h0V253.85h-3.28a3.84,3.84,0,0,1-2.84-1.15h0a3.84,3.84,0,0,1-1.15-2.85h0a3.62,3.62,0,0,1,1.15-2.74h0a3.87,3.87,0,0,1,2.84-1.1h3.28v-4.57h0a4.18,4.18,0,0,1,1.25-3.09h0a4.19,4.19,0,0,1,3.1-1.26h0a4,4,0,0,1,3,1.26h0a4.23,4.23,0,0,1,1.21,3.09h0V246h5.07a3.9,3.9,0,0,1,2.85,1.14h0a3.9,3.9,0,0,1,1.13,2.85h0a3.68,3.68,0,0,1-1.13,2.74h0a4,4,0,0,1-2.85,1.11h-5.07v19.31h0a2.74,2.74,0,0,0,.78,2.18h0a3.22,3.22,0,0,0,2.15.67h0a6.23,6.23,0,0,0,1.56-.29h0a4.4,4.4,0,0,1,1.64-.35Zm18.82,3.7h0a4.29,4.29,0,0,1-1.21,3.11h0a4.09,4.09,0,0,1-3.06,1.24h0a4.1,4.1,0,0,1-3.07-1.24h0a4.29,4.29,0,0,1-1.21-3.11h0V249.64h0a4.25,4.25,0,0,1,1.21-3.1h0a4.1,4.1,0,0,1,3.07-1.24h0a4.09,4.09,0,0,1,3.06,1.24h0a4.25,4.25,0,0,1,1.21,3.1h0Zm-4.35-38.41h0a5.7,5.7,0,0,1-3.42-.78h0a3.37,3.37,0,0,1-1-2.79h0v-1.35h0A3.21,3.21,0,0,1,761,233h0a5.8,5.8,0,0,1,3.43-.79h0a5.77,5.77,0,0,1,3.49.79h0a3.34,3.34,0,0,1,1,2.77h0v1.35h0a3.25,3.25,0,0,1-1,2.82h0a6.17,6.17,0,0,1-3.52.75Zm33.5,3.92h0q7.27,0,10,4.32h0q2.77,4.31,2.78,11.93h0v18.24h0a4.29,4.29,0,0,1-1.21,3.11h0a4.12,4.12,0,0,1-3.07,1.24h0a4.1,4.1,0,0,1-3.07-1.24h0a4.29,4.29,0,0,1-1.21-3.11h0V260.83h0a10.25,10.25,0,0,0-1.64-6.17h0q-1.63-2.24-5.62-2.24h0a8.7,8.7,0,0,0-6.49,2.39h0a8.22,8.22,0,0,0-2.35,6h0v18.24h0a4.29,4.29,0,0,1-1.21,3.11h0a4.12,4.12,0,0,1-3.07,1.24h0a4.1,4.1,0,0,1-3.07-1.24h0a4.33,4.33,0,0,1-1.21-3.11h0V249.64h0a4.29,4.29,0,0,1,1.21-3.1h0a4.1,4.1,0,0,1,3.07-1.24h0a4.12,4.12,0,0,1,3.07,1.24h0a4.25,4.25,0,0,1,1.21,3.1h0v1.21h0a17.11,17.11,0,0,1,5-4.42h0a13,13,0,0,1,6.8-1.85Zm53.67,0h0a4.14,4.14,0,0,1,3.06,1.21h0a4.24,4.24,0,0,1,1.21,3.14h0v31.72h0q0,8.69-5.38,12.85h0q-5.37,4.19-13.65,4.18h0a33.26,33.26,0,0,1-5.88-.72h0a25.52,25.52,0,0,1-5.31-1.42h0q-3.49-1.5-3.49-4.14h0a3.74,3.74,0,0,1,.21-1.13h0a4.42,4.42,0,0,1,1.47-2.39h0a3.51,3.51,0,0,1,2.24-.83h0a4.35,4.35,0,0,1,1.36.22h0c.18.05,1.36.49,3.52,1.32h0a16.67,16.67,0,0,0,5.88,1.25h0c3.52,0,6.14-.7,7.88-2.1h0a7.25,7.25,0,0,0,2.6-6h0v-3.41h0a14.22,14.22,0,0,1-4.74,4h0a13.7,13.7,0,0,1-6.81,1.79h0a16.92,16.92,0,0,1-9.08-2.54h0a17.56,17.56,0,0,1-6.45-7h0a21.63,21.63,0,0,1-2.36-10.19h0a22.14,22.14,0,0,1,2.32-10.23h0a17.46,17.46,0,0,1,6.34-7.06h0a16.44,16.44,0,0,1,8.94-2.53h0a15.43,15.43,0,0,1,6.77,1.5h0a15.64,15.64,0,0,1,5.07,3.63h0v-.78h0a4.29,4.29,0,0,1,1.21-3.11h0a4.1,4.1,0,0,1,3.07-1.24ZM836.73,276.3h0a10,10,0,0,0,7.8-3.39h0a12.27,12.27,0,0,0,3-8.51h0a12.45,12.45,0,0,0-3-8.56h0a9.94,9.94,0,0,0-7.8-3.42h0a9.82,9.82,0,0,0-7.76,3.42h0a12.52,12.52,0,0,0-3,8.56h0a12.34,12.34,0,0,0,3,8.51h0a9.86,9.86,0,0,0,7.76,3.39Zm88.09,1.56h0a4.79,4.79,0,0,1,.35,1.72h0a4,4,0,0,1-1.21,3h0a3.87,3.87,0,0,1-2.77,1.18h0a3.65,3.65,0,0,1-2.31-.79h0a5,5,0,0,1-1.61-2.14h0l-3.71-8.62H892.32l-3.71,8.7h0a4.31,4.31,0,0,1-1.53,2.1h0a3.71,3.71,0,0,1-2.24.75h0a3.75,3.75,0,0,1-2.81-1h0a3.7,3.7,0,0,1-1-2.71h0a4.43,4.43,0,0,1,.22-1.35h0L899,236.1h0a4.64,4.64,0,0,1,1.7-2.21h0a3.73,3.73,0,0,1,2.57-.64h0a4.17,4.17,0,0,1,2.39.75h0a4.17,4.17,0,0,1,1.59,2.1h0Zm-22-30.5L895.81,264h14.26Zm46-9.12h0a3.9,3.9,0,0,0-3.42,1.39h0a5.09,5.09,0,0,0-1,3h0V246h6.48a3.88,3.88,0,0,1,2.85,1.1h0a3.71,3.71,0,0,1,1.15,2.82h0a3.7,3.7,0,0,1-1.15,2.81h0a3.89,3.89,0,0,1-2.85,1.11h-6.48v25.22h0a4.29,4.29,0,0,1-1.21,3.11h0a4.06,4.06,0,0,1-3.06,1.24h0a4.1,4.1,0,0,1-3.07-1.24h0a4.29,4.29,0,0,1-1.21-3.11h0V253.85H932a3.92,3.92,0,0,1-2.85-1.11h0a3.74,3.74,0,0,1-1.15-2.81h0a3.74,3.74,0,0,1,1.15-2.82h0A3.91,3.91,0,0,1,932,246h3.85v-3.28h0a11.21,11.21,0,0,1,3.67-8.7h0q3.68-3.34,10.58-3.34h0a9.5,9.5,0,0,1,4.6,1.06h0a3.49,3.49,0,0,1,2,3.28h0a3.89,3.89,0,0,1-1,2.78h0a3.19,3.19,0,0,1-2.42,1.07h0a4,4,0,0,1-.75-.07h0l-.82-.14h0a11.94,11.94,0,0,0-2.85-.43Zm31.21,6.34h0a5.42,5.42,0,0,1,3.6,1.21h0a3.61,3.61,0,0,1,1.47,2.85h0A4.4,4.4,0,0,1,984,252h0a3.72,3.72,0,0,1-2.71,1.1h0a7,7,0,0,1-2.42-.5h0l-1-.28h0a5.84,5.84,0,0,0-1.6-.21h0a6.46,6.46,0,0,0-3.57,1.13h0a8.24,8.24,0,0,0-2.81,3.46h0a12.7,12.7,0,0,0-1.11,5.52h0v16.89h0a4.29,4.29,0,0,1-1.21,3.11h0a4.06,4.06,0,0,1-3.06,1.24h0a4.06,4.06,0,0,1-3.06-1.24h0a4.29,4.29,0,0,1-1.21-3.11h0V249.64h0a4.25,4.25,0,0,1,1.21-3.1h0a4.06,4.06,0,0,1,3.06-1.24h0a4.06,4.06,0,0,1,3.06,1.24h0a4.25,4.25,0,0,1,1.21,3.1h0v.93h0a10.81,10.81,0,0,1,4.71-4.46h0a14.44,14.44,0,0,1,6.55-1.53Zm19.18,34.49h0a4.33,4.33,0,0,1-1.21,3.11h0a4.1,4.1,0,0,1-3.07,1.24h0a4.09,4.09,0,0,1-3.06-1.24h0a4.29,4.29,0,0,1-1.21-3.11h0V249.64h0a4.25,4.25,0,0,1,1.21-3.1h0A4.09,4.09,0,0,1,995,245.3h0a4.1,4.1,0,0,1,3.07,1.24h0a4.29,4.29,0,0,1,1.21,3.1h0Zm-4.35-38.41h0a5.68,5.68,0,0,1-3.42-.78h0a3.37,3.37,0,0,1-1-2.79h0v-1.35h0a3.21,3.21,0,0,1,1.06-2.77h0a5.79,5.79,0,0,1,3.42-.79h0a5.78,5.78,0,0,1,3.5.79h0a3.34,3.34,0,0,1,1,2.77h0v1.35h0a3.28,3.28,0,0,1-1,2.82h0a6.23,6.23,0,0,1-3.53.75Zm29.72,3.92h0a21.54,21.54,0,0,1,9.76,1.89h0q3.71,1.89,3.71,5h0a4.34,4.34,0,0,1-.92,2.75h0a3,3,0,0,1-2.43,1.17h0a4.67,4.67,0,0,1-1.86-.32h0a6.77,6.77,0,0,1-1.38-.85h0a12.94,12.94,0,0,0-1.32-.9h0a9.27,9.27,0,0,0-2.11-.64h0a11.47,11.47,0,0,0-2.23-.28h0a10.81,10.81,0,0,0-8.38,3.31h0a12.37,12.37,0,0,0-3,8.67h0a12.19,12.19,0,0,0,3.06,8.51h0a10.1,10.1,0,0,0,7.84,3.39h0a12.15,12.15,0,0,0,5.21-.86h0a9.39,9.39,0,0,0,1.18-.75h0a8,8,0,0,1,1.38-.82h0a3.87,3.87,0,0,1,1.57-.28h0a3.62,3.62,0,0,1,2.81,1.13h0a4.22,4.22,0,0,1,1,2.93h0a4.12,4.12,0,0,1-2,3.2h0a15.56,15.56,0,0,1-5.29,2.39h0a26.22,26.22,0,0,1-7,.9h0a18,18,0,0,1-9.65-2.57h0a17.22,17.22,0,0,1-6.45-7.09h0a22.1,22.1,0,0,1-2.28-10.08h0a21.4,21.4,0,0,1,2.39-10.26h0a17.49,17.49,0,0,1,6.66-7h0a18.63,18.63,0,0,1,9.69-2.53Zm51,0h0a4.15,4.15,0,0,1,3.07,1.21h0a4.27,4.27,0,0,1,1.21,3.14h0v30.14h0a4.33,4.33,0,0,1-1.21,3.11h0a4.1,4.1,0,0,1-3.07,1.24h0a4,4,0,0,1-3-1.21h0a4.5,4.5,0,0,1-1.25-3.06h0a14.54,14.54,0,0,1-4.81,3.52h0a14.41,14.41,0,0,1-6.38,1.47h0a16.32,16.32,0,0,1-8.91-2.54h0a17.82,17.82,0,0,1-6.31-7h0a22,22,0,0,1-2.31-10.19h0a22.38,22.38,0,0,1,2.28-10.23h0a17.51,17.51,0,0,1,6.23-7.06h0a15.86,15.86,0,0,1,8.73-2.53h0a16.51,16.51,0,0,1,6.42,1.24h0a17.19,17.19,0,0,1,5.06,3.18h0v-.07h0a4.26,4.26,0,0,1,1.22-3.11h0a4.09,4.09,0,0,1,3.06-1.24Zm-14.39,31.72h0a9.52,9.52,0,0,0,7.55-3.39h0a12.53,12.53,0,0,0,2.92-8.51h0a12.72,12.72,0,0,0-2.92-8.56h0a9.48,9.48,0,0,0-7.55-3.42h0a9.4,9.4,0,0,0-7.49,3.42h0a12.72,12.72,0,0,0-2.93,8.56h0a12.62,12.62,0,0,0,2.9,8.51h0a9.39,9.39,0,0,0,7.52,3.39Z"/><path class="cls-2" d="M138.1,84.61a217,217,0,0,0-18,25,280.18,280.18,0,0,1,18-25Z"/><path class="cls-1" d="M269.38,4.3Q265.28.58,257,.58q-17.81,0-41,8.54-41.9,15.42-82,46.31c-12.43,9.8-30.7,26.28-30.7,26.28h0q-23.13,22.5-35.81,43.38a125,125,0,0,0-11.28,23.42,68.41,68.41,0,0,0-4.09,22.92q0,11.35,5.86,18.17a15.9,15.9,0,0,0,5.43,4.52,13.19,13.19,0,0,0,5.79,1.46A23.41,23.41,0,0,0,76.51,194a92,92,0,0,0,25.13-13.42,62.33,62.33,0,0,1-1.1-11.65,78,78,0,0,1,.85-11.52q3.69-23.13,18.37-47.27h0l.35-.53a217,217,0,0,1,18-25h0c11.34-14,19.4-20.88,19.4-20.88h0a226.53,226.53,0,0,1,42.64-32.66q28.41-16.59,50.61-16.59c3.42,0,5.12.94,5.12,2.81q0,5.37-13.29,19.63-5.85,6.46-13.47,14T213.53,67.11q-8,8.6-15.61,18-3.84,4.74-7.23,9.64l-9.25,15.15A113.62,113.62,0,0,0,174.81,125a66.72,66.72,0,0,0-3.66,22.26,57.13,57.13,0,0,0,3.66,21.1q7.31,17.93,24.51,23.65a50.65,50.65,0,0,0,17.4,2.9h0a43,43,0,0,0,16.83-3.79c22.83-9.21,28-31.31,28-31.31,2.18-8.07,0-9.4,0-9.4a1.6,1.6,0,0,0-1.26-.68,2.17,2.17,0,0,0-.95.09,22.56,22.56,0,0,1-9.25,5.4l-.25.07-.27.06a17.23,17.23,0,0,1-3.75.44q-12.79,0-12.8-14.51,0-19.87,10.49-48.53,4.5-12.32,9.69-24.15T263,46.5q4.5-10.3,7.5-18.72t3-14.09A12.16,12.16,0,0,0,269.38,4.3Z"/><path class="cls-1" d="M119.74,110.14h0l.33-.53Z"/><path class="cls-1" d="M120.34,65.25C74.89,49.3,29.62,61.11,10,79v0s-.29.23-.77.67l0,0-.07.06C7,81.78-3.12,92.28,1.42,106.31c.19.57.4,1.14.64,1.72a24.88,24.88,0,0,0,9.53,11.44h0s.29.19.83.51l.2.13.39.21c2.57,1.44,8.29,4.21,14.53,4.42l.39,0h.49c.28,0,.57,0,.85,0l.36,0a18,18,0,0,0,4.64-.89h0a20,20,0,0,0,6.67-3.54C25,93.32,61,81.79,61,81.79c73.41-15.05,130.36,31.69,130.36,31.69l12.1,10.09S188.85,89.29,120.34,65.25Z"/></svg>