<?xml version="1.0" encoding="UTF-8"?>
<svg xmlns="http://www.w3.org/2000/svg" xmlns:xlink="http://www.w3.org/1999/xlink" width="100px" height="102px" viewBox="0 0 100 102" version="1.1">
<g id="surface1">
<path style=" stroke:none;fill-rule:evenodd;fill:rgb(100%,100%,100%);fill-opacity:1;" d="M 9.6875 68.742188 L 41.769531 68.742188 C 41.226562 70.890625 41.015625 72.933594 40.902344 75.082031 L 9.582031 75.082031 C 4.390625 75.082031 0.0742188 70.890625 0.0742188 65.617188 L 0.0742188 17.34375 C 0.0742188 12.175781 4.285156 7.882812 9.582031 7.882812 L 16.492188 7.882812 L 16.492188 2.828125 C 16.492188 1.324219 17.785156 0.0273438 19.296875 0.0273438 L 26.320312 0.0273438 C 27.832031 0.0273438 29.136719 1.324219 29.136719 2.828125 L 29.136719 7.882812 L 47.605469 7.882812 L 47.605469 2.828125 C 47.605469 1.324219 48.898438 0.0273438 50.410156 0.0273438 L 57.433594 0.0273438 C 58.945312 0.0273438 60.246094 1.324219 60.246094 2.828125 L 60.246094 7.882812 L 67.148438 7.882812 C 72.339844 7.882812 76.652344 12.074219 76.652344 17.34375 L 76.652344 44.226562 C 76.128906 44.167969 75.597656 44.128906 75.066406 44.101562 C 74.535156 44.078125 74 44.0625 73.46875 44.0625 C 72.9375 44.0625 72.40625 44.078125 71.882812 44.101562 C 71.351562 44.128906 70.816406 44.167969 70.285156 44.226562 L 70.285156 27.667969 L 6.445312 27.667969 L 6.445312 65.617188 C 6.445312 67.453125 7.957031 68.855469 9.6875 68.742188 Z M 60.132812 35.511719 C 60.417969 35.519531 60.703125 35.578125 60.960938 35.679688 C 61.226562 35.785156 61.464844 35.945312 61.664062 36.144531 C 61.863281 36.34375 62.023438 36.578125 62.128906 36.84375 C 62.234375 37.101562 62.289062 37.382812 62.289062 37.667969 L 62.289062 43.363281 C 62.289062 43.648438 62.234375 43.921875 62.128906 44.1875 C 62.023438 44.441406 61.863281 44.679688 61.664062 44.878906 C 61.464844 45.078125 61.226562 45.238281 60.960938 45.351562 C 60.703125 45.457031 60.417969 45.511719 60.132812 45.511719 L 52.140625 45.511719 C 51.855469 45.511719 51.578125 45.457031 51.3125 45.351562 C 51.054688 45.238281 50.816406 45.078125 50.617188 44.878906 C 50.417969 44.679688 50.257812 44.441406 50.152344 44.1875 C 50.039062 43.921875 49.980469 43.648438 49.980469 43.363281 L 49.980469 37.667969 C 49.980469 37.382812 50.039062 37.101562 50.144531 36.84375 C 50.257812 36.578125 50.417969 36.34375 50.617188 36.144531 C 50.816406 35.945312 51.054688 35.785156 51.3125 35.679688 C 51.578125 35.578125 51.855469 35.519531 52.140625 35.511719 Z M 44.582031 37.667969 L 44.582031 43.363281 C 44.582031 43.648438 44.523438 43.921875 44.410156 44.1875 C 44.304688 44.441406 44.144531 44.679688 43.945312 44.878906 C 43.746094 45.085938 43.507812 45.238281 43.242188 45.351562 C 42.984375 45.457031 42.699219 45.511719 42.414062 45.511719 L 34.421875 45.511719 C 34.144531 45.511719 33.859375 45.457031 33.601562 45.351562 C 33.335938 45.238281 33.097656 45.078125 32.898438 44.878906 C 32.699219 44.679688 32.539062 44.441406 32.433594 44.1875 C 32.320312 43.921875 32.261719 43.648438 32.261719 43.363281 L 32.261719 37.667969 C 32.261719 37.382812 32.320312 37.101562 32.433594 36.84375 C 32.539062 36.578125 32.699219 36.34375 32.898438 36.144531 C 33.097656 35.945312 33.335938 35.785156 33.601562 35.679688 C 33.859375 35.578125 34.144531 35.519531 34.421875 35.511719 L 42.414062 35.511719 C 43.601562 35.511719 44.46875 36.484375 44.582031 37.667969 Z M 44.582031 53.261719 L 44.582031 58.957031 C 44.582031 59.242188 44.523438 59.515625 44.421875 59.78125 C 44.304688 60.035156 44.144531 60.273438 43.945312 60.480469 C 43.746094 60.679688 43.507812 60.832031 43.242188 60.945312 C 42.984375 61.046875 42.699219 61.105469 42.414062 61.105469 L 34.421875 61.105469 C 34.144531 61.105469 33.859375 61.046875 33.601562 60.945312 C 33.335938 60.832031 33.097656 60.679688 32.898438 60.472656 C 32.699219 60.273438 32.539062 60.035156 32.433594 59.78125 C 32.320312 59.515625 32.261719 59.242188 32.261719 58.957031 L 32.261719 53.261719 C 32.261719 52.976562 32.320312 52.695312 32.433594 52.4375 C 32.539062 52.171875 32.699219 51.9375 32.898438 51.738281 C 33.097656 51.539062 33.335938 51.378906 33.601562 51.273438 C 33.859375 51.160156 34.144531 51.105469 34.421875 51.105469 L 42.414062 51.105469 C 43.601562 51.105469 44.46875 52.078125 44.582031 53.261719 Z M 26.757812 43.261719 C 26.757812 43.542969 26.703125 43.828125 26.585938 44.082031 C 26.484375 44.347656 26.320312 44.585938 26.121094 44.785156 C 25.921875 44.980469 25.683594 45.144531 25.417969 45.246094 C 25.160156 45.359375 24.875 45.417969 24.589844 45.417969 L 16.597656 45.417969 C 16.320312 45.417969 16.035156 45.359375 15.78125 45.246094 C 15.511719 45.144531 15.277344 44.980469 15.074219 44.785156 C 14.875 44.585938 14.714844 44.347656 14.609375 44.082031 C 14.496094 43.828125 14.4375 43.542969 14.4375 43.261719 L 14.4375 37.5625 C 14.4375 37.28125 14.496094 37.003906 14.609375 36.742188 C 14.714844 36.484375 14.875 36.25 15.074219 36.039062 C 15.277344 35.84375 15.511719 35.691406 15.78125 35.578125 C 16.035156 35.472656 16.320312 35.417969 16.597656 35.417969 L 24.589844 35.417969 C 24.875 35.417969 25.160156 35.472656 25.417969 35.578125 C 25.683594 35.691406 25.921875 35.84375 26.121094 36.039062 C 26.320312 36.25 26.484375 36.484375 26.585938 36.742188 C 26.703125 37.003906 26.757812 37.28125 26.757812 37.5625 Z M 26.863281 53.25 L 26.863281 58.957031 C 26.863281 59.242188 26.804688 59.515625 26.703125 59.78125 C 26.585938 60.035156 26.425781 60.273438 26.226562 60.472656 C 26.027344 60.671875 25.789062 60.832031 25.53125 60.933594 C 25.265625 61.046875 24.992188 61.105469 24.707031 61.105469 L 16.710938 61.105469 C 16.425781 61.105469 16.140625 61.046875 15.882812 60.933594 C 15.617188 60.832031 15.378906 60.671875 15.179688 60.472656 C 14.980469 60.273438 14.820312 60.035156 14.714844 59.78125 C 14.609375 59.515625 14.554688 59.242188 14.542969 58.957031 L 14.542969 53.25 C 14.554688 52.976562 14.601562 52.695312 14.714844 52.4375 C 14.820312 52.171875 14.980469 51.9375 15.179688 51.738281 C 15.378906 51.539062 15.617188 51.378906 15.882812 51.273438 C 16.140625 51.160156 16.425781 51.105469 16.710938 51.105469 L 24.707031 51.105469 C 25.894531 51.105469 26.757812 52.070312 26.863281 53.25 Z M 84.21875 68.097656 C 83.574219 67.992188 83.03125 67.453125 82.8125 66.59375 C 82.769531 66.4375 82.742188 66.273438 82.738281 66.109375 C 82.730469 65.945312 82.746094 65.78125 82.785156 65.617188 C 82.824219 65.460938 82.878906 65.308594 82.957031 65.164062 C 83.039062 65.019531 83.136719 64.886719 83.25 64.765625 L 86.378906 61.644531 C 78.601562 54.652344 66.71875 54.871094 59.269531 62.289062 C 51.597656 69.925781 51.597656 82.289062 59.269531 89.917969 C 66.9375 97.554688 79.363281 97.554688 87.023438 89.917969 C 89.953125 87.011719 91.890625 83.359375 92.539062 79.386719 C 92.871094 77.664062 94.476562 76.492188 96.207031 76.8125 C 97.929688 77.132812 99.117188 78.75 98.792969 80.464844 C 97.929688 85.847656 95.445312 90.578125 91.558594 94.449219 C 86.691406 99.285156 80.105469 101.972656 73.195312 101.972656 C 66.285156 101.972656 59.6875 99.285156 54.828125 94.449219 C 44.675781 84.335938 44.675781 67.992188 54.828125 57.886719 C 59.6875 53.042969 66.285156 50.355469 73.195312 50.355469 C 79.894531 50.355469 86.046875 52.835938 90.914062 57.347656 L 94.050781 54.226562 C 94.167969 54.113281 94.304688 54.019531 94.449219 53.941406 C 94.59375 53.859375 94.746094 53.800781 94.90625 53.761719 C 95.070312 53.726562 95.234375 53.710938 95.398438 53.714844 C 95.5625 53.722656 95.726562 53.75 95.882812 53.800781 C 96.3125 54.007812 96.957031 54.546875 97.070312 55.191406 L 99.875 68.742188 C 99.992188 69.28125 99.875 69.925781 99.449219 70.351562 C 99.019531 70.890625 98.480469 70.992188 97.832031 70.890625 Z M 73.109375 62.070312 C 74.839844 62.070312 76.351562 63.472656 76.453125 65.078125 L 76.453125 74.117188 L 81.207031 76.160156 C 82.824219 76.90625 83.46875 78.742188 82.824219 80.351562 C 82.28125 81.523438 81.09375 82.28125 79.90625 82.28125 C 79.476562 82.28125 79.039062 82.28125 78.613281 82.074219 L 71.910156 79.167969 C 70.722656 78.628906 69.960938 77.550781 69.960938 76.261719 L 69.960938 65.191406 C 69.960938 64.785156 70.046875 64.378906 70.199219 64 C 70.359375 63.621094 70.589844 63.273438 70.882812 62.988281 C 71.167969 62.695312 71.519531 62.46875 71.902344 62.308594 C 72.28125 62.144531 72.691406 62.070312 73.097656 62.070312 Z M 73.109375 62.070312 "/>
</g>
</svg>
