<?xml version="1.0" encoding="UTF-8"?>
<svg xmlns="http://www.w3.org/2000/svg" xmlns:xlink="http://www.w3.org/1999/xlink" width="100px" height="100px" viewBox="0 0 100 100" version="1.1">
<g id="surface1">
<path style=" stroke:none;fill-rule:nonzero;fill:rgb(100%,100%,100%);fill-opacity:1;" d="M 50 0 C 27.929688 0 10.035156 17.894531 10.035156 39.964844 C 10.035156 51 14.941406 60.582031 21.742188 68.226562 L 50 100 L 78.261719 68.226562 C 85.054688 60.582031 89.964844 51.003906 89.964844 39.964844 C 89.964844 17.894531 72.070312 0 50 0 Z M 74.179688 64.144531 C 64.398438 73.921875 49.691406 76.847656 36.914062 71.554688 C 24.136719 66.261719 15.804688 53.792969 15.804688 39.964844 C 15.804688 21.109375 31.144531 5.769531 50 5.769531 C 68.855469 5.769531 84.195312 21.109375 84.195312 39.964844 C 84.21875 49.039062 80.613281 57.746094 74.179688 64.144531 Z M 73.011719 51.027344 C 69.046875 51.929688 69.628906 53.304688 69.246094 54.535156 C 68.804688 55.957031 69.769531 55.566406 68.921875 57.347656 C 68.570312 58.078125 67.75 59.609375 68.804688 60.625 C 70.921875 62.667969 71.613281 57.957031 71.972656 56.992188 C 72.808594 54.742188 75.492188 50.464844 73.011719 51.027344 Z M 74.199219 32.246094 C 73.152344 31.070312 71.609375 34.132812 68.800781 32.472656 C 67.96875 31.980469 68.5625 31.210938 68.035156 30.503906 C 67.828125 30.226562 67.730469 30.070312 67.449219 29.820312 C 66.722656 29.179688 67.214844 29.695312 66.625 29.296875 C 65.902344 28.808594 66.171875 29.175781 65.738281 28.40625 C 65.078125 27.246094 65.929688 28.089844 64.9375 27.109375 C 64.792969 26.96875 63.398438 23.296875 63.253906 23.148438 C 63.082031 22.972656 62.726562 22.933594 62.667969 22.695312 C 62.371094 21.488281 60.605469 19.25 60.386719 18.199219 C 60.164062 17.152344 61.1875 17.164062 60.347656 16.59375 C 59.296875 15.882812 59.359375 16.628906 58.148438 16.652344 C 57.101562 16.675781 56.449219 16.445312 55.390625 16.238281 C 55.269531 16.214844 55.128906 16.265625 55.019531 16.199219 C 54.019531 15.601562 53.394531 14.546875 52.226562 15.335938 C 50.960938 16.183594 52.214844 18.210938 49.203125 16.566406 C 47.980469 15.894531 48.875 15.953125 47.550781 15.40625 C 46.671875 15.042969 45.851562 15.269531 45.253906 14.566406 C 44.859375 14.105469 45.925781 12.367188 45.128906 11.941406 C 43.816406 11.238281 42.15625 12.15625 40.667969 12.199219 C 39.136719 12.242188 38.054688 13.054688 36.964844 13.429688 C 36.59375 13.554688 36.1875 13.429688 35.800781 13.414062 C 34.523438 13.371094 35.382812 12.84375 34.183594 12.992188 C 33.425781 13.085938 33.679688 13.84375 33.074219 14.324219 C 32.222656 14.996094 32.0625 14.722656 31.59375 15.660156 C 30.570312 17.671875 31.585938 17.855469 29.441406 18.738281 C 28.789062 19.003906 29.457031 18.421875 28.808594 19.511719 C 28.238281 20.472656 26.390625 22.949219 26.066406 24.222656 C 25.855469 25.03125 26.847656 25.84375 26.25 27.554688 C 26.183594 27.742188 26.238281 27.953125 26.15625 28.128906 C 25.753906 29.027344 25.550781 28.832031 25.984375 29.953125 C 26.117188 30.292969 25.539062 30.636719 25.625 30.992188 C 25.769531 31.574219 26.128906 31.605469 26.34375 31.722656 C 27.269531 32.222656 27.148438 32.285156 27.660156 33.296875 C 27.917969 33.804688 28.300781 34.238281 28.613281 34.714844 C 29.253906 35.710938 30.804688 37.609375 32.722656 37.289062 C 33.925781 37.085938 33.921875 36.796875 35.238281 36.851562 C 36.46875 36.902344 36.78125 36.828125 37.980469 36.273438 C 39.15625 35.730469 39.359375 35.601562 40.753906 36.003906 C 41.085938 36.097656 41.308594 36.433594 41.515625 36.714844 C 41.695312 36.960938 41.597656 37.421875 41.871094 37.546875 C 42.121094 37.660156 42.355469 37.265625 42.625 37.222656 C 43 37.167969 43.449219 37.050781 43.773438 37.261719 C 44.335938 37.632812 44.640625 38.003906 44.746094 38.9375 C 44.820312 39.519531 44.757812 40.105469 44.566406 40.660156 C 43.664062 43.109375 45.585938 42.839844 46.1875 44.777344 C 46.300781 45.148438 46.394531 45.519531 46.542969 45.871094 C 47.046875 47.082031 47.8125 49.054688 47.40625 50.464844 C 47.105469 51.5 45.863281 53.054688 46.257812 54.292969 C 46.308594 54.457031 46.222656 54.644531 46.265625 54.808594 C 46.9375 57.386719 47.910156 57.578125 48.402344 61.273438 C 48.695312 63.460938 48.96875 62.757812 49.804688 64.292969 C 50.894531 66.28125 49.785156 66.371094 50.902344 67.882812 C 51.472656 68.65625 55.808594 68.113281 57.171875 66.808594 C 58.550781 65.488281 59.613281 63.871094 60.792969 62.363281 C 61.402344 61.589844 61.953125 60.769531 62.535156 59.972656 C 62.730469 59.75 62.835938 59.417969 62.789062 58.808594 C 62.617188 56.691406 61.375 57.90625 63.425781 55.589844 C 65.179688 53.609375 67.425781 54.257812 66.625 50.648438 C 66.566406 50.386719 66.480469 50.132812 66.410156 49.875 C 66.394531 49.8125 66.304688 49.710938 66.328125 49.628906 C 66.679688 48.4375 64.730469 47.070312 65.886719 44.371094 C 67.414062 40.824219 70.90625 39.824219 72.304688 37.027344 C 72.882812 35.863281 75.046875 33.1875 74.199219 32.242188 Z M 58.125 65 C 58.125 65 58.113281 65 58.113281 65 C 58.113281 64.992188 58.121094 64.988281 58.125 64.988281 C 58.132812 64.984375 58.128906 64.996094 58.125 65 Z M 58.125 65 "/>
</g>
</svg>
