<?xml version="1.0" encoding="UTF-8"?>
<svg xmlns="http://www.w3.org/2000/svg" xmlns:xlink="http://www.w3.org/1999/xlink" width="100px" height="117px" viewBox="0 0 100 117" version="1.1">
<g id="surface1">
<path style=" stroke:none;fill-rule:nonzero;fill:rgb(100%,100%,100%);fill-opacity:1;" d="M 99.445312 67.492188 C 99.683594 67.804688 99.859375 68.175781 99.925781 68.5625 C 100 68.953125 99.976562 69.355469 99.871094 69.734375 C 99.761719 70.113281 99.566406 70.472656 99.292969 70.753906 C 99.023438 71.046875 98.683594 71.273438 98.316406 71.414062 L 87.914062 75.300781 C 87.097656 80.988281 85.304688 93.890625 85.175781 94.921875 L 85.175781 94.941406 L 85.164062 95.03125 C 85.128906 95.300781 85.054688 95.5625 84.933594 95.800781 C 84.816406 96.039062 84.664062 96.265625 84.46875 96.460938 C 84.28125 96.65625 84.066406 96.816406 83.824219 96.9375 C 83.585938 97.066406 83.324219 97.152344 83.066406 97.195312 C 77.371094 98.160156 67.878906 97.953125 62.96875 97.761719 C 62.738281 103.523438 62.609375 111 62.683594 114.390625 C 62.691406 114.554688 62.679688 114.722656 62.652344 114.886719 C 62.625 115.054688 62.578125 115.210938 62.523438 115.363281 C 62.464844 115.523438 62.390625 115.675781 62.304688 115.820312 C 62.210938 115.957031 62.105469 116.085938 61.988281 116.210938 C 61.875 116.332031 61.75 116.441406 61.621094 116.535156 C 61.480469 116.636719 61.335938 116.71875 61.183594 116.785156 C 61.03125 116.855469 60.875 116.910156 60.707031 116.945312 C 60.546875 116.980469 60.378906 117.003906 60.207031 117.011719 L 60.121094 117.011719 C 59.78125 117.011719 59.457031 116.945312 59.152344 116.816406 C 58.847656 116.695312 58.566406 116.511719 58.335938 116.285156 C 58.097656 116.046875 57.902344 115.777344 57.773438 115.472656 C 57.640625 115.167969 57.574219 114.84375 57.566406 114.519531 C 57.476562 110.402344 57.664062 100.914062 57.957031 94.988281 C 57.96875 94.652344 58.054688 94.324219 58.195312 94.011719 C 58.335938 93.707031 58.542969 93.4375 58.792969 93.210938 C 59.042969 92.984375 59.335938 92.808594 59.664062 92.699219 C 59.976562 92.582031 60.316406 92.539062 60.652344 92.558594 L 60.835938 92.570312 C 63.890625 92.710938 73.96875 93.125 80.347656 92.429688 C 80.46875 91.5625 80.621094 90.457031 80.792969 89.210938 C 81.066406 87.296875 81.378906 84.976562 81.707031 82.703125 L 79.554688 82.703125 C 78.78125 82.691406 78.011719 82.613281 77.25 82.472656 C 76.488281 82.332031 75.75 82.136719 75.023438 81.878906 C 74.292969 81.617188 73.585938 81.292969 72.914062 80.925781 C 72.238281 80.558594 71.597656 80.125 70.988281 79.648438 L 70.957031 79.636719 L 70.824219 79.515625 C 70.316406 79.074219 70.011719 78.433594 69.96875 77.761719 C 69.933594 77.089844 70.164062 76.429688 70.609375 75.921875 C 71.054688 75.410156 71.695312 75.109375 72.371094 75.0625 C 73.042969 75.03125 73.707031 75.257812 74.21875 75.703125 C 74.601562 76 75.003906 76.261719 75.425781 76.496094 C 75.851562 76.71875 76.289062 76.914062 76.738281 77.078125 C 77.195312 77.238281 77.664062 77.359375 78.140625 77.449219 C 78.613281 77.535156 79.089844 77.585938 79.574219 77.597656 L 82.402344 77.597656 C 82.574219 76.363281 82.726562 75.257812 82.859375 74.328125 C 82.925781 73.851562 82.988281 73.4375 83.03125 73.09375 C 83.070312 72.863281 83.128906 72.640625 83.21875 72.433594 C 83.3125 72.222656 83.429688 72.03125 83.574219 71.859375 C 83.722656 71.675781 83.882812 71.523438 84.066406 71.390625 C 84.253906 71.253906 84.453125 71.144531 84.664062 71.066406 L 93.324219 67.804688 L 83.523438 54.523438 C 83.441406 54.414062 83.371094 54.304688 83.304688 54.1875 C 83.238281 54.066406 83.183594 53.9375 83.140625 53.808594 C 83.097656 53.679688 83.066406 53.550781 83.042969 53.417969 C 83.023438 53.28125 83.011719 53.144531 83.011719 53.007812 L 83.011719 36.769531 C 83.074219 16.164062 64.140625 5.234375 45.414062 5.101562 L 44.933594 5.101562 C 32.433594 5.101562 22.511719 9.011719 15.476562 16.738281 C 6.46875 26.550781 4.324219 40.582031 5.324219 50.441406 C 7.316406 70.070312 22.816406 84.035156 24.566406 85.5625 L 24.597656 85.582031 C 24.742188 85.707031 24.875 85.847656 24.988281 86.003906 C 25.105469 86.164062 25.203125 86.332031 25.28125 86.503906 C 25.355469 86.683594 25.410156 86.871094 25.445312 87.066406 C 25.476562 87.253906 25.484375 87.445312 25.476562 87.640625 L 25.183594 94.617188 C 24.890625 101.628906 24.511719 110.347656 24.390625 114.410156 C 24.371094 115.070312 24.097656 115.710938 23.609375 116.175781 C 23.128906 116.640625 22.488281 116.902344 21.816406 116.890625 C 21.152344 116.890625 20.511719 116.632812 20.03125 116.15625 C 19.554688 115.6875 19.28125 115.050781 19.273438 114.390625 L 19.273438 114.347656 C 19.414062 109.816406 19.859375 99.65625 20.109375 93.988281 L 20.335938 88.617188 C 18.371094 86.796875 14.226562 82.679688 10.195312 76.777344 C 9.578125 75.875 8.984375 74.957031 8.414062 74.023438 C 7.839844 73.101562 7.296875 72.15625 6.78125 71.195312 C 6.261719 70.242188 5.765625 69.277344 5.292969 68.292969 C 4.824219 67.3125 4.375 66.3125 3.957031 65.304688 C 2 60.570312 0.761719 55.738281 0.273438 50.949219 C -0.835938 40.007812 1.585938 24.363281 11.738281 13.261719 C 12.738281 12.15625 13.804688 11.113281 14.933594 10.140625 C 16.054688 9.152344 17.226562 8.246094 18.457031 7.398438 C 19.683594 6.554688 20.96875 5.785156 22.28125 5.089844 C 23.609375 4.386719 24.957031 3.769531 26.347656 3.226562 C 31.96875 1.027344 38.402344 -0.0546875 45.445312 0 C 46.765625 0.0078125 48.078125 0.0664062 49.390625 0.171875 C 50.703125 0.273438 52.011719 0.425781 53.316406 0.628906 C 54.621094 0.832031 55.914062 1.082031 57.195312 1.386719 C 58.476562 1.683594 59.75 2.03125 61.011719 2.425781 C 66.152344 4.050781 70.761719 6.402344 74.683594 9.425781 C 78.890625 12.640625 82.175781 16.519531 84.457031 20.953125 C 86.914062 25.738281 88.152344 31.089844 88.128906 36.84375 L 88.128906 52.226562 L 99.445312 67.480469 Z M 99.445312 67.492188 "/>
<path style=" stroke:none;fill-rule:evenodd;fill:rgb(100%,100%,100%);fill-opacity:1;" d="M 64.207031 52 C 63.722656 52.230469 63.226562 52.441406 62.726562 52.628906 C 62.226562 52.816406 61.726562 52.984375 61.21875 53.136719 C 60.703125 53.289062 60.183594 53.417969 59.664062 53.527344 C 59.15625 53.636719 58.644531 53.734375 58.128906 53.820312 C 57.625 53.898438 57.109375 53.96875 56.585938 54.027344 C 56.074219 54.078125 55.558594 54.117188 55.042969 54.144531 C 54.523438 54.175781 54.003906 54.1875 53.488281 54.1875 C 52.773438 54.1875 52.058594 54.164062 51.347656 54.113281 C 50.628906 54.0625 49.921875 53.984375 49.21875 53.875 C 48.507812 53.773438 47.804688 53.644531 47.109375 53.484375 C 46.414062 53.332031 45.722656 53.152344 45.03125 52.941406 C 43.152344 53.59375 40.03125 54.003906 36.683594 54.003906 C 32.097656 54.003906 27.097656 53.234375 24.316406 51.230469 C 15.273438 45.976562 12.628906 34.386719 12.5 33.8125 L 11.988281 31.546875 L 14.25 30.820312 C 14.9375 30.617188 15.628906 30.441406 16.324219 30.289062 C 17.023438 30.132812 17.722656 29.996094 18.425781 29.890625 C 19.132812 29.773438 19.84375 29.683594 20.554688 29.617188 C 21.265625 29.554688 21.976562 29.511719 22.683594 29.488281 C 22.683594 28.679688 22.714844 27.867188 22.773438 27.050781 C 22.824219 26.234375 22.90625 25.425781 23.023438 24.625 C 23.136719 23.816406 23.28125 23.011719 23.457031 22.21875 C 23.628906 21.417969 23.832031 20.625 24.066406 19.847656 L 24.066406 19.8125 L 24.78125 17.605469 L 27.109375 18.101562 C 27.847656 18.296875 28.582031 18.515625 29.316406 18.753906 C 30.039062 19 30.761719 19.265625 31.476562 19.554688 C 32.1875 19.84375 32.886719 20.152344 33.574219 20.484375 C 34.273438 20.816406 34.953125 21.175781 35.621094 21.558594 C 36.074219 20.570312 36.578125 19.605469 37.128906 18.664062 C 37.679688 17.71875 38.273438 16.800781 38.914062 15.914062 C 39.550781 15.027344 40.226562 14.171875 40.945312 13.347656 C 41.664062 12.523438 42.417969 11.734375 43.207031 10.972656 L 43.226562 10.953125 L 44.933594 9.402344 L 46.707031 10.984375 C 47.488281 11.734375 48.238281 12.523438 48.957031 13.347656 C 49.675781 14.175781 50.351562 15.03125 50.988281 15.914062 C 51.621094 16.800781 52.210938 17.71875 52.761719 18.664062 C 53.3125 19.605469 53.820312 20.570312 54.28125 21.558594 C 54.957031 21.167969 55.644531 20.808594 56.347656 20.476562 C 57.050781 20.136719 57.761719 19.816406 58.476562 19.523438 C 59.203125 19.234375 59.933594 18.96875 60.675781 18.730469 C 61.421875 18.484375 62.171875 18.269531 62.925781 18.082031 L 62.96875 18.070312 L 65.238281 17.582031 L 65.957031 19.824219 C 66.1875 20.605469 66.390625 21.390625 66.566406 22.1875 C 66.738281 22.988281 66.882812 23.789062 67 24.589844 C 67.117188 25.402344 67.199219 26.214844 67.25 27.027344 C 67.308594 27.839844 67.332031 28.652344 67.324219 29.464844 C 68.042969 29.488281 68.757812 29.53125 69.46875 29.597656 C 70.175781 29.660156 70.886719 29.75 71.597656 29.855469 C 72.300781 29.972656 73 30.105469 73.695312 30.257812 C 74.390625 30.417969 75.082031 30.597656 75.773438 30.800781 L 75.835938 30.820312 L 78 31.578125 L 77.488281 33.8125 C 77.359375 34.386719 74.71875 46.03125 65.621094 51.261719 C 65.15625 51.53125 64.683594 51.777344 64.207031 52 Z M 38.574219 29.792969 C 38.519531 30.414062 38.492188 31.035156 38.5 31.65625 C 38.515625 32.285156 38.566406 32.90625 38.652344 33.519531 C 38.730469 34.140625 38.851562 34.753906 39.011719 35.359375 C 39.273438 36.25 39.574219 37.117188 39.925781 37.972656 C 40.265625 38.832031 40.652344 39.667969 41.085938 40.484375 C 41.523438 41.300781 41.996094 42.09375 42.511719 42.867188 C 43.023438 43.632812 43.578125 44.375 44.175781 45.089844 C 44.390625 45.335938 44.71875 45.714844 45.023438 46.074219 C 45.316406 45.738281 45.621094 45.371094 45.816406 45.121094 L 45.835938 45.097656 C 46.429688 44.390625 46.984375 43.652344 47.5 42.878906 C 48.015625 42.113281 48.488281 41.320312 48.925781 40.503906 C 49.351562 39.691406 49.738281 38.851562 50.085938 37.992188 C 50.433594 37.132812 50.734375 36.257812 50.988281 35.371094 C 51.140625 34.765625 51.257812 34.148438 51.335938 33.527344 C 51.425781 32.90625 51.472656 32.285156 51.476562 31.664062 C 51.492188 31.039062 51.472656 30.414062 51.414062 29.792969 C 51.355469 29.164062 51.265625 28.546875 51.140625 27.9375 C 51.089844 27.722656 51.039062 27.507812 50.988281 27.300781 C 50.929688 27.089844 50.875 26.882812 50.816406 26.671875 C 50.75 26.460938 50.679688 26.253906 50.609375 26.042969 C 50.542969 25.832031 50.476562 25.628906 50.402344 25.425781 C 50.082031 24.617188 49.726562 23.824219 49.335938 23.042969 C 48.953125 22.269531 48.535156 21.511719 48.085938 20.765625 C 47.636719 20.023438 47.15625 19.304688 46.640625 18.613281 C 46.125 17.910156 45.582031 17.230469 45.011719 16.574219 C 44.4375 17.230469 43.894531 17.90625 43.378906 18.601562 C 42.875 19.300781 42.390625 20.023438 41.933594 20.765625 C 41.484375 21.511719 41.070312 22.269531 40.683594 23.042969 C 40.292969 23.824219 39.9375 24.613281 39.621094 25.414062 C 39.546875 25.625 39.476562 25.832031 39.402344 26.042969 C 39.335938 26.246094 39.273438 26.453125 39.207031 26.671875 C 39.148438 26.882812 39.089844 27.089844 39.03125 27.300781 C 38.976562 27.515625 38.925781 27.730469 38.878906 27.9375 C 38.742188 28.554688 38.640625 29.171875 38.574219 29.792969 Z M 38 45.402344 C 37.601562 44.789062 37.222656 44.160156 36.859375 43.515625 C 36.503906 42.875 36.167969 42.222656 35.847656 41.558594 C 35.527344 40.890625 35.234375 40.21875 34.96875 39.542969 C 34.699219 38.855469 34.453125 38.164062 34.226562 37.460938 L 34.21875 37.441406 C 33.957031 36.550781 33.75 35.648438 33.597656 34.730469 C 33.453125 33.8125 33.367188 32.894531 33.335938 31.96875 C 33.316406 31.042969 33.351562 30.121094 33.445312 29.195312 C 33.539062 28.269531 33.691406 27.359375 33.902344 26.453125 C 33.742188 26.355469 33.578125 26.257812 33.414062 26.164062 C 33.007812 25.925781 32.597656 25.695312 32.183594 25.480469 C 31.765625 25.269531 31.339844 25.066406 30.914062 24.863281 C 30.484375 24.667969 30.054688 24.484375 29.621094 24.308594 C 29.183594 24.128906 28.746094 23.960938 28.304688 23.800781 C 28.195312 24.386719 28.101562 24.96875 28.023438 25.546875 C 27.949219 26.128906 27.890625 26.71875 27.847656 27.3125 C 27.8125 27.894531 27.789062 28.480469 27.78125 29.066406 C 27.773438 29.65625 27.789062 30.246094 27.824219 30.832031 C 27.832031 31.042969 27.847656 31.25 27.871094 31.460938 C 27.882812 31.667969 27.90625 31.875 27.933594 32.078125 C 27.957031 32.285156 27.980469 32.492188 28.011719 32.695312 C 28.039062 32.90625 28.074219 33.109375 28.109375 33.3125 C 28.1875 33.753906 28.285156 34.191406 28.402344 34.625 C 28.519531 35.050781 28.648438 35.472656 28.792969 35.890625 C 28.945312 36.308594 29.117188 36.722656 29.304688 37.125 C 29.484375 37.53125 29.6875 37.925781 29.914062 38.316406 C 31.847656 41.664062 35.152344 43.941406 38 45.402344 Z M 62.804688 43.226562 C 62.203125 43.96875 61.5625 44.675781 60.878906 45.347656 C 60.199219 46.019531 59.480469 46.648438 58.726562 47.234375 C 57.96875 47.816406 57.175781 48.359375 56.359375 48.859375 C 56.945312 48.785156 57.527344 48.6875 58.109375 48.566406 C 58.679688 48.441406 59.25 48.296875 59.816406 48.121094 C 60.378906 47.949219 60.9375 47.75 61.488281 47.527344 C 62.03125 47.308594 62.570312 47.066406 63.097656 46.800781 L 63.371094 46.660156 C 67.890625 43.90625 70.488281 38.707031 71.824219 35.121094 C 71.414062 35.050781 70.996094 34.980469 70.574219 34.914062 C 70.164062 34.859375 69.75 34.8125 69.335938 34.773438 C 68.917969 34.730469 68.496094 34.699219 68.074219 34.675781 C 67.65625 34.65625 67.238281 34.640625 66.824219 34.632812 C 66.710938 35.183594 66.574219 35.722656 66.425781 36.25 C 66.273438 36.78125 66.097656 37.308594 65.902344 37.828125 C 65.707031 38.351562 65.492188 38.859375 65.261719 39.359375 C 65.023438 39.863281 64.765625 40.359375 64.488281 40.839844 L 64.46875 40.886719 C 63.960938 41.695312 63.40625 42.472656 62.804688 43.226562 Z M 55 39.550781 C 54.730469 40.238281 54.4375 40.914062 54.121094 41.578125 C 53.800781 42.234375 53.460938 42.886719 53.097656 43.527344 C 52.734375 44.171875 52.355469 44.800781 51.957031 45.414062 C 54.902344 43.917969 58.128906 41.644531 60.054688 38.308594 C 60.273438 37.925781 60.476562 37.53125 60.664062 37.125 C 60.851562 36.722656 61.019531 36.308594 61.164062 35.890625 C 61.316406 35.480469 61.449219 35.058594 61.566406 34.625 C 61.679688 34.195312 61.773438 33.765625 61.847656 33.324219 C 61.882812 33.121094 61.917969 32.914062 61.945312 32.707031 C 61.980469 32.496094 62.011719 32.289062 62.03125 32.089844 C 62.054688 31.878906 62.074219 31.667969 62.097656 31.460938 C 62.113281 31.25 62.125 31.042969 62.140625 30.832031 C 62.171875 30.246094 62.179688 29.660156 62.175781 29.078125 C 62.175781 28.484375 62.152344 27.894531 62.109375 27.3125 C 62.074219 26.726562 62.019531 26.140625 61.945312 25.554688 C 61.878906 24.972656 61.792969 24.390625 61.683594 23.8125 C 61.199219 23.992188 60.71875 24.179688 60.238281 24.375 C 59.761719 24.578125 59.289062 24.789062 58.824219 25.015625 C 58.355469 25.238281 57.890625 25.476562 57.433594 25.730469 C 56.984375 25.976562 56.539062 26.234375 56.097656 26.507812 C 56.226562 27.085938 56.335938 27.671875 56.425781 28.265625 C 56.511719 28.847656 56.574219 29.4375 56.609375 30.03125 C 56.644531 30.628906 56.65625 31.226562 56.640625 31.816406 C 56.625 32.410156 56.589844 33 56.53125 33.59375 C 56.496094 33.925781 56.453125 34.25 56.402344 34.570312 C 56.359375 34.894531 56.304688 35.21875 56.238281 35.542969 C 56.175781 35.863281 56.101562 36.179688 56.023438 36.496094 C 55.941406 36.816406 55.855469 37.132812 55.761719 37.449219 L 55.75 37.484375 C 55.523438 38.183594 55.273438 38.875 55 39.550781 Z M 28.523438 47.558594 C 29.074219 47.78125 29.628906 47.980469 30.195312 48.152344 C 30.761719 48.335938 31.332031 48.488281 31.914062 48.609375 C 32.5 48.730469 33.085938 48.828125 33.675781 48.902344 C 30.628906 47.058594 27.554688 44.480469 25.476562 40.90625 L 25.46875 40.894531 C 25.199219 40.410156 24.945312 39.917969 24.707031 39.410156 C 24.476562 38.90625 24.261719 38.390625 24.066406 37.863281 C 23.871094 37.34375 23.695312 36.8125 23.542969 36.269531 C 23.382812 35.734375 23.25 35.195312 23.140625 34.644531 C 22.726562 34.660156 22.320312 34.675781 21.914062 34.699219 C 21.5 34.722656 21.089844 34.753906 20.683594 34.796875 C 20.273438 34.832031 19.863281 34.875 19.457031 34.925781 C 19.050781 34.984375 18.644531 35.046875 18.238281 35.109375 C 19.402344 38.402344 22.011719 43.984375 26.902344 46.8125 C 27.429688 47.085938 27.972656 47.335938 28.523438 47.558594 Z M 28.523438 47.558594 "/>
</g>
</svg>
