<?xml version="1.0" encoding="UTF-8"?>
<svg xmlns="http://www.w3.org/2000/svg" xmlns:xlink="http://www.w3.org/1999/xlink" width="100px" height="100px" viewBox="0 0 100 100" version="1.1">
<g id="surface1">
<path style=" stroke:none;fill-rule:nonzero;fill:rgb(100%,100%,100%);fill-opacity:1;" d="M 50.082031 89.300781 C 48.070312 89.300781 46.441406 90.929688 46.441406 92.941406 C 46.441406 94.949219 48.070312 96.578125 50.082031 96.578125 C 52.089844 96.582031 53.71875 94.953125 53.71875 92.941406 C 53.71875 90.933594 52.089844 89.304688 50.082031 89.300781 Z M 56.230469 72.492188 C 56.230469 75.925781 53.445312 78.710938 50.011719 78.707031 C 46.578125 78.707031 43.792969 75.921875 43.796875 72.488281 C 43.796875 69.054688 46.582031 66.273438 50.015625 66.273438 C 53.449219 66.273438 56.230469 69.058594 56.230469 72.492188 Z M 50.011719 52.554688 C 42.234375 52.554688 35.488281 57.035156 32.203125 63.546875 L 37.835938 69.179688 C 39.292969 63.824219 44.199219 59.871094 50.011719 59.871094 C 55.808594 59.871094 60.703125 63.800781 62.179688 69.128906 L 67.804688 63.503906 C 64.511719 57.015625 57.777344 52.554688 50.011719 52.554688 Z M 50.011719 39.019531 C 38.523438 39.019531 28.371094 44.839844 22.339844 53.683594 L 27.628906 58.976562 C 32.214844 51.40625 40.535156 46.335938 50.011719 46.335938 C 59.476562 46.335938 67.78125 51.386719 72.375 58.9375 L 77.664062 53.648438 C 71.628906 44.824219 61.488281 39.019531 50.011719 39.019531 Z M 18.226562 49.574219 C 25.355469 39.714844 36.945312 33.289062 50.011719 33.289062 C 63.070312 33.289062 74.644531 39.699219 81.773438 49.539062 L 87 44.3125 C 78.492188 33.175781 65.082031 25.972656 50.011719 25.972656 C 34.945312 25.972656 21.507812 33.1875 13 44.351562 Z M 26.109375 22.382812 L 26.109375 26.792969 C 27.089844 26.207031 28.089844 25.648438 29.113281 25.125 L 29.113281 14.566406 C 29.113281 14.265625 29.355469 14.023438 29.65625 14.023438 L 69.914062 14.023438 C 70.058594 14.019531 70.199219 14.078125 70.300781 14.179688 C 70.40625 14.28125 70.464844 14.417969 70.464844 14.566406 L 70.464844 24.90625 C 71.4375 25.386719 72.394531 25.894531 73.328125 26.4375 L 73.328125 6.378906 C 73.328125 3.058594 70.640625 0.371094 67.320312 0.371094 L 65.949219 0.371094 C 65.863281 0.179688 65.671875 0.0546875 65.464844 0.0546875 L 60.226562 0.0546875 C 60.015625 0.0546875 59.824219 0.179688 59.734375 0.371094 L 32.113281 0.371094 C 28.796875 0.371094 26.109375 3.058594 26.109375 6.375 L 26.109375 14.136719 C 25.917969 14.222656 25.796875 14.417969 25.792969 14.628906 L 25.792969 16.613281 C 25.792969 16.824219 25.917969 17.015625 26.109375 17.105469 L 26.109375 19.414062 C 25.917969 19.5 25.796875 19.695312 25.792969 19.90625 L 25.792969 21.890625 C 25.796875 22.101562 25.917969 22.296875 26.113281 22.382812 Z M 49.535156 4.242188 C 49.90625 4.242188 50.238281 4.460938 50.378906 4.800781 C 50.523438 5.144531 50.445312 5.535156 50.183594 5.796875 C 49.921875 6.054688 49.53125 6.132812 49.191406 5.992188 C 48.851562 5.851562 48.628906 5.519531 48.628906 5.148438 C 48.628906 4.648438 49.035156 4.242188 49.535156 4.242188 Z M 46.351562 8.519531 L 53.175781 8.519531 C 53.46875 8.53125 53.699219 8.769531 53.699219 9.0625 C 53.699219 9.355469 53.46875 9.597656 53.175781 9.609375 L 46.351562 9.609375 C 46.058594 9.597656 45.828125 9.355469 45.828125 9.0625 C 45.828125 8.769531 46.058594 8.53125 46.351562 8.519531 Z M 72.371094 64.75 C 71.792969 63.796875 71.15625 62.878906 70.464844 62.007812 L 70.464844 85.9375 C 70.464844 86.238281 70.21875 86.480469 69.917969 86.480469 L 29.660156 86.480469 C 29.359375 86.480469 29.113281 86.238281 29.113281 85.9375 L 29.113281 62.601562 C 28.582031 63.304688 28.085938 64.035156 27.632812 64.789062 L 26.109375 63.261719 L 26.109375 93.945312 C 26.113281 97.261719 28.800781 99.945312 32.117188 99.945312 L 67.324219 99.945312 C 70.636719 99.945312 73.324219 97.257812 73.328125 93.945312 L 73.328125 63.796875 Z M 50.082031 97.671875 C 47.46875 97.671875 45.347656 95.550781 45.347656 92.9375 C 45.351562 90.324219 47.46875 88.207031 50.082031 88.207031 C 52.695312 88.207031 54.8125 90.328125 54.8125 92.941406 C 54.808594 95.554688 52.691406 97.667969 50.082031 97.671875 Z M 50.082031 97.671875 "/>
</g>
</svg>
