<?xml version="1.0" encoding="UTF-8"?>
<svg xmlns="http://www.w3.org/2000/svg" xmlns:xlink="http://www.w3.org/1999/xlink" width="171px" height="100px" viewBox="0 0 171 100" version="1.1">
<g id="surface1">
<path style=" stroke:none;fill-rule:evenodd;fill:rgb(6.666667%,77.254902%,5.490196%);fill-opacity:1;" d="M 14.203125 46.078125 C 14.203125 35.390625 14.203125 24.703125 14.203125 14.015625 C 14.203125 13.792969 14.234375 13.570312 14.25 13.285156 L 55.6875 13.285156 C 55.6875 23.699219 55.6875 35.363281 55.6875 45.792969 C 55.6875 48.253906 54.785156 49.160156 52.34375 49.160156 C 40.679688 49.167969 29.015625 49.167969 17.351562 49.160156 C 15.152344 49.160156 14.203125 48.253906 14.203125 46.078125 Z M 24.429688 28.238281 L 17.636719 28.238281 L 17.636719 34.332031 L 24.429688 34.332031 Z M 52.25 36.539062 L 45.441406 36.539062 L 45.441406 42.585938 L 52.25 42.585938 Z M 45.425781 25.96875 L 52.28125 25.96875 L 52.28125 19.9375 L 45.410156 19.9375 Z M 45.425781 34.300781 L 52.265625 34.300781 L 52.265625 28.238281 L 45.425781 28.238281 Z M 43.003906 36.492188 L 36.195312 36.492188 L 36.195312 42.570312 L 43.003906 42.570312 Z M 42.972656 34.363281 L 42.972656 28.222656 L 36.210938 28.222656 L 36.210938 34.363281 Z M 36.179688 25.984375 L 42.988281 25.984375 L 42.988281 19.953125 L 36.179688 19.953125 Z M 26.917969 25.984375 L 33.726562 25.984375 L 33.726562 19.890625 L 26.917969 19.890625 Z M 26.917969 34.300781 L 33.757812 34.300781 L 33.757812 28.191406 L 26.933594 28.191406 Z M 26.902344 42.570312 L 33.726562 42.570312 L 33.726562 36.507812 L 26.902344 36.507812 Z M 17.652344 25.984375 L 24.460938 25.984375 L 24.460938 19.921875 L 17.652344 19.921875 Z M 17.636719 42.523438 L 24.445312 42.523438 L 24.445312 36.492188 L 17.636719 36.492188 Z M 17.636719 42.523438 "/>
<path style=" stroke:none;fill-rule:nonzero;fill:rgb(6.666667%,77.254902%,5.490196%);fill-opacity:1;" d="M 21.25 9.0625 C 21.234375 7.90625 21.25 6.746094 21.25 5.585938 C 21.25 4.382812 21.214844 3.175781 21.25 1.984375 C 21.265625 0.792969 21.914062 0.046875 22.894531 0 C 23.941406 -0.03125 24.699219 0.714844 24.714844 1.96875 C 24.746094 4.359375 24.746094 6.757812 24.714844 9.160156 C 24.699219 10.382812 23.910156 11.191406 22.925781 11.175781 C 21.914062 11.144531 21.265625 10.332031 21.25 9.0625 Z M 21.25 9.0625 "/>
<path style=" stroke:none;fill-rule:nonzero;fill:rgb(6.666667%,77.254902%,5.490196%);fill-opacity:1;" d="M 46.773438 11.03125 C 46.550781 10.953125 46.359375 10.824219 46.1875 10.652344 C 46.027344 10.492188 45.886719 10.300781 45.804688 10.078125 C 45.710938 9.871094 45.664062 9.636719 45.664062 9.398438 C 45.601562 6.855469 45.601562 4.300781 45.664062 1.746094 C 45.695312 0.636719 46.472656 -0.015625 47.453125 0 C 48.417969 0.03125 49.082031 0.777344 49.097656 1.984375 C 49.113281 3.175781 49.097656 4.382812 49.097656 5.570312 C 49.097656 6.808594 49.128906 8.046875 49.097656 9.285156 C 49.066406 10.363281 48.371094 11.128906 47.453125 11.160156 C 47.214844 11.175781 46.976562 11.128906 46.773438 11.03125 Z M 46.773438 11.03125 "/>
<path style=" stroke:none;fill-rule:nonzero;fill:rgb(6.666667%,77.254902%,5.490196%);fill-opacity:1;" d="M 33.488281 9.300781 C 33.457031 8.03125 33.488281 6.746094 33.488281 5.476562 C 33.488281 4.238281 33.457031 3 33.488281 1.777344 C 33.519531 0.746094 34.199219 0.046875 35.101562 0 C 35.324219 -0.015625 35.546875 0.015625 35.75 0.09375 C 35.972656 0.160156 36.164062 0.285156 36.320312 0.429688 C 36.496094 0.585938 36.621094 0.761719 36.71875 0.96875 C 36.796875 1.175781 36.84375 1.398438 36.859375 1.617188 C 36.921875 4.207031 36.9375 6.792969 36.875 9.382812 C 36.859375 10.460938 36.019531 11.207031 35.132812 11.175781 C 34.214844 11.128906 33.519531 10.398438 33.488281 9.300781 Z M 33.488281 9.300781 "/>
<path style=" stroke:none;fill-rule:nonzero;fill:rgb(6.666667%,77.254902%,5.490196%);fill-opacity:1;" d="M 126.601562 86.921875 C 127.0625 89.617188 125.953125 91.683594 123.910156 93.332031 C 121.550781 95.238281 118.765625 96.253906 115.898438 97.0625 C 109.914062 98.761719 103.773438 99.414062 97.582031 99.746094 C 95.933594 99.839844 94.289062 99.910156 92.640625 99.953125 C 90.996094 99.996094 89.347656 100.003906 87.699219 99.984375 C 86.054688 99.972656 84.40625 99.929688 82.761719 99.855469 C 81.113281 99.792969 79.472656 99.699219 77.835938 99.570312 C 71.757812 99.128906 65.722656 98.347656 59.945312 96.285156 C 57.425781 95.398438 55.050781 94.253906 53.199219 92.238281 C 51.742188 90.636719 51.316406 88.761719 51.695312 86.683594 C 52.535156 82.015625 53.644531 77.414062 55.386719 73 C 57.726562 67.09375 60.925781 61.730469 65.691406 57.445312 C 68.148438 55.238281 70.855469 53.398438 73.847656 52.144531 C 84.027344 59.144531 94.160156 59.191406 104.40625 52.128906 C 111.546875 55.332031 116.660156 60.730469 120.363281 67.570312 C 123.660156 73.636719 125.414062 80.191406 126.601562 86.921875 Z M 126.601562 86.921875 "/>
<path style=" stroke:none;fill-rule:nonzero;fill:rgb(6.666667%,77.254902%,5.490196%);fill-opacity:1;" d="M 81.796875 50.699219 C 79.484375 49.730469 77.394531 48.316406 75.621094 46.539062 C 73.847656 44.761719 72.453125 42.652344 71.488281 40.332031 C 70.539062 38.015625 70.046875 35.523438 70.046875 33.015625 C 70.046875 25.269531 74.703125 18.285156 81.84375 15.332031 C 88.984375 12.363281 97.199219 14.015625 102.648438 19.492188 C 108.109375 24.984375 109.726562 33.222656 106.765625 40.363281 C 103.789062 47.523438 96.820312 52.175781 89.09375 52.160156 C 86.59375 52.160156 84.105469 51.652344 81.796875 50.699219 Z M 81.796875 50.699219 "/>
<path style=" stroke:none;fill-rule:nonzero;fill:rgb(6.666667%,77.254902%,5.490196%);fill-opacity:1;" d="M 39.933594 79.316406 L 43.796875 77.90625 C 43.242188 80.09375 42.734375 82.429688 42.273438 84.96875 C 42.210938 85.285156 42.164062 85.609375 42.132812 85.9375 C 42.089844 86.253906 42.058594 86.578125 42.039062 86.90625 C 42.015625 87.234375 42 87.5625 41.988281 87.890625 C 41.988281 88.207031 41.996094 88.527344 42.003906 88.855469 L 32.109375 92.476562 L 29.527344 79.222656 L 13.570312 89.476562 C 12.367188 91.792969 10.007812 93.269531 7.394531 93.347656 C 4.78125 93.429688 2.34375 92.09375 0.996094 89.855469 C -0.347656 87.617188 -0.378906 84.824219 0.902344 82.539062 C 2.199219 80.269531 4.609375 78.871094 7.21875 78.890625 C 7.503906 78.890625 7.796875 78.910156 8.089844 78.953125 C 8.386719 78.984375 8.671875 79.035156 8.945312 79.109375 C 9.230469 79.183594 9.511719 79.273438 9.785156 79.382812 C 10.058594 79.496094 10.328125 79.625 10.59375 79.761719 L 36.75 62.96875 Z M 39.933594 79.316406 "/>
<path style=" stroke:none;fill-rule:nonzero;fill:rgb(6.666667%,77.254902%,5.490196%);fill-opacity:1;" d="M 171 36.445312 L 163.90625 54.253906 L 161.007812 50.636719 L 134.046875 72.539062 L 130.941406 67.398438 C 130.277344 65.871094 129.5625 64.414062 128.789062 62.984375 C 126.113281 58.03125 122.851562 53.871094 119.082031 50.445312 L 129.976562 46.476562 L 136.769531 57.652344 L 154.851562 42.96875 L 152.0625 39.507812 Z M 171 36.445312 "/>
</g>
</svg>
