<?xml version="1.0" encoding="UTF-8"?>
<svg xmlns="http://www.w3.org/2000/svg" xmlns:xlink="http://www.w3.org/1999/xlink" width="181px" height="100px" viewBox="0 0 180 100" version="1.1">
<g id="surface1">
<path style=" stroke:none;fill-rule:evenodd;fill:rgb(6.666667%,77.254902%,5.490196%);fill-opacity:1;" d="M 179.964844 30.835938 C 179.867188 32.675781 179.898438 34.53125 179.964844 36.589844 C 180.015625 38.261719 179.601562 39.566406 178.75 40.46875 C 178.25 41.003906 177.316406 41.640625 175.800781 41.671875 C 173.800781 41.671875 172.765625 40.734375 172.214844 39.964844 C 171.632812 39.097656 171.332031 37.941406 171.332031 36.554688 L 171.332031 33.746094 C 171.332031 31.789062 171.332031 29.832031 171.316406 27.875 C 171.300781 26.453125 170.832031 25.316406 169.785156 24.265625 C 169.5 25.285156 169.285156 26.171875 169.285156 27.007812 C 169.25 41.679688 169.234375 56.355469 169.234375 71.035156 L 169.234375 82.691406 C 169.234375 90.152344 168.765625 91.085938 162.417969 92.175781 C 162.351562 92.519531 162.292969 92.871094 162.25 93.226562 C 161.964844 95.050781 161.683594 96.941406 160.683594 98.527344 C 159.964844 99.664062 158.464844 99.816406 157.082031 99.816406 C 156.566406 99.816406 156.035156 99.800781 155.5 99.765625 C 155.101562 99.75 154.714844 99.734375 154.367188 99.734375 C 150.867188 99.699219 150.535156 98.546875 149.867188 92.308594 L 110.933594 92.308594 C 110.898438 92.597656 110.859375 92.886719 110.816406 93.175781 C 110.566406 95.015625 110.300781 96.941406 109.265625 98.511719 C 108.449219 99.75 106.648438 99.882812 105.367188 99.882812 C 105.132812 99.882812 104.898438 99.878906 104.667969 99.867188 C 104.433594 99.855469 104.199219 99.839844 103.964844 99.816406 C 103.734375 99.804688 103.5 99.789062 103.265625 99.765625 C 103.035156 99.742188 102.800781 99.714844 102.566406 99.683594 C 98.167969 99.128906 98.332031 95.96875 98.433594 94.082031 C 98.464844 93.359375 98.515625 92.691406 98.382812 92.125 L 97.933594 92.125 C 97.582031 92.125 97.199219 92.125 96.816406 92.105469 C 92.816406 91.941406 90.785156 89.816406 90.765625 85.835938 C 90.734375 80.753906 90.75 75.667969 90.75 70.585938 C 90.75 70.585938 90.75 35.953125 90.75 25.015625 C 90.75 24.867188 90.734375 24.734375 90.734375 24.582031 C 90 25.367188 89.648438 26.355469 89.601562 27.59375 C 89.550781 28.828125 89.566406 30.082031 89.582031 31.320312 C 89.601562 33.226562 89.617188 35.183594 89.417969 37.140625 C 88.816406 41.65625 86.035156 41.554688 86.035156 41.554688 L 85.367188 41.621094 C 85.316406 41.621094 85.25 41.589844 85.199219 41.589844 C 82.582031 41.671875 81.535156 40.050781 81.167969 38.664062 C 81.148438 38.59375 81.148438 38.527344 81.132812 38.460938 C 81.101562 38.339844 81.070312 38.214844 81.050781 38.09375 C 81.039062 37.972656 81.023438 37.847656 81 37.726562 C 80.988281 37.59375 80.976562 37.464844 80.964844 37.339844 C 80.964844 37.21875 80.964844 37.097656 80.964844 36.972656 C 80.917969 34.046875 80.898438 31.136719 80.984375 28.226562 C 81.082031 23.695312 83.132812 19.882812 87.035156 16.890625 C 89.417969 15.066406 90.898438 13.292969 90.898438 10.082031 C 90.898438 4.246094 95.566406 0.152344 102.234375 0.132812 C 106.601562 0.121094 110.960938 0.117188 115.316406 0.117188 L 157.25 0.132812 C 164.484375 0.132812 168 3.210938 169.367188 10.71875 C 169.667969 12.40625 171.117188 14.582031 172.882812 15.988281 C 178.015625 20.050781 180.332031 24.917969 179.964844 30.835938 Z M 114.464844 7.941406 C 114.464844 8.546875 114.449219 9.480469 114.582031 9.683594 C 114.601562 9.683594 114.765625 9.800781 115.316406 9.800781 C 117.484375 9.734375 119.515625 9.699219 121.550781 9.699219 L 130 9.75 L 138.765625 9.714844 C 140.867188 9.714844 142.949219 9.734375 145.050781 9.78125 L 145.066406 9.78125 C 145.699219 9.78125 145.867188 9.683594 145.867188 9.683594 C 145.964844 9.53125 145.984375 8.761719 145.984375 8.3125 C 146 7.023438 145.898438 6.738281 145.851562 6.671875 C 145.851562 6.671875 145.667969 6.539062 144.984375 6.539062 C 139.949219 6.589844 134.964844 6.621094 129.964844 6.621094 C 125.109375 6.621094 120.253906 6.59375 115.398438 6.539062 L 115.351562 5.082031 L 115.351562 6.539062 C 114.75 6.539062 114.582031 6.65625 114.582031 6.65625 C 114.484375 6.804688 114.484375 7.492188 114.464844 7.941406 Z M 110.199219 75.902344 C 110.183594 75.820312 110.167969 75.453125 110.148438 75.367188 C 110.035156 74.78125 109.832031 73.796875 109.617188 73.578125 C 105.867188 71.070312 102.683594 69.347656 99.601562 68.160156 C 98.75 67.859375 98.082031 67.691406 97.582031 67.691406 C 97.132812 67.691406 96.367188 67.691406 96.367188 70.703125 C 96.367188 74.363281 96.75 74.867188 100.082031 75.5 C 102.851562 76.054688 105.765625 76.085938 108.601562 76.105469 C 109.050781 76.105469 109.601562 76.152344 110.199219 75.902344 Z M 145.984375 83.878906 C 146 82.742188 145.917969 82.425781 145.832031 82.359375 C 145.832031 82.359375 145.667969 82.207031 145 82.207031 C 140 82.257812 135.035156 82.273438 130.066406 82.273438 C 126.851562 82.273438 123.632812 82.257812 120.398438 82.242188 L 115.066406 82.242188 C 115.035156 82.242188 114.996094 82.246094 114.949219 82.257812 C 114.917969 82.257812 114.878906 82.261719 114.832031 82.273438 C 114.789062 82.273438 114.75 82.28125 114.714844 82.289062 C 114.671875 82.300781 114.632812 82.3125 114.601562 82.324219 C 114.484375 82.492188 114.464844 83.261719 114.464844 83.710938 C 114.464844 84.265625 114.449219 85.199219 114.582031 85.382812 C 114.601562 85.382812 114.765625 85.484375 115.300781 85.484375 C 117.449219 85.433594 119.449219 85.417969 121.449219 85.417969 L 129.984375 85.453125 L 138.800781 85.417969 C 140.867188 85.417969 142.949219 85.433594 145.035156 85.484375 L 145.050781 85.484375 C 145.699219 85.484375 145.867188 85.382812 145.867188 85.382812 C 145.984375 85.199219 145.984375 84.382812 145.984375 83.878906 Z M 151.464844 53.277344 C 154.449219 52.960938 154.949219 54.699219 154.949219 54.699219 C 155.035156 55.265625 154.535156 55.152344 154.535156 55.152344 L 154.535156 57.007812 C 154.589844 56.996094 154.648438 56.996094 154.714844 57.007812 C 154.773438 57.019531 154.828125 57.039062 154.882812 57.074219 C 154.9375 57.097656 154.996094 57.125 155.050781 57.15625 C 155.09375 57.191406 155.140625 57.234375 155.183594 57.289062 C 155.566406 57.457031 155.898438 57.640625 156.101562 57.976562 C 157.300781 57.726562 158.515625 57.523438 159.734375 57.242188 C 162.699219 56.570312 164.035156 54.765625 164.035156 51.371094 C 164.035156 46.800781 164.035156 42.230469 164.035156 37.660156 C 164.035156 32.609375 164.039062 27.558594 164.050781 22.507812 C 164.066406 20.25 163.148438 18.945312 161.183594 18.394531 C 158.601562 17.660156 156.050781 16.941406 153.601562 16.871094 C 150.234375 16.773438 146.867188 16.753906 143.5 16.753906 C 141.285156 16.753906 133.699219 16.789062 132.117188 16.789062 L 132.117188 16.824219 L 130.234375 16.824219 C 128 16.824219 125.75 16.804688 123.5 16.789062 C 121.253906 16.765625 119.015625 16.753906 116.785156 16.753906 C 113.382812 16.753906 110 16.789062 106.617188 16.90625 C 104.367188 16.972656 102.015625 17.640625 99.734375 18.277344 L 98.066406 18.730469 C 97 19.011719 96.300781 19.597656 96.332031 21.539062 C 96.382812 28.664062 96.382812 35.769531 96.367188 42.875 L 96.367188 50.667969 C 96.367188 55.703125 97.082031 56.640625 101.867188 57.792969 C 111.984375 60.25 121 61.4375 129.417969 61.4375 C 130.351562 61.4375 131.285156 61.421875 132.214844 61.386719 C 133.160156 61.367188 134.101562 61.320312 135.035156 61.253906 C 135.964844 61.199219 136.898438 61.121094 137.832031 61.019531 C 138.765625 60.929688 139.699219 60.824219 140.632812 60.703125 C 142.535156 60.433594 144.464844 60.101562 146.382812 59.78125 C 146.316406 58.460938 147.601562 57.976562 147.601562 57.976562 C 147.601562 57.242188 148.566406 56.921875 148.566406 56.921875 L 148.566406 55.152344 L 148.132812 55.152344 C 148.183594 53.09375 151.464844 53.277344 151.464844 53.277344 Z M 164.082031 69.230469 C 164.082031 67.894531 163.667969 67.894531 163.035156 67.894531 L 162.699219 67.910156 C 157.964844 68.3125 153.75 70.433594 150.148438 74.214844 C 150.148438 74.214844 150.066406 74.632812 150.015625 75.082031 C 150.015625 75.152344 150.015625 75.21875 150.015625 75.285156 C 150.015625 75.339844 150.015625 75.402344 150.015625 75.46875 C 150.015625 75.535156 150.015625 75.601562 150.015625 75.667969 C 150.027344 75.734375 150.035156 75.800781 150.035156 75.871094 C 150.035156 75.871094 155.484375 76.304688 158.898438 75.871094 C 159.398438 75.769531 159.867188 75.6875 160.285156 75.601562 L 160.367188 75.585938 C 163.898438 74.832031 164.132812 73.945312 164.082031 69.230469 Z M 164.082031 69.230469 "/>
<path style=" stroke:none;fill-rule:nonzero;fill:rgb(6.666667%,77.254902%,5.490196%);fill-opacity:1;" d="M 146.234375 41.90625 L 143.964844 41.871094 L 146.234375 39.597656 L 157.464844 39.597656 L 157.464844 41.90625 C 157.300781 47.84375 151.867188 48.210938 151.867188 48.210938 C 145.800781 47.640625 146.234375 41.90625 146.234375 41.90625 Z M 146.234375 41.90625 "/>
<path style=" stroke:none;fill-rule:nonzero;fill:rgb(6.666667%,77.254902%,5.490196%);fill-opacity:1;" d="M 157.464844 37.542969 L 146.484375 37.542969 L 144.632812 34.632812 L 157.464844 35.886719 Z M 157.464844 37.542969 "/>
<path style=" stroke:none;fill-rule:nonzero;fill:rgb(6.666667%,77.254902%,5.490196%);fill-opacity:1;" d="M 153.433594 51.90625 L 149.949219 51.90625 C 149 51.804688 147.617188 53.175781 147.617188 53.175781 C 147.183594 54.097656 146.699219 53.460938 146.699219 53.460938 C 146.535156 52.992188 145.75 53.246094 145.75 53.246094 C 144.617188 53.964844 147.601562 55.21875 147.601562 55.21875 C 148.082031 57.324219 146.917969 57.523438 146.917969 57.523438 C 141.367188 57.039062 140.765625 53.445312 140.765625 53.445312 C 142.214844 49.082031 149.132812 49.734375 149.132812 49.734375 L 154.515625 49.699219 C 161.632812 50.015625 162.167969 52.910156 162.167969 52.910156 C 162.25 56.1875 158.300781 57.191406 158.300781 57.191406 C 155.398438 57.960938 155.367188 55.9375 155.367188 55.9375 C 155.285156 54.363281 157.300781 54.246094 157.300781 54.246094 C 158.132812 52.992188 157.183594 53.277344 157.183594 53.277344 C 156.300781 53.128906 156.183594 53.613281 156.183594 53.613281 C 155.535156 53.828125 155.417969 53.359375 155.417969 53.359375 C 155 52.039062 153.433594 51.90625 153.433594 51.90625 Z M 153.433594 51.90625 "/>
<path style=" stroke:none;fill-rule:evenodd;fill:rgb(6.666667%,77.254902%,5.490196%);fill-opacity:1;" d="M 55.632812 38.144531 C 55.601562 49.816406 46.167969 59.179688 34.464844 59.113281 C 22.882812 59.0625 13.550781 49.648438 13.582031 38.078125 C 13.601562 35.300781 14.148438 32.542969 15.214844 29.984375 C 16.285156 27.425781 17.851562 25.117188 19.816406 23.160156 C 21.785156 21.222656 24.117188 19.664062 26.683594 18.628906 C 29.25 17.59375 31.984375 17.074219 34.75 17.105469 C 46.351562 17.175781 55.667969 26.570312 55.632812 38.144531 Z M 41.433594 41.003906 C 43.398438 39.128906 45.617188 37.023438 47.898438 34.847656 L 38.832031 33.511719 L 34.550781 25.035156 L 30.332031 33.578125 L 20.964844 35.082031 L 27.734375 41.839844 C 27.265625 44.832031 26.800781 47.808594 26.265625 51.152344 L 34.699219 46.707031 L 43.148438 51.054688 C 42.566406 47.675781 42.066406 44.699219 41.433594 41.003906 Z M 41.433594 41.003906 "/>
<path style=" stroke:none;fill-rule:evenodd;fill:rgb(6.666667%,77.254902%,5.490196%);fill-opacity:1;" d="M 64.699219 46.203125 C 67.851562 53.378906 62.949219 60.382812 56.398438 60.335938 C 56.398438 60.335938 57.582031 64.046875 52.917969 68.277344 C 56.601562 74.515625 60.550781 81.171875 64.5 87.84375 L 53.199219 82.257812 L 53.066406 82.824219 L 50.5 93.027344 L 47.449219 87.910156 L 38.066406 72.222656 C 34.617188 73.078125 31.683594 72.808594 28.632812 70.570312 L 15.082031 92.941406 L 12.535156 82.84375 L 1.464844 88.429688 L 14.464844 66.035156 C 13.714844 63.945312 13.066406 62.089844 12.382812 60.167969 C 5.550781 59.5 1.398438 53.175781 4.550781 46.289062 C -1.515625 40.351562 -1.515625 35.484375 4.550781 30 C 1.464844 22.976562 5.550781 16.738281 12.515625 16.054688 C 14.351562 7.992188 19.082031 5.234375 26.417969 7.941406 C 32.765625 1.855469 37.066406 1.855469 42.714844 7.925781 C 50.167969 4.765625 56.035156 9.398438 56.617188 15.96875 C 63.851562 16.671875 67.75 23.34375 64.683594 29.882812 C 70.683594 35.988281 70.699219 40.851562 64.699219 46.203125 Z M 66.132812 39.148438 C 66.144531 39.058594 66.15625 38.972656 66.167969 38.894531 C 66.167969 38.808594 66.171875 38.71875 66.183594 38.628906 C 66.195312 38.550781 66.199219 38.46875 66.199219 38.378906 C 66.199219 38.300781 66.199219 38.214844 66.199219 38.128906 C 66.199219 37.882812 66.1875 37.636719 66.167969 37.390625 C 66.144531 37.144531 66.105469 36.90625 66.050781 36.671875 C 65.996094 36.4375 65.929688 36.203125 65.851562 35.96875 C 65.773438 35.734375 65.679688 35.511719 65.566406 35.300781 C 65.554688 35.277344 65.550781 35.261719 65.550781 35.25 C 65.515625 35.183594 65.476562 35.117188 65.433594 35.050781 C 65.398438 34.996094 65.367188 34.933594 65.332031 34.867188 C 65.289062 34.808594 65.25 34.75 65.214844 34.683594 C 65.171875 34.625 65.128906 34.570312 65.082031 34.515625 C 63.300781 31.855469 60.449219 30.636719 60.449219 30.636719 C 62.765625 27.894531 63.699219 25.25 61.949219 22.308594 C 61.859375 22.152344 61.765625 22 61.667969 21.855469 C 61.566406 21.722656 61.464844 21.582031 61.367188 21.4375 C 61.253906 21.304688 61.140625 21.175781 61.015625 21.054688 C 60.894531 20.929688 60.773438 20.808594 60.648438 20.6875 L 60.535156 20.570312 L 60.464844 20.519531 C 60.367188 20.441406 60.273438 20.367188 60.183594 20.300781 C 60.0625 20.210938 59.933594 20.128906 59.800781 20.050781 C 59.679688 19.972656 59.550781 19.898438 59.417969 19.832031 C 59.285156 19.765625 59.144531 19.703125 59 19.648438 C 58.867188 19.59375 58.726562 19.542969 58.582031 19.5 C 56.417969 18.730469 53.949219 19.414062 54.015625 18.878906 C 54.070312 18.367188 54.082031 17.847656 54.050781 17.324219 C 54.015625 16.800781 53.945312 16.28125 53.832031 15.769531 C 53.710938 15.257812 53.550781 14.753906 53.351562 14.265625 C 53.148438 13.785156 52.917969 13.316406 52.648438 12.859375 C 52.617188 12.824219 52.589844 12.785156 52.566406 12.742188 C 52.535156 12.699219 52.503906 12.660156 52.484375 12.625 C 52.449219 12.582031 52.421875 12.542969 52.398438 12.507812 C 52.367188 12.464844 52.339844 12.425781 52.316406 12.390625 C 52.234375 12.289062 52.183594 12.207031 52.148438 12.15625 C 52.132812 12.15625 52.132812 12.15625 52.117188 12.125 C 52.09375 12.101562 52.082031 12.089844 52.082031 12.089844 C 51.960938 11.945312 51.832031 11.8125 51.699219 11.6875 C 51.566406 11.554688 51.429688 11.433594 51.285156 11.320312 C 51.140625 11.199219 50.988281 11.085938 50.832031 10.988281 C 50.679688 10.875 50.523438 10.773438 50.367188 10.6875 C 50.183594 10.585938 50 10.5 49.816406 10.417969 C 45.949219 8.546875 41.667969 11.640625 41.667969 11.640625 C 40.566406 9.464844 39.25 8.195312 38.015625 7.457031 C 37.695312 7.257812 37.359375 7.089844 37.015625 6.957031 C 36.660156 6.8125 36.300781 6.699219 35.933594 6.621094 C 35.566406 6.542969 35.199219 6.5 34.832031 6.488281 C 34.457031 6.476562 34.078125 6.492188 33.699219 6.539062 C 33.535156 6.5625 33.367188 6.589844 33.199219 6.621094 L 33.148438 6.640625 C 33.050781 6.660156 32.949219 6.683594 32.851562 6.707031 L 32.816406 6.707031 C 32.738281 6.726562 32.667969 6.75 32.601562 6.773438 C 32.523438 6.792969 32.445312 6.824219 32.367188 6.855469 C 32.300781 6.878906 32.226562 6.90625 32.148438 6.941406 C 32.082031 6.960938 32.011719 6.988281 31.933594 7.023438 C 29.265625 8.210938 27.933594 10.917969 27.601562 11.707031 C 26.933594 11.203125 25.632812 10.652344 25.082031 10.417969 L 25.035156 10.402344 L 24.800781 10.316406 C 22.964844 9.617188 21.582031 9.816406 21.582031 9.816406 L 21.582031 9.832031 C 21.503906 9.832031 21.421875 9.839844 21.332031 9.847656 C 21.253906 9.859375 21.171875 9.871094 21.082031 9.882812 C 21.003906 9.894531 20.921875 9.90625 20.832031 9.917969 C 20.753906 9.9375 20.671875 9.960938 20.582031 9.984375 C 20.582031 9.984375 20.5 10 20.332031 10.050781 C 20.253906 10.074219 20.179688 10.09375 20.101562 10.117188 L 20.035156 10.152344 C 19.890625 10.195312 19.75 10.25 19.617188 10.316406 C 19.472656 10.375 19.332031 10.441406 19.199219 10.519531 C 19.066406 10.585938 18.933594 10.65625 18.800781 10.734375 C 18.667969 10.8125 18.535156 10.898438 18.398438 10.988281 C 18.285156 11.054688 18.183594 11.136719 18.066406 11.222656 C 17.910156 11.34375 17.761719 11.472656 17.617188 11.605469 C 17.460938 11.738281 17.316406 11.878906 17.183594 12.023438 C 17.050781 12.167969 16.921875 12.320312 16.800781 12.476562 C 16.6875 12.640625 16.578125 12.808594 16.464844 12.976562 C 15.566406 14.332031 14.898438 16.269531 15 19.03125 C 11.566406 18.546875 9.167969 19.597656 7.632812 21.773438 C 5.398438 24.917969 6.417969 27.777344 8.851562 30.734375 C 7.25 31.203125 4.75 33.8125 4.75 33.8125 C 4.484375 34.082031 4.246094 34.371094 4.035156 34.683594 C 3.820312 34.996094 3.640625 35.324219 3.484375 35.667969 C 3.339844 36.015625 3.226562 36.375 3.148438 36.753906 C 3.070312 37.125 3.035156 37.496094 3.035156 37.875 C 3.035156 37.875 3.035156 37.941406 3.035156 38.09375 C 3.035156 38.117188 3.035156 38.136719 3.035156 38.160156 C 3.050781 39.734375 3.550781 41.035156 4.449219 42.074219 C 5.300781 43.292969 6.632812 44.582031 8.765625 45.585938 C 6.5 48.359375 5.535156 51.003906 7.285156 53.945312 C 9.015625 56.839844 11.699219 57.523438 15.199219 56.707031 C 15.210938 57.074219 15.234375 57.445312 15.265625 57.824219 C 15.300781 58.195312 15.339844 58.5625 15.382812 58.929688 C 15.4375 59.308594 15.5 59.683594 15.566406 60.050781 C 15.632812 60.40625 15.710938 60.769531 15.800781 61.136719 C 15.832031 61.371094 15.882812 61.605469 15.949219 61.839844 C 16.003906 62.074219 16.082031 62.300781 16.183594 62.523438 C 16.273438 62.75 16.371094 62.960938 16.484375 63.160156 C 16.59375 63.371094 16.722656 63.578125 16.867188 63.777344 C 16.910156 63.847656 16.957031 63.914062 17 63.980469 C 17.054688 64.046875 17.105469 64.109375 17.148438 64.164062 C 17.207031 64.230469 17.261719 64.292969 17.316406 64.347656 C 17.382812 64.402344 17.445312 64.460938 17.5 64.515625 C 17.5 64.515625 20.632812 69.128906 28.25 64.332031 C 29.332031 67.726562 31.234375 69.714844 34.617188 69.734375 C 38.035156 69.765625 39.832031 67.640625 41.035156 64.382812 C 41.035156 64.382812 44.117188 67.558594 48.601562 66.253906 C 48.753906 66.210938 48.90625 66.164062 49.050781 66.121094 C 49.195312 66.074219 49.339844 66.027344 49.484375 65.96875 C 49.628906 65.902344 49.773438 65.835938 49.917969 65.769531 C 50.050781 65.703125 50.183594 65.628906 50.316406 65.550781 L 50.351562 65.535156 C 50.515625 65.445312 50.683594 65.339844 50.851562 65.21875 C 53.351562 63.496094 54.535156 60.601562 53.648438 57.625 C 56.632812 58.261719 60.035156 56.789062 61.75 54.246094 C 61.839844 54.113281 61.921875 53.972656 62 53.828125 C 62.078125 53.695312 62.15625 53.554688 62.234375 53.410156 C 62.300781 53.265625 62.359375 53.121094 62.417969 52.976562 C 62.484375 52.832031 62.539062 52.679688 62.582031 52.523438 C 62.605469 52.46875 62.621094 52.417969 62.632812 52.375 C 62.644531 52.320312 62.660156 52.261719 62.683594 52.207031 C 62.695312 52.152344 62.707031 52.101562 62.714844 52.058594 C 62.726562 52 62.738281 51.945312 62.75 51.890625 C 63.417969 48.578125 61.234375 45.6875 61.667969 45.433594 C 62.101562 45.167969 62.511719 44.871094 62.898438 44.546875 C 63.289062 44.226562 63.648438 43.867188 63.984375 43.476562 C 64.316406 43.097656 64.617188 42.691406 64.882812 42.257812 C 65.148438 41.832031 65.382812 41.386719 65.582031 40.917969 C 65.640625 40.785156 65.695312 40.652344 65.75 40.519531 C 65.804688 40.382812 65.851562 40.25 65.882812 40.117188 C 65.929688 39.984375 65.964844 39.84375 66 39.699219 C 66.035156 39.566406 66.0625 39.425781 66.082031 39.28125 C 66.105469 39.179688 66.117188 39.125 66.117188 39.113281 Z M 66.132812 39.148438 "/>
</g>
</svg>
