<?xml version="1.0" encoding="UTF-8"?>
<svg xmlns="http://www.w3.org/2000/svg" xmlns:xlink="http://www.w3.org/1999/xlink" width="141px" height="100px" viewBox="0 0 140 100" version="1.1">
<g id="surface1">
<path style=" stroke:none;fill-rule:evenodd;fill:rgb(6.666667%,77.254902%,5.490196%);fill-opacity:1;" d="M 139.960938 30.835938 C 139.84375 32.664062 139.894531 34.515625 139.960938 36.578125 C 140 38.25 139.597656 39.554688 138.742188 40.457031 C 138.238281 41.003906 137.316406 41.644531 135.800781 41.671875 C 133.804688 41.671875 132.765625 40.742188 132.234375 39.960938 C 131.640625 39.097656 131.339844 37.949219 131.339844 36.539062 L 131.339844 33.746094 C 131.339844 31.777344 131.355469 29.816406 131.328125 27.859375 C 131.316406 26.4375 130.847656 25.300781 129.796875 24.242188 C 129.527344 25.261719 129.304688 26.160156 129.304688 26.984375 C 129.269531 41.675781 129.253906 56.367188 129.253906 71.058594 L 129.253906 82.726562 C 129.253906 90.195312 128.785156 91.121094 122.449219 92.21875 C 122.394531 92.558594 122.34375 92.910156 122.28125 93.265625 C 122.007812 95.089844 121.722656 96.984375 120.722656 98.578125 C 120.023438 99.710938 118.519531 99.871094 117.144531 99.871094 C 116.628906 99.871094 116.082031 99.84375 115.566406 99.816406 C 115.164062 99.804688 114.773438 99.777344 114.425781 99.777344 C 110.949219 99.753906 110.625 98.589844 109.953125 92.363281 L 71.128906 92.363281 C 71.085938 92.648438 71.042969 92.9375 71 93.222656 C 70.738281 95.078125 70.480469 96.996094 69.441406 98.5625 C 68.640625 99.792969 66.835938 99.933594 65.554688 99.933594 C 65.320312 99.933594 65.085938 99.929688 64.855469 99.921875 C 64.621094 99.914062 64.390625 99.898438 64.167969 99.882812 C 63.933594 99.863281 63.699219 99.84375 63.464844 99.816406 C 63.234375 99.792969 63 99.765625 62.765625 99.738281 C 58.386719 99.191406 58.554688 96.019531 58.65625 94.125 C 58.695312 93.421875 58.734375 92.726562 58.617188 92.167969 L 58.164062 92.167969 C 57.816406 92.167969 57.425781 92.167969 57.050781 92.152344 C 53.070312 91.972656 51.035156 89.871094 51.007812 85.875 C 50.984375 80.785156 50.996094 75.691406 50.996094 70.601562 C 50.996094 70.601562 50.996094 35.941406 50.996094 24.988281 C 50.996094 24.847656 50.992188 24.703125 50.984375 24.554688 C 50.257812 25.339844 49.90625 26.332031 49.855469 27.570312 C 49.804688 28.8125 49.816406 30.066406 49.828125 31.304688 C 49.855469 33.210938 49.882812 35.167969 49.675781 37.128906 C 49.089844 41.644531 46.289062 41.539062 46.289062 41.539062 L 45.628906 41.605469 C 45.578125 41.605469 45.511719 41.578125 45.460938 41.578125 C 42.84375 41.65625 41.804688 40.039062 41.441406 38.65625 C 41.429688 38.589844 41.417969 38.523438 41.402344 38.445312 C 41.378906 38.324219 41.351562 38.203125 41.324219 38.082031 C 41.308594 37.960938 41.292969 37.832031 41.273438 37.703125 C 41.265625 37.582031 41.257812 37.457031 41.25 37.335938 C 41.238281 37.207031 41.234375 37.078125 41.234375 36.957031 C 41.195312 34.035156 41.171875 31.109375 41.25 28.199219 C 41.363281 23.667969 43.386719 19.855469 47.289062 16.855469 C 49.675781 15.027344 51.140625 13.25 51.140625 10.039062 C 51.152344 4.203125 55.792969 0.105469 62.441406 0.078125 C 66.789062 0.0703125 71.136719 0.0664062 75.484375 0.0664062 L 117.300781 0.078125 C 124.523438 0.0898438 128.023438 3.160156 129.394531 10.679688 C 129.695312 12.375 131.144531 14.542969 132.910156 15.953125 C 138.015625 20.027344 140.324219 24.882812 139.960938 30.835938 Z M 74.769531 9.648438 C 74.769531 9.648438 74.9375 9.753906 75.496094 9.753906 C 77.660156 9.6875 79.683594 9.660156 81.71875 9.660156 L 90.144531 9.699219 L 98.882812 9.671875 C 100.96875 9.671875 103.054688 9.6875 105.144531 9.738281 L 105.167969 9.738281 C 105.804688 9.738281 105.960938 9.632812 105.960938 9.632812 C 106.0625 9.476562 106.074219 8.71875 106.074219 8.265625 C 106.101562 6.972656 106 6.695312 105.945312 6.632812 C 105.945312 6.632812 105.765625 6.488281 105.089844 6.488281 C 100.0625 6.539062 95.082031 6.566406 90.09375 6.566406 C 85.253906 6.566406 80.414062 6.542969 75.574219 6.5 L 75.535156 5.027344 L 75.535156 6.5 C 74.925781 6.5 74.757812 6.605469 74.757812 6.605469 C 74.667969 6.761719 74.652344 7.441406 74.652344 7.898438 C 74.640625 8.5 74.628906 9.453125 74.769531 9.648438 Z M 70.390625 75.941406 C 70.363281 75.847656 70.351562 75.496094 70.324219 75.40625 C 70.207031 74.816406 70.011719 73.824219 69.804688 73.617188 C 66.070312 71.109375 62.882812 69.386719 59.8125 68.199219 C 58.96875 67.871094 58.292969 67.714844 57.800781 67.714844 C 57.347656 67.714844 56.597656 67.714844 56.597656 70.71875 C 56.597656 74.386719 56.972656 74.882812 60.289062 75.535156 C 63.066406 76.082031 65.980469 76.109375 68.792969 76.136719 C 69.234375 76.136719 69.792969 76.1875 70.390625 75.941406 Z M 106.089844 83.917969 C 106.089844 82.769531 106 82.453125 105.933594 82.375 C 105.933594 82.375 105.765625 82.246094 105.089844 82.246094 C 100.113281 82.285156 95.160156 82.3125 90.210938 82.3125 C 86.996094 82.3125 83.78125 82.285156 80.550781 82.273438 L 75.25 82.273438 C 75.207031 82.273438 75.164062 82.277344 75.121094 82.285156 C 75.085938 82.285156 75.046875 82.289062 75.003906 82.296875 C 74.96875 82.304688 74.929688 82.316406 74.886719 82.324219 C 74.851562 82.332031 74.8125 82.339844 74.769531 82.351562 C 74.652344 82.519531 74.640625 83.289062 74.640625 83.746094 C 74.628906 84.296875 74.613281 85.234375 74.757812 85.429688 C 74.769531 85.429688 74.9375 85.523438 75.46875 85.523438 C 77.609375 85.46875 79.605469 85.445312 81.601562 85.445312 L 90.105469 85.484375 L 98.894531 85.457031 C 100.96875 85.457031 103.042969 85.46875 105.117188 85.523438 L 105.144531 85.523438 C 105.789062 85.523438 105.945312 85.417969 105.945312 85.417969 C 106.074219 85.246094 106.074219 84.414062 106.089844 83.917969 Z M 111.535156 53.277344 C 114.5 52.964844 114.996094 54.699219 114.996094 54.699219 C 115.085938 55.273438 114.578125 55.15625 114.578125 55.15625 L 114.578125 57.011719 C 114.640625 57.011719 114.699219 57.015625 114.761719 57.023438 C 114.820312 57.03125 114.882812 57.050781 114.941406 57.074219 C 114.996094 57.101562 115.046875 57.132812 115.097656 57.167969 C 115.148438 57.203125 115.191406 57.246094 115.226562 57.296875 C 115.617188 57.453125 115.953125 57.664062 116.148438 57.988281 C 117.367188 57.742188 118.570312 57.53125 119.777344 57.257812 C 122.734375 56.59375 124.070312 54.777344 124.082031 51.382812 C 124.082031 46.804688 124.082031 42.222656 124.082031 37.636719 C 124.074219 32.582031 124.082031 27.527344 124.105469 22.480469 C 124.105469 20.222656 123.199219 18.917969 121.230469 18.355469 C 118.675781 17.625 116.121094 16.90625 113.683594 16.839844 C 110.328125 16.75 106.957031 16.722656 103.601562 16.722656 C 101.394531 16.722656 93.824219 16.761719 92.246094 16.761719 L 92.246094 16.789062 L 90.378906 16.789062 C 88.136719 16.789062 85.894531 16.761719 83.648438 16.75 C 81.421875 16.730469 79.1875 16.722656 76.949219 16.722656 C 73.578125 16.722656 70.195312 16.761719 66.824219 16.867188 C 64.582031 16.945312 62.222656 17.609375 59.941406 18.25 L 58.28125 18.707031 C 57.230469 18.980469 56.53125 19.570312 56.558594 21.515625 C 56.609375 28.628906 56.609375 35.757812 56.597656 42.871094 L 56.582031 50.679688 C 56.582031 55.703125 57.308594 56.644531 62.066406 57.792969 C 72.164062 60.246094 81.148438 61.449219 89.546875 61.449219 C 90.480469 61.449219 91.414062 61.4375 92.347656 61.410156 C 93.28125 61.375 94.214844 61.328125 95.148438 61.265625 C 96.082031 61.207031 97.015625 61.128906 97.949219 61.03125 C 98.882812 60.9375 99.808594 60.828125 100.734375 60.703125 C 102.640625 60.445312 104.558594 60.105469 106.476562 59.792969 C 106.414062 58.472656 107.695312 57.976562 107.695312 57.976562 C 107.695312 57.257812 108.65625 56.933594 108.65625 56.933594 L 108.65625 55.15625 L 108.214844 55.15625 C 108.28125 53.105469 111.535156 53.277344 111.535156 53.277344 Z M 111.535156 53.277344 Z M 124.121094 69.257812 C 124.105469 67.910156 123.691406 67.910156 123.058594 67.910156 L 122.734375 67.925781 C 118.015625 68.328125 113.816406 70.445312 110.222656 74.230469 C 110.222656 74.230469 110.144531 74.660156 110.09375 75.105469 C 110.09375 75.164062 110.09375 75.230469 110.09375 75.300781 C 110.09375 75.359375 110.09375 75.425781 110.09375 75.496094 C 110.09375 75.558594 110.097656 75.621094 110.105469 75.691406 C 110.105469 75.753906 110.113281 75.816406 110.121094 75.886719 C 110.121094 75.886719 115.539062 76.332031 118.949219 75.886719 C 119.453125 75.808594 119.933594 75.71875 120.335938 75.625 C 120.359375 75.625 120.386719 75.613281 120.414062 75.613281 C 123.9375 74.855469 124.171875 73.96875 124.121094 69.257812 Z M 124.121094 69.257812 "/>
<path style=" stroke:none;fill-rule:nonzero;fill:rgb(6.666667%,77.254902%,5.490196%);fill-opacity:1;" d="M 106.320312 41.894531 L 104.054688 41.878906 L 106.320312 39.59375 L 117.523438 39.59375 L 117.523438 41.894531 C 117.367188 47.832031 111.949219 48.199219 111.949219 48.199219 C 105.882812 47.636719 106.320312 41.894531 106.320312 41.894531 Z M 106.320312 41.894531 "/>
<path style=" stroke:none;fill-rule:nonzero;fill:rgb(6.666667%,77.254902%,5.490196%);fill-opacity:1;" d="M 117.523438 37.53125 L 106.570312 37.53125 L 104.726562 34.621094 L 117.523438 35.875 Z M 117.523438 37.53125 "/>
<path style=" stroke:none;fill-rule:nonzero;fill:rgb(6.666667%,77.254902%,5.490196%);fill-opacity:1;" d="M 113.515625 51.917969 L 110.042969 51.917969 C 109.097656 51.816406 107.710938 53.183594 107.710938 53.183594 C 107.28125 54.097656 106.800781 53.484375 106.800781 53.484375 C 106.632812 52.988281 105.84375 53.25 105.84375 53.25 C 104.726562 53.980469 107.695312 55.234375 107.695312 55.234375 C 108.175781 57.335938 107.007812 57.53125 107.007812 57.53125 C 101.472656 57.050781 100.863281 53.460938 100.863281 53.460938 C 102.316406 49.085938 109.214844 49.738281 109.214844 49.738281 L 114.59375 49.699219 C 121.695312 50.039062 122.214844 52.925781 122.214844 52.925781 C 122.292969 56.199219 118.363281 57.207031 118.363281 57.207031 C 115.472656 57.976562 115.433594 55.953125 115.433594 55.953125 C 115.355469 54.386719 117.367188 54.257812 117.367188 54.257812 C 118.210938 53.015625 117.238281 53.289062 117.238281 53.289062 C 116.355469 53.132812 116.238281 53.617188 116.238281 53.617188 C 115.589844 53.824219 115.472656 53.367188 115.472656 53.367188 C 115.070312 52.035156 113.515625 51.917969 113.515625 51.917969 Z M 113.515625 51.917969 "/>
<path style=" stroke:none;fill-rule:nonzero;fill:rgb(6.666667%,77.254902%,5.490196%);fill-opacity:1;" d="M 72.902344 35.523438 C 72.917969 31.957031 75.625 29.175781 79.074219 29.191406 C 82.535156 29.203125 85.257812 32.011719 85.230469 35.523438 C 85.207031 38.902344 82.40625 41.644531 79.007812 41.617188 C 75.679688 41.605469 72.878906 38.8125 72.902344 35.523438 Z M 72.902344 35.523438 "/>
<path style=" stroke:none;fill-rule:nonzero;fill:rgb(6.666667%,77.254902%,5.490196%);fill-opacity:1;" d="M 88.511719 46.972656 C 88.570312 47.109375 88.628906 47.25 88.679688 47.390625 C 88.730469 47.527344 88.785156 47.671875 88.835938 47.820312 C 88.878906 47.960938 88.921875 48.097656 88.964844 48.238281 L 89.144531 48.941406 C 87.835938 50.300781 86.28125 51.382812 84.558594 52.128906 C 82.832031 52.871094 80.964844 53.265625 79.101562 53.265625 C 77.21875 53.277344 75.355469 52.898438 73.628906 52.167969 C 71.894531 51.421875 70.324219 50.351562 69.027344 48.996094 L 69.078125 48.628906 C 69.089844 48.59375 69.097656 48.558594 69.105469 48.523438 C 69.261719 47.769531 69.519531 47.050781 69.882812 46.371094 C 70.246094 45.691406 70.699219 45.066406 71.246094 44.53125 C 71.777344 43.980469 72.398438 43.523438 73.070312 43.160156 C 73.746094 42.792969 74.460938 42.53125 75.210938 42.375 C 75.253906 42.367188 75.296875 42.363281 75.339844 42.363281 C 75.382812 42.363281 75.425781 42.363281 75.46875 42.363281 C 75.511719 42.363281 75.558594 42.367188 75.601562 42.375 C 75.644531 42.382812 75.683594 42.398438 75.714844 42.414062 C 77.9375 43.304688 80.160156 43.308594 82.378906 42.429688 C 82.421875 42.410156 82.460938 42.398438 82.496094 42.390625 C 82.539062 42.378906 82.582031 42.371094 82.625 42.363281 C 82.667969 42.363281 82.710938 42.363281 82.753906 42.363281 C 82.796875 42.363281 82.84375 42.367188 82.886719 42.375 C 85.359375 42.910156 87.1875 44.308594 88.328125 46.566406 C 88.390625 46.695312 88.449219 46.832031 88.511719 46.972656 Z M 88.511719 46.972656 "/>
<path style=" stroke:none;fill-rule:nonzero;fill:rgb(6.666667%,77.254902%,5.490196%);fill-opacity:1;" d="M 88.976562 36.695312 C 88.976562 34.753906 90.457031 33.25 92.335938 33.25 C 93.230469 33.238281 94.097656 33.601562 94.746094 34.230469 C 95.382812 34.871094 95.746094 35.742188 95.730469 36.65625 C 95.730469 37.558594 95.355469 38.433594 94.71875 39.058594 C 94.070312 39.6875 93.191406 40.039062 92.296875 40.011719 C 90.480469 40 88.964844 38.484375 88.976562 36.695312 Z M 88.976562 36.695312 "/>
<path style=" stroke:none;fill-rule:nonzero;fill:rgb(6.666667%,77.254902%,5.490196%);fill-opacity:1;" d="M 97.457031 42.925781 C 97.480469 43.003906 97.511719 43.078125 97.546875 43.144531 C 97.570312 43.222656 97.597656 43.304688 97.625 43.382812 C 97.648438 43.460938 97.675781 43.539062 97.703125 43.617188 L 97.792969 43.996094 C 97.09375 44.738281 96.238281 45.328125 95.304688 45.730469 C 94.355469 46.136719 93.359375 46.34375 92.335938 46.34375 C 91.3125 46.34375 90.300781 46.148438 89.367188 45.742188 C 88.421875 45.351562 87.566406 44.765625 86.851562 44.019531 L 86.890625 43.824219 C 86.890625 43.8125 86.902344 43.785156 86.902344 43.773438 C 86.980469 43.355469 87.125 42.964844 87.320312 42.597656 C 87.527344 42.230469 87.773438 41.894531 88.070312 41.59375 C 88.355469 41.304688 88.691406 41.058594 89.054688 40.847656 C 89.417969 40.652344 89.820312 40.507812 90.222656 40.429688 C 90.25 40.421875 90.269531 40.417969 90.285156 40.417969 C 90.3125 40.417969 90.339844 40.417969 90.363281 40.417969 C 90.390625 40.417969 90.414062 40.421875 90.429688 40.429688 C 90.457031 40.429688 90.476562 40.433594 90.496094 40.445312 C 90.789062 40.566406 91.085938 40.65625 91.390625 40.71875 C 91.691406 40.777344 92 40.808594 92.308594 40.808594 C 92.621094 40.808594 92.925781 40.777344 93.230469 40.71875 C 93.53125 40.65625 93.832031 40.566406 94.125 40.445312 C 94.140625 40.433594 94.164062 40.429688 94.1875 40.429688 C 94.207031 40.421875 94.226562 40.417969 94.253906 40.417969 C 94.28125 40.417969 94.300781 40.417969 94.320312 40.417969 C 94.34375 40.417969 94.371094 40.417969 94.394531 40.417969 C 94.714844 40.480469 95.023438 40.578125 95.316406 40.71875 C 95.609375 40.847656 95.886719 41.007812 96.144531 41.199219 C 96.398438 41.402344 96.625 41.628906 96.832031 41.878906 C 97.039062 42.132812 97.214844 42.40625 97.351562 42.703125 C 97.386719 42.773438 97.421875 42.847656 97.457031 42.925781 Z M 97.457031 42.925781 "/>
<path style=" stroke:none;fill-rule:nonzero;fill:rgb(6.666667%,77.254902%,5.490196%);fill-opacity:1;" d="M 61.199219 36.695312 C 61.210938 34.753906 62.6875 33.25 64.570312 33.25 C 65.464844 33.238281 66.332031 33.601562 66.964844 34.230469 C 67.613281 34.871094 67.964844 35.742188 67.964844 36.65625 C 67.953125 37.558594 67.589844 38.433594 66.941406 39.058594 C 66.292969 39.6875 65.425781 40.039062 64.53125 40.011719 C 62.714844 40 61.199219 38.484375 61.199219 36.695312 Z M 61.199219 36.695312 "/>
<path style=" stroke:none;fill-rule:nonzero;fill:rgb(6.666667%,77.254902%,5.490196%);fill-opacity:1;" d="M 70.027344 43.996094 C 69.324219 44.738281 68.46875 45.328125 67.535156 45.730469 C 66.605469 46.136719 65.59375 46.34375 64.570312 46.34375 C 63.542969 46.34375 62.535156 46.148438 61.601562 45.742188 C 60.652344 45.351562 59.796875 44.765625 59.097656 44.019531 L 59.125 43.824219 C 59.125 43.8125 59.136719 43.785156 59.136719 43.773438 C 59.214844 43.355469 59.355469 42.964844 59.566406 42.597656 C 59.757812 42.230469 60.003906 41.894531 60.304688 41.59375 C 60.589844 41.304688 60.925781 41.058594 61.289062 40.847656 C 61.652344 40.652344 62.054688 40.507812 62.457031 40.429688 C 62.480469 40.421875 62.503906 40.417969 62.519531 40.417969 C 62.546875 40.417969 62.570312 40.417969 62.597656 40.417969 C 62.625 40.417969 62.644531 40.421875 62.664062 40.429688 C 62.6875 40.429688 62.710938 40.433594 62.726562 40.445312 C 63.023438 40.566406 63.320312 40.65625 63.621094 40.71875 C 63.925781 40.777344 64.230469 40.808594 64.542969 40.808594 C 64.855469 40.808594 65.160156 40.777344 65.464844 40.71875 C 65.773438 40.65625 66.070312 40.566406 66.355469 40.445312 C 66.375 40.433594 66.394531 40.429688 66.421875 40.429688 C 66.449219 40.421875 66.46875 40.417969 66.488281 40.417969 C 66.511719 40.417969 66.539062 40.417969 66.566406 40.417969 C 66.582031 40.417969 66.605469 40.417969 66.628906 40.417969 C 66.949219 40.480469 67.257812 40.578125 67.550781 40.71875 C 67.84375 40.847656 68.121094 41.007812 68.378906 41.199219 C 68.640625 41.402344 68.867188 41.628906 69.066406 41.878906 C 69.273438 42.132812 69.445312 42.40625 69.585938 42.703125 C 69.621094 42.773438 69.65625 42.847656 69.6875 42.925781 C 69.722656 42.992188 69.753906 43.066406 69.78125 43.144531 C 69.804688 43.222656 69.832031 43.304688 69.855469 43.382812 C 69.890625 43.460938 69.917969 43.539062 69.933594 43.617188 Z M 70.027344 43.996094 "/>
<path style=" stroke:none;fill-rule:nonzero;fill:rgb(6.666667%,77.254902%,5.490196%);fill-opacity:1;" d="M 9.773438 84.582031 C 9.191406 81.121094 8.101562 77.648438 8.167969 74.191406 C 8.230469 70.847656 9.476562 67.53125 10.242188 64.085938 L 8.359375 64.085938 C 7.117188 66.566406 5.910156 68.941406 4.746094 71.332031 C 4.058594 72.769531 3.019531 73.328125 1.503906 72.726562 C -0.0507812 72.113281 -0.257812 70.992188 0.246094 69.464844 C 1.230469 66.539062 2.125 63.578125 3.007812 60.625 C 3.488281 59.035156 4.433594 58.171875 6.132812 57.988281 C 9.464844 57.609375 12.769531 57.050781 16.101562 56.632812 C 18.652344 56.320312 20.570312 57.296875 21.816406 59.632812 C 23.214844 62.3125 24.695312 64.933594 26.171875 67.648438 C 28.257812 68.433594 30.347656 69.214844 32.445312 69.988281 C 33.976562 70.546875 34.820312 71.578125 34.285156 73.222656 C 33.792969 74.792969 32.460938 74.765625 31.164062 74.515625 C 30.125 74.320312 29.113281 74.035156 28.089844 73.824219 C 24.679688 73.171875 21 72.988281 19.808594 68.5 L 19.015625 68.707031 C 18.265625 72.191406 16.761719 75.730469 16.941406 79.164062 C 17.253906 85 15.660156 89.582031 11.289062 93.328125 C 10.226562 94.230469 9.386719 95.390625 8.4375 96.421875 C 7.273438 97.6875 5.949219 97.988281 4.535156 96.878906 C 3.125 95.769531 3.019531 94.4375 4.019531 92.988281 C 5.871094 90.261719 7.738281 87.546875 9.773438 84.582031 Z M 9.773438 84.582031 "/>
<path style=" stroke:none;fill-rule:nonzero;fill:rgb(6.666667%,77.254902%,5.490196%);fill-opacity:1;" d="M 29.179688 49.570312 C 29.21875 53.121094 26.199219 56.253906 22.710938 56.28125 C 19.09375 56.304688 16.074219 53.40625 15.996094 49.832031 C 15.917969 46.148438 18.953125 43.003906 22.554688 43.015625 C 26.105469 43.027344 29.128906 46.003906 29.179688 49.570312 Z M 29.179688 49.570312 "/>
<path style=" stroke:none;fill-rule:nonzero;fill:rgb(6.666667%,77.254902%,5.490196%);fill-opacity:1;" d="M 20.144531 78.878906 C 21.597656 80.757812 23.113281 82.597656 24.472656 84.542969 C 24.929688 85.195312 25.136719 86.097656 25.214844 86.917969 C 25.460938 89.792969 25.628906 92.675781 25.785156 95.546875 C 25.859375 97.035156 25.460938 98.210938 23.722656 98.40625 C 22.035156 98.601562 20.882812 97.886719 20.726562 96.214844 C 20.234375 90.496094 19.859375 84.765625 19.429688 79.046875 Z M 20.144531 78.878906 "/>
</g>
</svg>
