<?xml version="1.0" encoding="UTF-8"?>
<svg xmlns="http://www.w3.org/2000/svg" xmlns:xlink="http://www.w3.org/1999/xlink" width="109px" height="100px" viewBox="0 0 108 100" version="1.1">
<g id="surface1">
<path style=" stroke:none;fill-rule:evenodd;fill:rgb(6.666667%,77.254902%,5.490196%);fill-opacity:1;" d="M 107.980469 74.316406 C 107.949219 74.929688 107.960938 75.542969 107.980469 76.21875 C 108 76.773438 107.867188 77.203125 107.578125 77.503906 C 107.519531 77.570312 107.453125 77.628906 107.378906 77.675781 C 107.308594 77.730469 107.226562 77.773438 107.140625 77.808594 C 107.054688 77.839844 106.964844 77.867188 106.878906 77.886719 C 106.792969 77.902344 106.703125 77.90625 106.609375 77.90625 C 105.949219 77.90625 105.609375 77.59375 105.429688 77.34375 C 105.230469 77.050781 105.128906 76.679688 105.128906 76.21875 L 105.128906 75.28125 C 105.136719 74.636719 105.136719 73.992188 105.128906 73.339844 C 105.128906 73.226562 105.121094 73.117188 105.101562 73.007812 C 105.078125 72.894531 105.046875 72.785156 105 72.6875 C 104.960938 72.578125 104.90625 72.476562 104.839844 72.382812 C 104.78125 72.296875 104.707031 72.214844 104.621094 72.132812 C 104.601562 72.207031 104.578125 72.28125 104.558594 72.355469 C 104.539062 72.429688 104.523438 72.503906 104.511719 72.585938 C 104.496094 72.660156 104.488281 72.734375 104.480469 72.808594 C 104.472656 72.886719 104.464844 72.964844 104.460938 73.039062 C 104.445312 77.902344 104.441406 82.761719 104.441406 87.625 L 104.441406 91.488281 C 104.441406 93.953125 104.289062 94.265625 102.191406 94.628906 C 102.171875 94.742188 102.152344 94.859375 102.140625 94.980469 C 102.039062 95.582031 101.949219 96.207031 101.621094 96.730469 C 101.390625 97.113281 100.890625 97.164062 100.429688 97.164062 C 100.261719 97.164062 100.078125 97.152344 99.910156 97.144531 C 99.78125 97.132812 99.648438 97.132812 99.53125 97.132812 C 98.378906 97.121094 98.269531 96.742188 98.050781 94.679688 L 85.191406 94.679688 C 85.175781 94.773438 85.164062 94.867188 85.148438 94.960938 C 85.070312 95.574219 84.980469 96.207031 84.640625 96.730469 C 84.371094 97.132812 83.769531 97.183594 83.351562 97.183594 C 83.269531 97.183594 83.191406 97.179688 83.121094 97.171875 C 83.039062 97.171875 82.964844 97.167969 82.890625 97.164062 C 82.808594 97.15625 82.730469 97.148438 82.648438 97.144531 C 82.578125 97.136719 82.5 97.125 82.421875 97.113281 C 80.96875 96.929688 81.03125 95.886719 81.058594 95.261719 C 81.066406 95.207031 81.074219 95.152344 81.078125 95.101562 C 81.078125 95.046875 81.078125 94.988281 81.078125 94.929688 C 81.074219 94.875 81.070312 94.824219 81.070312 94.769531 C 81.0625 94.714844 81.058594 94.660156 81.050781 94.609375 L 80.898438 94.609375 C 80.78125 94.609375 80.660156 94.609375 80.53125 94.609375 C 79.210938 94.546875 78.539062 93.851562 78.53125 92.523438 C 78.523438 90.839844 78.523438 89.160156 78.53125 87.476562 C 78.53125 87.476562 78.53125 76.007812 78.53125 72.382812 C 78.53125 72.34375 78.53125 72.292969 78.53125 72.242188 C 78.289062 72.503906 78.171875 72.835938 78.148438 73.238281 C 78.140625 73.652344 78.148438 74.0625 78.148438 74.476562 C 78.148438 74.636719 78.148438 74.796875 78.148438 74.960938 C 78.148438 75.121094 78.148438 75.28125 78.148438 75.441406 C 78.144531 75.605469 78.136719 75.761719 78.128906 75.914062 C 78.117188 76.078125 78.101562 76.238281 78.089844 76.398438 C 77.898438 77.898438 76.96875 77.867188 76.96875 77.867188 L 76.75 77.886719 C 76.738281 77.886719 76.71875 77.878906 76.699219 77.878906 C 75.828125 77.898438 75.488281 77.363281 75.371094 76.910156 C 75.359375 76.882812 75.351562 76.859375 75.351562 76.839844 C 75.34375 76.800781 75.335938 76.761719 75.328125 76.71875 C 75.324219 76.679688 75.316406 76.636719 75.308594 76.589844 C 75.308594 76.550781 75.308594 76.507812 75.300781 76.46875 C 75.300781 76.429688 75.300781 76.386719 75.300781 76.347656 C 75.28125 75.382812 75.28125 74.417969 75.300781 73.449219 C 75.339844 71.953125 76.011719 70.683594 77.300781 69.699219 C 78.089844 69.09375 78.578125 68.5 78.578125 67.445312 C 78.578125 65.511719 80.121094 64.15625 82.320312 64.144531 C 83.761719 64.144531 99.050781 64.144531 100.488281 64.144531 C 102.871094 64.144531 104.03125 65.160156 104.488281 67.65625 C 104.589844 68.210938 105.070312 68.933594 105.648438 69.394531 C 107.339844 70.746094 108.109375 72.355469 107.980469 74.316406 Z M 86.398438 67.3125 C 86.421875 67.320312 86.441406 67.328125 86.460938 67.335938 C 86.480469 67.335938 86.5 67.335938 86.519531 67.34375 C 86.539062 67.34375 86.558594 67.34375 86.578125 67.34375 C 86.601562 67.34375 86.621094 67.34375 86.640625 67.34375 C 87.359375 67.324219 88.03125 67.3125 88.699219 67.3125 L 91.488281 67.335938 L 94.390625 67.324219 C 95.078125 67.316406 95.765625 67.324219 96.460938 67.34375 C 96.488281 67.34375 96.511719 67.34375 96.53125 67.34375 C 96.550781 67.34375 96.574219 67.34375 96.601562 67.34375 C 96.621094 67.335938 96.640625 67.335938 96.660156 67.335938 C 96.679688 67.328125 96.703125 67.320312 96.730469 67.3125 C 96.769531 67.253906 96.769531 67.003906 96.769531 66.851562 C 96.769531 66.429688 96.738281 66.339844 96.71875 66.316406 C 96.71875 66.316406 96.660156 66.269531 96.441406 66.269531 C 94.769531 66.289062 93.121094 66.296875 91.46875 66.296875 C 89.871094 66.296875 88.269531 66.289062 86.671875 66.269531 L 86.648438 65.785156 L 86.648438 66.269531 C 86.628906 66.269531 86.605469 66.269531 86.578125 66.269531 C 86.558594 66.269531 86.539062 66.269531 86.519531 66.277344 C 86.5 66.277344 86.476562 66.28125 86.449219 66.289062 C 86.429688 66.292969 86.410156 66.300781 86.390625 66.308594 C 86.382812 66.339844 86.375 66.375 86.371094 66.410156 C 86.371094 66.449219 86.367188 66.484375 86.359375 66.519531 C 86.359375 66.550781 86.359375 66.589844 86.359375 66.628906 C 86.359375 66.664062 86.359375 66.695312 86.359375 66.730469 C 86.359375 66.929688 86.351562 67.242188 86.398438 67.3125 Z M 84.550781 89.316406 C 84.597656 89.308594 84.644531 89.304688 84.691406 89.304688 C 84.730469 89.300781 84.773438 89.289062 84.820312 89.277344 C 84.859375 89.269531 84.902344 89.257812 84.949219 89.246094 C 84.941406 89.207031 84.941406 89.09375 84.929688 89.0625 C 84.890625 88.863281 84.828125 88.542969 84.761719 88.472656 C 83.519531 87.644531 82.46875 87.074219 81.449219 86.679688 C 81.398438 86.652344 81.339844 86.632812 81.28125 86.621094 C 81.226562 86.597656 81.171875 86.582031 81.121094 86.570312 C 81.066406 86.554688 81.011719 86.546875 80.949219 86.539062 C 80.890625 86.527344 80.832031 86.519531 80.78125 86.519531 C 80.628906 86.519531 80.378906 86.519531 80.378906 87.515625 C 80.378906 88.730469 80.5 88.894531 81.601562 89.105469 C 82.519531 89.285156 83.488281 89.296875 84.421875 89.304688 C 84.464844 89.3125 84.511719 89.316406 84.550781 89.316406 Z M 96.71875 92.375 C 96.761719 92.324219 96.769531 92.042969 96.769531 91.871094 C 96.769531 91.5 96.738281 91.398438 96.71875 91.367188 C 96.71875 91.367188 96.660156 91.328125 96.441406 91.328125 C 94.789062 91.339844 93.148438 91.347656 91.511719 91.347656 C 90.441406 91.347656 89.378906 91.339844 88.308594 91.339844 L 86.550781 91.339844 C 86.535156 91.339844 86.523438 91.339844 86.511719 91.339844 C 86.496094 91.339844 86.484375 91.339844 86.46875 91.347656 C 86.457031 91.347656 86.441406 91.351562 86.429688 91.359375 C 86.421875 91.359375 86.414062 91.363281 86.398438 91.367188 C 86.351562 91.417969 86.351562 91.671875 86.351562 91.820312 C 86.351562 92.003906 86.351562 92.3125 86.390625 92.382812 C 86.410156 92.390625 86.429688 92.394531 86.449219 92.394531 C 86.46875 92.402344 86.488281 92.40625 86.511719 92.414062 C 86.53125 92.414062 86.550781 92.414062 86.570312 92.414062 C 86.589844 92.414062 86.609375 92.414062 86.628906 92.414062 C 87.339844 92.394531 88 92.382812 88.660156 92.382812 L 91.480469 92.40625 L 94.390625 92.382812 C 95.070312 92.382812 95.761719 92.394531 96.449219 92.414062 C 96.476562 92.414062 96.5 92.414062 96.519531 92.414062 C 96.539062 92.414062 96.5625 92.414062 96.589844 92.414062 C 96.609375 92.40625 96.632812 92.402344 96.660156 92.394531 C 96.679688 92.394531 96.699219 92.386719 96.71875 92.375 Z M 97.46875 82.363281 C 97.488281 81.691406 98.570312 81.75 98.578125 81.75 C 99.570312 81.648438 99.730469 82.222656 99.730469 82.222656 C 99.761719 82.414062 99.589844 82.375 99.589844 82.375 L 99.589844 82.988281 C 99.609375 82.980469 99.628906 82.980469 99.648438 82.988281 C 99.671875 82.988281 99.691406 82.996094 99.710938 83.007812 C 99.730469 83.015625 99.746094 83.023438 99.761719 83.039062 C 99.78125 83.046875 99.796875 83.058594 99.808594 83.078125 C 99.835938 83.085938 99.863281 83.097656 99.890625 83.117188 C 99.917969 83.132812 99.941406 83.148438 99.96875 83.167969 C 99.996094 83.1875 100.019531 83.210938 100.039062 83.230469 C 100.066406 83.257812 100.089844 83.28125 100.109375 83.308594 C 100.511719 83.230469 100.910156 83.160156 101.308594 83.070312 C 102.289062 82.847656 102.730469 82.242188 102.730469 81.125 C 102.730469 79.609375 102.730469 78.09375 102.730469 76.578125 C 102.722656 74.902344 102.722656 73.230469 102.730469 71.558594 C 102.730469 70.816406 102.429688 70.382812 101.78125 70.203125 C 100.929688 69.960938 100.089844 69.71875 99.28125 69.699219 C 98.171875 69.667969 97.050781 69.65625 95.941406 69.65625 C 95.210938 69.65625 92.710938 69.667969 92.179688 69.667969 L 92.179688 69.679688 L 91.558594 69.679688 C 90.820312 69.679688 90.078125 69.679688 89.339844 69.667969 C 88.601562 69.65625 87.859375 69.65625 87.121094 69.65625 C 86 69.65625 84.878906 69.667969 83.761719 69.707031 C 83.019531 69.726562 82.238281 69.949219 81.488281 70.160156 L 80.929688 70.3125 C 80.589844 70.402344 80.359375 70.59375 80.359375 71.238281 C 80.378906 73.601562 80.378906 75.957031 80.378906 78.308594 L 80.378906 80.886719 C 80.378906 82.554688 80.609375 82.855469 82.191406 83.238281 C 85.539062 84.054688 88.511719 84.445312 91.289062 84.445312 C 91.597656 84.445312 91.90625 84.441406 92.21875 84.4375 C 92.527344 84.421875 92.835938 84.40625 93.148438 84.386719 C 93.457031 84.367188 93.761719 84.34375 94.070312 84.316406 C 94.382812 84.28125 94.691406 84.246094 95 84.207031 C 95.621094 84.125 96.261719 84.003906 96.898438 83.902344 C 96.871094 83.460938 97.300781 83.300781 97.300781 83.300781 C 97.300781 83.058594 97.609375 82.957031 97.609375 82.957031 L 97.609375 82.363281 Z M 101.511719 89.136719 C 102.679688 88.882812 102.761719 88.589844 102.738281 87.03125 C 102.738281 86.578125 102.601562 86.578125 102.390625 86.578125 L 102.28125 86.589844 C 100.71875 86.71875 99.320312 87.425781 98.140625 88.671875 C 98.140625 88.671875 98.109375 88.8125 98.089844 88.964844 C 98.089844 88.984375 98.089844 89.003906 98.089844 89.023438 C 98.089844 89.050781 98.089844 89.074219 98.089844 89.09375 C 98.089844 89.113281 98.089844 89.136719 98.089844 89.15625 C 98.097656 89.175781 98.101562 89.199219 98.101562 89.226562 C 98.101562 89.226562 99.898438 89.367188 101.03125 89.226562 C 101.191406 89.195312 101.351562 89.164062 101.480469 89.136719 Z M 101.511719 89.136719 "/>
<path style=" stroke:none;fill-rule:nonzero;fill:rgb(6.666667%,77.254902%,5.490196%);fill-opacity:1;" d="M 96.851562 77.976562 L 96.101562 77.96875 L 96.851562 77.222656 L 100.558594 77.222656 L 100.558594 77.976562 C 100.5 79.949219 98.710938 80.070312 98.710938 80.070312 C 96.699219 79.878906 96.851562 77.976562 96.851562 77.976562 Z M 96.851562 77.976562 "/>
<path style=" stroke:none;fill-rule:nonzero;fill:rgb(6.666667%,77.254902%,5.490196%);fill-opacity:1;" d="M 100.558594 76.539062 L 96.929688 76.539062 L 96.320312 75.574219 L 100.558594 75.984375 Z M 100.558594 76.539062 "/>
<path style=" stroke:none;fill-rule:nonzero;fill:rgb(6.666667%,77.254902%,5.490196%);fill-opacity:1;" d="M 99.230469 81.296875 L 98.070312 81.296875 C 97.761719 81.257812 97.300781 81.710938 97.300781 81.710938 C 97.160156 82.011719 97 81.8125 97 81.8125 C 96.949219 81.648438 96.691406 81.742188 96.691406 81.742188 C 96.320312 81.980469 97.300781 82.394531 97.300781 82.394531 C 97.460938 83.089844 97.078125 83.148438 97.078125 83.148438 C 95.238281 82.996094 95.039062 81.800781 95.039062 81.800781 C 95.519531 80.363281 97.808594 80.574219 97.808594 80.574219 L 99.589844 80.5625 C 101.941406 80.675781 102.109375 81.628906 102.109375 81.628906 C 102.140625 82.714844 100.839844 83.046875 100.839844 83.046875 C 99.878906 83.300781 99.871094 82.636719 99.871094 82.636719 C 99.839844 82.113281 100.5 82.074219 100.5 82.074219 C 100.78125 81.660156 100.460938 81.75 100.460938 81.75 C 100.171875 81.699219 100.128906 81.859375 100.128906 81.859375 C 99.921875 81.929688 99.878906 81.78125 99.878906 81.78125 C 99.75 81.339844 99.230469 81.296875 99.230469 81.296875 Z M 99.230469 81.296875 "/>
<path style=" stroke:none;fill-rule:nonzero;fill:rgb(6.666667%,77.254902%,5.490196%);fill-opacity:1;" d="M 85.78125 75.875 C 85.78125 74.6875 86.679688 73.773438 87.820312 73.78125 C 88.371094 73.78125 88.878906 74.003906 89.261719 74.386719 C 89.648438 74.777344 89.859375 75.300781 89.859375 75.84375 C 89.851562 76.386719 89.628906 76.910156 89.25 77.292969 C 88.859375 77.675781 88.339844 77.898438 87.800781 77.886719 C 86.699219 77.886719 85.769531 76.960938 85.78125 75.875 Z M 85.78125 75.875 "/>
<path style=" stroke:none;fill-rule:nonzero;fill:rgb(6.666667%,77.254902%,5.490196%);fill-opacity:1;" d="M 90.949219 79.65625 C 90.96875 79.703125 90.988281 79.75 91 79.796875 C 91.019531 79.847656 91.039062 79.894531 91.058594 79.941406 C 91.074219 79.988281 91.085938 80.035156 91.101562 80.082031 L 91.160156 80.3125 C 90.730469 80.765625 90.210938 81.125 89.640625 81.367188 C 89.070312 81.621094 88.460938 81.742188 87.828125 81.742188 C 87.210938 81.75 86.601562 81.621094 86.019531 81.378906 C 85.449219 81.136719 84.929688 80.773438 84.5 80.332031 L 84.519531 80.210938 C 84.519531 80.203125 84.53125 80.191406 84.53125 80.179688 C 84.578125 79.929688 84.660156 79.6875 84.78125 79.46875 C 84.898438 79.234375 85.050781 79.035156 85.230469 78.851562 C 85.410156 78.671875 85.621094 78.519531 85.839844 78.402344 C 86.058594 78.28125 86.300781 78.199219 86.550781 78.148438 C 86.5625 78.140625 86.578125 78.140625 86.589844 78.140625 C 86.601562 78.140625 86.617188 78.140625 86.628906 78.140625 C 86.644531 78.140625 86.65625 78.140625 86.671875 78.140625 C 86.691406 78.144531 86.707031 78.152344 86.71875 78.160156 C 86.894531 78.226562 87.074219 78.28125 87.261719 78.320312 C 87.441406 78.359375 87.625 78.378906 87.820312 78.378906 C 88.007812 78.378906 88.191406 78.359375 88.378906 78.320312 C 88.566406 78.28125 88.746094 78.226562 88.921875 78.160156 C 88.933594 78.152344 88.945312 78.144531 88.960938 78.140625 C 88.972656 78.140625 88.988281 78.140625 89 78.140625 C 89.019531 78.132812 89.035156 78.132812 89.050781 78.140625 C 89.0625 78.140625 89.078125 78.140625 89.089844 78.140625 C 89.285156 78.179688 89.46875 78.238281 89.648438 78.320312 C 89.828125 78.402344 89.996094 78.5 90.148438 78.621094 C 90.308594 78.742188 90.449219 78.875 90.570312 79.023438 C 90.695312 79.179688 90.804688 79.347656 90.890625 79.527344 C 90.910156 79.566406 90.929688 79.609375 90.949219 79.65625 Z M 90.949219 79.65625 "/>
<path style=" stroke:none;fill-rule:nonzero;fill:rgb(6.666667%,77.254902%,5.490196%);fill-opacity:1;" d="M 91.78125 77.273438 C 91.648438 77.214844 91.53125 77.132812 91.429688 77.03125 C 91.328125 76.929688 91.238281 76.8125 91.191406 76.679688 C 91.128906 76.550781 91.101562 76.398438 91.101562 76.257812 C 91.089844 75.804688 91.359375 75.390625 91.78125 75.210938 C 92.191406 75.03125 92.671875 75.128906 92.988281 75.441406 C 93.308594 75.765625 93.410156 76.246094 93.238281 76.671875 C 93.058594 77.09375 92.648438 77.363281 92.199219 77.355469 C 92.058594 77.355469 91.910156 77.324219 91.78125 77.273438 Z M 91.78125 77.273438 "/>
<path style=" stroke:none;fill-rule:nonzero;fill:rgb(6.666667%,77.254902%,5.490196%);fill-opacity:1;" d="M 93.910156 78.320312 C 93.921875 78.347656 93.933594 78.375 93.941406 78.402344 C 93.953125 78.421875 93.964844 78.445312 93.96875 78.472656 C 93.976562 78.496094 93.988281 78.523438 94 78.550781 L 94.03125 78.671875 C 93.789062 78.921875 93.511719 79.113281 93.199219 79.246094 C 92.890625 79.386719 92.558594 79.457031 92.21875 79.457031 C 91.878906 79.457031 91.550781 79.386719 91.230469 79.253906 C 90.921875 79.125 90.640625 78.921875 90.410156 78.683594 L 90.421875 78.621094 C 90.421875 78.613281 90.421875 78.609375 90.421875 78.601562 C 90.445312 78.46875 90.492188 78.335938 90.558594 78.210938 C 90.621094 78.089844 90.699219 77.976562 90.800781 77.878906 C 90.898438 77.785156 91.011719 77.703125 91.128906 77.636719 C 91.25 77.570312 91.378906 77.523438 91.519531 77.496094 C 91.527344 77.496094 91.535156 77.496094 91.539062 77.496094 C 91.546875 77.496094 91.554688 77.496094 91.558594 77.496094 C 91.566406 77.496094 91.578125 77.496094 91.589844 77.496094 C 91.597656 77.496094 91.601562 77.5 91.609375 77.503906 C 91.703125 77.546875 91.800781 77.574219 91.898438 77.59375 C 92 77.617188 92.101562 77.625 92.210938 77.625 C 92.308594 77.625 92.410156 77.617188 92.511719 77.59375 C 92.617188 77.574219 92.714844 77.546875 92.808594 77.503906 C 92.816406 77.5 92.824219 77.496094 92.828125 77.496094 C 92.835938 77.496094 92.84375 77.496094 92.851562 77.496094 C 92.855469 77.488281 92.867188 77.488281 92.878906 77.496094 C 92.886719 77.496094 92.894531 77.496094 92.898438 77.496094 C 93.007812 77.515625 93.105469 77.546875 93.199219 77.585938 C 93.300781 77.632812 93.394531 77.691406 93.480469 77.757812 C 93.558594 77.816406 93.636719 77.890625 93.710938 77.976562 C 93.777344 78.058594 93.832031 78.148438 93.878906 78.25 C 93.894531 78.269531 93.902344 78.292969 93.910156 78.320312 Z M 93.910156 78.320312 "/>
<path style=" stroke:none;fill-rule:nonzero;fill:rgb(6.666667%,77.254902%,5.490196%);fill-opacity:1;" d="M 82.589844 77.273438 C 82.460938 77.214844 82.339844 77.132812 82.230469 77.03125 C 82.128906 76.929688 82.050781 76.8125 82 76.679688 C 81.941406 76.550781 81.910156 76.410156 81.910156 76.257812 C 81.898438 75.804688 82.160156 75.390625 82.578125 75.210938 C 82.988281 75.03125 83.480469 75.121094 83.800781 75.441406 C 84.121094 75.765625 84.21875 76.246094 84.039062 76.671875 C 83.871094 77.09375 83.460938 77.363281 83.011719 77.355469 C 82.859375 77.355469 82.71875 77.324219 82.589844 77.273438 Z M 82.589844 77.273438 "/>
<path style=" stroke:none;fill-rule:nonzero;fill:rgb(6.666667%,77.254902%,5.490196%);fill-opacity:1;" d="M 84.828125 78.671875 C 84.601562 78.914062 84.320312 79.113281 84.011719 79.246094 C 83.699219 79.375 83.359375 79.445312 83.019531 79.445312 C 82.691406 79.445312 82.351562 79.386719 82.039062 79.253906 C 81.730469 79.125 81.449219 78.921875 81.210938 78.683594 L 81.21875 78.621094 C 81.21875 78.613281 81.21875 78.609375 81.21875 78.601562 C 81.246094 78.46875 81.292969 78.339844 81.359375 78.21875 C 81.425781 78.09375 81.511719 77.980469 81.609375 77.886719 C 81.703125 77.785156 81.8125 77.703125 81.941406 77.636719 C 82.058594 77.570312 82.1875 77.523438 82.320312 77.496094 C 82.328125 77.496094 82.335938 77.496094 82.351562 77.496094 C 82.355469 77.496094 82.363281 77.496094 82.371094 77.496094 C 82.375 77.496094 82.382812 77.496094 82.390625 77.496094 C 82.398438 77.496094 82.40625 77.5 82.421875 77.503906 C 82.511719 77.546875 82.609375 77.574219 82.710938 77.59375 C 82.808594 77.617188 82.914062 77.625 83.019531 77.625 C 83.121094 77.625 83.21875 77.617188 83.320312 77.59375 C 83.421875 77.574219 83.519531 77.546875 83.621094 77.503906 C 83.625 77.5 83.632812 77.496094 83.640625 77.496094 C 83.648438 77.496094 83.652344 77.496094 83.660156 77.496094 C 83.667969 77.496094 83.671875 77.496094 83.679688 77.496094 C 83.6875 77.496094 83.695312 77.496094 83.710938 77.496094 C 83.808594 77.515625 83.910156 77.546875 84.011719 77.585938 C 84.109375 77.632812 84.199219 77.691406 84.28125 77.757812 C 84.367188 77.816406 84.441406 77.890625 84.511719 77.976562 C 84.578125 78.058594 84.636719 78.148438 84.691406 78.25 C 84.695312 78.269531 84.707031 78.292969 84.71875 78.320312 C 84.726562 78.347656 84.738281 78.371094 84.75 78.390625 C 84.757812 78.417969 84.765625 78.445312 84.78125 78.472656 C 84.785156 78.496094 84.792969 78.523438 84.800781 78.550781 Z M 84.828125 78.671875 "/>
<path style=" stroke:none;fill-rule:nonzero;fill:rgb(6.666667%,77.254902%,5.490196%);fill-opacity:1;" d="M 61.390625 58.78125 C 56.800781 62.605469 50.128906 62.714844 45.390625 59.035156 C 40.410156 55.160156 39.441406 48.742188 41.230469 44.4375 L 65.210938 44.4375 C 66.730469 47.828125 66.640625 54.394531 61.390625 58.78125 Z M 61.390625 58.78125 "/>
<path style=" stroke:none;fill-rule:nonzero;fill:rgb(6.666667%,77.254902%,5.490196%);fill-opacity:1;" d="M 66.609375 40.925781 C 66.101562 42.171875 65.210938 42.777344 63.851562 42.765625 C 60.171875 42.746094 56.480469 42.765625 52.789062 42.765625 C 49.128906 42.765625 45.46875 42.746094 41.808594 42.765625 C 40.449219 42.777344 39.558594 42.171875 39.050781 40.925781 C 38.660156 39.960938 38.230469 39.015625 37.828125 38.046875 C 37.378906 36.960938 37.699219 36.136719 38.769531 35.703125 C 41.230469 34.699219 43.671875 33.660156 46.171875 32.765625 C 46.4375 32.671875 46.707031 32.59375 46.980469 32.523438 C 47.253906 32.453125 47.53125 32.390625 47.808594 32.34375 C 48.082031 32.289062 48.363281 32.25 48.648438 32.222656 C 48.929688 32.191406 49.210938 32.167969 49.488281 32.164062 C 51.710938 32.074219 53.941406 32.050781 56.160156 32.164062 C 56.464844 32.175781 56.773438 32.203125 57.078125 32.242188 C 57.386719 32.277344 57.691406 32.324219 57.988281 32.382812 C 58.289062 32.445312 58.589844 32.515625 58.890625 32.59375 C 59.183594 32.675781 59.476562 32.765625 59.769531 32.867188 C 62.101562 33.691406 64.371094 34.679688 66.671875 35.605469 C 68 36.148438 68.308594 36.902344 67.730469 38.257812 C 67.359375 39.144531 66.96875 40.03125 66.609375 40.925781 Z M 66.609375 40.925781 "/>
<path style=" stroke:none;fill-rule:nonzero;fill:rgb(6.666667%,77.254902%,5.490196%);fill-opacity:1;" d="M 54.898438 69.507812 C 56.148438 70.371094 56.269531 71.640625 56.148438 73.019531 C 55.761719 77.574219 55.378906 82.132812 54.308594 86.597656 C 54.128906 87.335938 53.78125 88.027344 53.511719 88.742188 L 53.070312 88.753906 C 52.828125 88.28125 52.480469 87.835938 52.371094 87.335938 C 51.921875 85.25 51.449219 83.167969 51.160156 81.054688 C 50.789062 78.371094 50.578125 75.652344 50.320312 72.949219 C 50.148438 71.195312 50.328125 70.722656 51.519531 69.46875 C 49.539062 67.496094 49.308594 65.53125 50.859375 63.992188 C 51.179688 63.683594 51.550781 63.441406 51.960938 63.269531 C 52.371094 63.097656 52.808594 63.019531 53.261719 63.019531 C 53.699219 63.027344 54.140625 63.117188 54.550781 63.289062 C 54.949219 63.460938 55.320312 63.722656 55.640625 64.035156 C 57.140625 65.5625 56.890625 67.554688 54.898438 69.507812 Z M 54.898438 69.507812 "/>
<path style=" stroke:none;fill-rule:nonzero;fill:rgb(6.666667%,77.254902%,5.490196%);fill-opacity:1;" d="M 87.800781 29.195312 C 89.429688 28.953125 91.101562 28.671875 92.78125 28.480469 C 93.550781 28.390625 94.03125 28.117188 94.359375 27.363281 C 95.058594 25.785156 95.871094 24.246094 96.710938 22.523438 C 97.578125 24.277344 98.398438 25.863281 99.140625 27.484375 C 99.429688 28.128906 99.839844 28.378906 100.511719 28.460938 C 101.96875 28.621094 103.421875 28.851562 104.878906 29.0625 C 105.148438 29.105469 105.410156 29.195312 105.609375 29.246094 C 104.390625 30.53125 103.199219 31.832031 101.960938 33.070312 C 101.46875 33.550781 101.328125 34.015625 101.460938 34.679688 C 101.789062 36.410156 102.058594 38.140625 102.390625 40.082031 C 100.601562 39.136719 99.011719 38.257812 97.371094 37.464844 C 97.269531 37.425781 97.167969 37.394531 97.058594 37.375 C 96.953125 37.347656 96.84375 37.335938 96.730469 37.335938 C 96.625 37.335938 96.511719 37.34375 96.398438 37.363281 C 96.292969 37.382812 96.191406 37.417969 96.089844 37.464844 C 94.449219 38.25 92.851562 39.125 91.050781 40.082031 C 91.359375 38.25 91.578125 36.609375 91.929688 35 C 92.128906 34.074219 91.929688 33.472656 91.230469 32.816406 C 90.039062 31.710938 88.980469 30.453125 87.800781 29.195312 Z M 87.800781 29.195312 "/>
<path style=" stroke:none;fill-rule:nonzero;fill:rgb(6.666667%,77.254902%,5.490196%);fill-opacity:1;" d="M 14.628906 40.070312 C 13.539062 39.507812 12.539062 39.144531 11.730469 38.519531 C 9.820312 37.0625 8.039062 37.132812 6.140625 38.542969 C 5.328125 39.144531 4.359375 39.515625 3.28125 40.082031 C 3.609375 38.140625 3.878906 36.398438 4.21875 34.667969 C 4.351562 33.992188 4.199219 33.542969 3.710938 33.058594 C 2.460938 31.832031 1.269531 30.53125 0 29.207031 C 1.648438 28.953125 3.308594 28.683594 4.980469 28.480469 C 5.78125 28.390625 6.28125 28.109375 6.621094 27.3125 C 7.300781 25.753906 8.101562 24.253906 8.960938 22.523438 C 9.78125 24.195312 10.570312 25.675781 11.238281 27.191406 C 11.601562 28.027344 12.089844 28.410156 13 28.492188 C 14.648438 28.652344 16.28125 28.953125 17.878906 29.195312 C 16.628906 30.523438 15.441406 31.851562 14.171875 33.097656 C 13.699219 33.5625 13.570312 33.992188 13.691406 34.617188 C 14.019531 36.347656 14.289062 38.089844 14.628906 40.070312 Z M 14.628906 40.070312 "/>
<path style=" stroke:none;fill-rule:nonzero;fill:rgb(6.666667%,77.254902%,5.490196%);fill-opacity:1;" d="M 47.660156 10.644531 C 46.398438 9.375 45.199219 8.058594 43.921875 6.699219 C 45.609375 6.449219 47.328125 6.136719 49.050781 5.957031 C 49.800781 5.875 50.148438 5.542969 50.449219 4.898438 C 51.171875 3.328125 51.960938 1.789062 52.828125 0.0390625 C 53.519531 1.4375 54.238281 2.617188 54.699219 3.875 C 55.25 5.390625 56.148438 6.097656 57.78125 6.125 C 59.109375 6.15625 60.429688 6.488281 61.730469 6.691406 C 60.46875 8.039062 59.28125 9.367188 58.019531 10.632812 C 57.589844 11.078125 57.441406 11.449219 57.558594 12.074219 C 57.910156 13.824219 58.171875 15.605469 58.5 17.574219 C 56.789062 16.671875 55.261719 15.914062 53.761719 15.058594 C 53.101562 14.6875 52.578125 14.679688 51.910156 15.058594 C 50.421875 15.914062 48.878906 16.671875 47.171875 17.574219 C 47.5 15.605469 47.761719 13.832031 48.109375 12.074219 C 48.230469 11.457031 48.089844 11.078125 47.660156 10.644531 Z M 47.660156 10.644531 "/>
<path style=" stroke:none;fill-rule:nonzero;fill:rgb(6.666667%,77.254902%,5.490196%);fill-opacity:1;" d="M 21.890625 15.039062 C 20.648438 13.824219 19.480469 12.503906 18.25 11.1875 C 19.859375 10.957031 21.519531 10.683594 23.191406 10.484375 C 23.988281 10.382812 24.5 10.101562 24.839844 9.304688 C 25.511719 7.757812 26.308594 6.257812 27.148438 4.539062 C 27.960938 6.148438 28.75 7.554688 29.359375 9.042969 C 29.769531 10.050781 30.390625 10.421875 31.421875 10.523438 C 32.988281 10.675781 34.550781 10.976562 36.109375 11.195312 C 34.820312 12.554688 33.609375 13.875 32.339844 15.121094 C 31.898438 15.5625 31.769531 15.957031 31.890625 16.558594 C 32.21875 18.320312 32.488281 20.089844 32.820312 22.074219 C 31.179688 21.207031 29.691406 20.492188 28.269531 19.65625 C 27.488281 19.207031 26.871094 19.175781 26.078125 19.636719 C 24.648438 20.484375 23.160156 21.207031 21.5 22.09375 C 21.820312 20.171875 22.058594 18.441406 22.410156 16.730469 C 22.550781 16.027344 22.421875 15.5625 21.890625 15.039062 Z M 21.890625 15.039062 "/>
<path style=" stroke:none;fill-rule:nonzero;fill:rgb(6.666667%,77.254902%,5.490196%);fill-opacity:1;" d="M 69.46875 11.238281 C 70.589844 11.066406 71.640625 10.746094 72.679688 10.765625 C 74.949219 10.792969 76.339844 9.828125 77.011719 7.625 C 77.328125 6.609375 77.949219 5.683594 78.511719 4.539062 C 79.398438 6.328125 80.21875 7.917969 80.96875 9.546875 C 81.230469 10.109375 81.578125 10.363281 82.179688 10.433594 C 83.941406 10.664062 85.699219 10.945312 87.441406 11.195312 C 86.21875 12.496094 85.070312 13.773438 83.851562 14.980469 C 83.320312 15.503906 83.101562 15.964844 83.261719 16.742188 C 83.621094 18.429688 83.859375 20.152344 84.179688 22.082031 C 82.449219 21.175781 80.898438 20.414062 79.410156 19.546875 C 78.738281 19.164062 78.21875 19.207031 77.558594 19.578125 C 76.089844 20.414062 74.578125 21.175781 72.859375 22.082031 C 73.078125 20.753906 73.109375 19.585938 73.460938 18.53125 C 74.128906 16.5 73.679688 15 71.929688 13.742188 C 71.039062 13.097656 70.359375 12.164062 69.46875 11.238281 Z M 69.46875 11.238281 "/>
<path style=" stroke:none;fill-rule:nonzero;fill:rgb(6.666667%,77.254902%,5.490196%);fill-opacity:1;" d="M 77.011719 91.457031 C 76.589844 91.792969 76.167969 92.121094 75.738281 92.433594 C 75.308594 92.75 74.871094 93.058594 74.429688 93.359375 C 73.984375 93.65625 73.535156 93.945312 73.078125 94.226562 C 72.625 94.507812 72.171875 94.773438 71.710938 95.03125 C 71.597656 95.109375 71.484375 95.183594 71.371094 95.25 C 71.261719 95.320312 71.148438 95.382812 71.03125 95.441406 C 70.917969 95.507812 70.800781 95.570312 70.679688 95.625 C 70.558594 95.675781 70.4375 95.726562 70.308594 95.773438 C 67.609375 97.152344 64.738281 98.199219 61.789062 98.902344 C 58.839844 99.609375 55.820312 99.960938 52.78125 99.960938 C 49.75 99.960938 46.71875 99.597656 43.769531 98.894531 C 40.820312 98.179688 37.960938 97.121094 35.261719 95.746094 C 35.148438 95.703125 35.035156 95.65625 34.929688 95.605469 C 34.824219 95.558594 34.714844 95.503906 34.609375 95.441406 C 34.511719 95.390625 34.410156 95.332031 34.308594 95.273438 C 34.203125 95.210938 34.101562 95.148438 34.011719 95.082031 C 33.078125 94.558594 32.164062 93.996094 31.269531 93.402344 C 30.382812 92.804688 29.523438 92.167969 28.691406 91.5 C 27.851562 90.828125 27.042969 90.125 26.269531 89.386719 C 25.488281 88.65625 24.742188 87.890625 24.03125 87.09375 L 23.851562 87.003906 C 23.851562 86.960938 23.859375 86.929688 23.859375 86.902344 C 22.28125 85.121094 20.878906 83.199219 19.648438 81.167969 C 18.421875 79.136719 17.378906 76.992188 16.550781 74.769531 C 15.710938 72.535156 15.078125 70.242188 14.648438 67.898438 C 14.230469 65.5625 14.019531 63.179688 14.03125 60.804688 C 14.070312 39.234375 31.480469 21.851562 53 21.882812 C 74.449219 21.921875 91.699219 39.496094 91.640625 61.238281 C 91.632812 61.695312 91.625 62.148438 91.609375 62.605469 L 88.160156 62.605469 C 88.1875 62.089844 88.199219 61.574219 88.199219 61.054688 C 88.199219 60.921875 88.199219 60.792969 88.199219 60.664062 C 88.191406 60.214844 88.179688 59.761719 88.160156 59.304688 C 88.160156 59.191406 88.15625 59.074219 88.148438 58.953125 C 88.117188 58.390625 88.074219 57.832031 88.019531 57.273438 C 88 57.082031 87.96875 56.882812 87.949219 56.679688 C 87.941406 56.605469 87.933594 56.527344 87.921875 56.449219 C 87.886719 56.167969 87.851562 55.886719 87.808594 55.605469 C 87.796875 55.515625 87.78125 55.425781 87.761719 55.332031 C 87.6875 54.855469 87.601562 54.375 87.511719 53.894531 C 87.496094 53.820312 87.480469 53.742188 87.460938 53.660156 C 87.398438 53.359375 87.332031 53.058594 87.261719 52.757812 C 87.214844 52.554688 87.167969 52.355469 87.121094 52.152344 C 87.105469 52.105469 87.09375 52.054688 87.078125 52.003906 C 86.601562 50.160156 85.980469 48.351562 85.21875 46.609375 C 84.449219 44.859375 83.550781 43.179688 82.519531 41.578125 C 81.488281 39.980469 80.328125 38.472656 79.058594 37.050781 C 77.789062 35.632812 76.398438 34.324219 74.921875 33.140625 C 74.710938 32.96875 74.5 32.796875 74.28125 32.636719 C 67.878906 27.777344 59.820312 25.089844 51.230469 25.382812 C 50.988281 25.390625 50.738281 25.402344 50.5 25.414062 C 49.089844 25.503906 47.691406 25.683594 46.300781 25.945312 C 44.910156 26.195312 43.539062 26.550781 42.191406 26.972656 C 40.839844 27.394531 39.519531 27.90625 38.230469 28.492188 C 36.941406 29.074219 35.691406 29.738281 34.480469 30.484375 L 34.460938 30.492188 C 34.066406 30.734375 33.675781 30.984375 33.289062 31.246094 C 33.164062 31.335938 33.039062 31.417969 32.921875 31.5 C 32.738281 31.621094 32.558594 31.75 32.378906 31.882812 C 30.691406 33.097656 29.109375 34.457031 27.660156 35.945312 C 26.210938 37.433594 24.878906 39.042969 23.710938 40.765625 C 22.53125 42.484375 21.511719 44.304688 20.640625 46.207031 C 19.78125 48.109375 19.078125 50.070312 18.558594 52.09375 C 18.480469 52.40625 18.40625 52.71875 18.339844 53.027344 C 18.265625 53.34375 18.195312 53.660156 18.128906 53.972656 C 18.070312 54.28125 18.011719 54.597656 17.960938 54.917969 C 17.90625 55.234375 17.855469 55.550781 17.808594 55.863281 C 17.800781 55.925781 17.789062 55.964844 17.789062 56.027344 C 17.761719 56.199219 17.738281 56.378906 17.71875 56.558594 C 17.699219 56.699219 17.679688 56.851562 17.671875 57.003906 C 17.648438 57.128906 17.636719 57.261719 17.628906 57.394531 C 17.597656 57.691406 17.570312 57.984375 17.550781 58.28125 C 17.539062 58.351562 17.53125 58.410156 17.53125 58.472656 C 17.503906 58.851562 17.484375 59.238281 17.46875 59.628906 L 17.46875 59.726562 C 17.429688 61.0625 17.464844 62.398438 17.570312 63.730469 C 17.675781 65.066406 17.855469 66.390625 18.109375 67.707031 C 18.363281 69.019531 18.691406 70.320312 19.089844 71.597656 C 19.484375 72.878906 19.945312 74.132812 20.480469 75.351562 C 20.566406 75.554688 20.65625 75.753906 20.75 75.957031 C 20.828125 76.136719 20.910156 76.316406 21 76.488281 C 21.21875 76.957031 21.453125 77.421875 21.699219 77.878906 L 21.71875 77.917969 C 22.234375 78.863281 22.785156 79.777344 23.378906 80.664062 C 23.453125 80.777344 23.53125 80.890625 23.609375 81.007812 L 23.621094 81.027344 C 23.691406 80.664062 23.765625 80.308594 23.839844 79.960938 L 23.839844 79.949219 C 28.039062 60.382812 40.261719 61.839844 40.261719 61.839844 C 44.351562 61.316406 47.589844 62.363281 47.589844 62.363281 C 46 64.847656 45.828125 67.292969 47.03125 69.839844 C 46.441406 71.597656 46.671875 73.410156 46.890625 75.203125 C 47.351562 79.003906 47.839844 82.808594 48.421875 86.597656 C 48.601562 87.738281 49.039062 88.863281 49.519531 89.910156 C 50.21875 91.449219 51.421875 92.394531 53.191406 92.40625 C 54.960938 92.414062 56.128906 91.488281 56.910156 89.980469 C 57.898438 88.078125 58.261719 85.984375 58.53125 83.894531 C 58.96875 80.421875 59.371094 76.929688 59.691406 73.441406 C 59.800781 72.242188 59.640625 71.027344 59.578125 69.457031 C 60.628906 67.292969 60.441406 64.847656 58.96875 62.515625 C 59.039062 62.453125 59.070312 62.394531 59.109375 62.394531 C 62.109375 62.382812 65.128906 62.304688 68.128906 62.394531 C 68.128906 62.394531 68.230469 62.394531 68.429688 62.40625 C 68.53125 62.417969 68.625 62.429688 68.71875 62.433594 C 68.820312 62.449219 68.917969 62.460938 69.011719 62.476562 C 69.101562 62.496094 69.199219 62.515625 69.300781 62.535156 C 69.394531 62.554688 69.488281 62.578125 69.578125 62.605469 C 71.328125 63.027344 74.339844 64.304688 76.761719 68.148438 C 76.726562 68.175781 76.691406 68.207031 76.660156 68.238281 C 76.632812 68.265625 76.601562 68.292969 76.570312 68.320312 C 76.535156 68.347656 76.503906 68.375 76.46875 68.402344 C 76.4375 68.425781 76.402344 68.453125 76.371094 68.480469 C 74.71875 69.75 73.820312 71.449219 73.769531 73.410156 C 73.75 74.457031 73.761719 75.484375 73.769531 76.347656 C 73.769531 76.414062 73.773438 76.480469 73.78125 76.550781 C 73.78125 76.617188 73.785156 76.683594 73.789062 76.75 C 73.804688 76.816406 73.8125 76.882812 73.820312 76.953125 C 73.832031 77.019531 73.847656 77.085938 73.859375 77.152344 C 73.867188 77.207031 73.875 77.261719 73.890625 77.3125 C 74.230469 78.582031 75.261719 79.386719 76.570312 79.40625 C 76.582031 79.40625 76.597656 79.40625 76.609375 79.40625 C 76.625 79.40625 76.640625 79.410156 76.660156 79.417969 C 76.671875 79.417969 76.6875 79.417969 76.699219 79.417969 C 76.714844 79.417969 76.730469 79.417969 76.75 79.417969 L 76.808594 79.417969 L 77 79.394531 C 77 83.441406 77 87.535156 77 87.535156 C 77 88.824219 77 90.152344 77.011719 91.457031 Z M 77.011719 91.457031 "/>
</g>
</svg>
