<?xml version="1.0" encoding="UTF-8"?>
<svg xmlns="http://www.w3.org/2000/svg" xmlns:xlink="http://www.w3.org/1999/xlink" width="162px" height="100px" viewBox="0 0 161 100" version="1.1">
<g id="surface1">
<path style=" stroke:none;fill-rule:evenodd;fill:rgb(6.666667%,77.254902%,5.490196%);fill-opacity:1;" d="M 160.957031 30.808594 C 160.851562 32.648438 160.894531 34.507812 160.957031 36.558594 C 161.015625 38.25 160.597656 39.550781 159.746094 40.449219 C 159.242188 40.988281 158.316406 41.632812 156.796875 41.660156 C 154.785156 41.660156 153.753906 40.734375 153.21875 39.957031 C 152.621094 39.085938 152.324219 37.933594 152.324219 36.527344 L 152.324219 33.726562 C 152.324219 31.765625 152.324219 29.804688 152.308594 27.84375 C 152.292969 26.421875 151.832031 25.285156 150.773438 24.222656 C 150.503906 25.238281 150.28125 26.152344 150.28125 26.976562 C 150.242188 41.675781 150.222656 56.378906 150.222656 71.078125 L 150.222656 82.753906 C 150.222656 90.210938 149.761719 91.152344 143.394531 92.230469 C 143.335938 92.574219 143.289062 92.933594 143.230469 93.277344 C 142.945312 95.105469 142.664062 97.007812 141.664062 98.59375 C 140.964844 99.746094 139.445312 99.894531 138.074219 99.894531 C 137.550781 99.894531 137.015625 99.867188 136.492188 99.835938 C 136.089844 99.820312 135.6875 99.804688 135.34375 99.804688 C 131.855469 99.777344 131.527344 98.609375 130.84375 92.378906 L 91.890625 92.378906 C 91.839844 92.660156 91.800781 92.945312 91.769531 93.234375 C 91.515625 95.089844 91.25 97.007812 90.203125 98.578125 C 89.386719 99.804688 87.597656 99.957031 86.300781 99.957031 C 86.070312 99.957031 85.835938 99.949219 85.597656 99.941406 C 85.371094 99.929688 85.136719 99.914062 84.898438 99.894531 C 84.667969 99.886719 84.4375 99.867188 84.195312 99.835938 C 83.96875 99.816406 83.734375 99.789062 83.496094 99.761719 C 79.097656 99.207031 79.277344 96.03125 79.382812 94.132812 C 79.425781 93.429688 79.457031 92.753906 79.335938 92.1875 L 78.890625 92.1875 C 78.53125 92.1875 78.144531 92.1875 77.773438 92.171875 C 73.777344 91.992188 71.734375 89.878906 71.703125 85.882812 C 71.675781 80.792969 71.691406 75.703125 71.691406 70.613281 C 71.691406 70.613281 71.703125 35.929688 71.691406 24.96875 C 71.691406 24.835938 71.675781 24.6875 71.675781 24.535156 C 70.960938 25.328125 70.601562 26.316406 70.558594 27.558594 C 70.496094 28.800781 70.511719 30.042969 70.527344 31.289062 C 70.558594 33.1875 70.570312 35.164062 70.363281 37.109375 C 69.78125 41.648438 66.980469 41.542969 66.980469 41.542969 L 66.308594 41.601562 C 66.25 41.601562 66.1875 41.570312 66.144531 41.570312 C 63.519531 41.660156 62.476562 40.03125 62.121094 38.652344 C 62.089844 38.578125 62.089844 38.519531 62.074219 38.441406 C 62.042969 38.324219 62.019531 38.199219 62 38.070312 C 61.980469 37.949219 61.960938 37.824219 61.941406 37.695312 C 61.929688 37.574219 61.921875 37.449219 61.910156 37.320312 C 61.902344 37.199219 61.894531 37.074219 61.894531 36.945312 C 61.867188 34.027344 61.835938 31.109375 61.910156 28.1875 C 62.03125 23.652344 64.070312 19.835938 67.976562 16.839844 C 70.363281 15.015625 71.839844 13.234375 71.839844 10.03125 C 71.855469 4.175781 76.519531 0.0742188 83.183594 0.0585938 C 87.546875 0.0507812 91.910156 0.0429688 96.273438 0.0429688 L 138.238281 0.0585938 C 145.464844 0.0585938 148.984375 3.128906 150.355469 10.660156 C 150.667969 12.351562 152.113281 14.519531 153.890625 15.929688 C 159.015625 20 161.328125 24.878906 160.957031 30.808594 Z M 95.542969 9.625 C 95.554688 9.625 95.71875 9.730469 96.273438 9.730469 C 98.449219 9.65625 100.476562 9.640625 102.503906 9.640625 L 110.972656 9.6875 L 119.734375 9.65625 C 121.839844 9.65625 123.941406 9.671875 126.027344 9.714844 L 126.042969 9.714844 C 126.683594 9.714844 126.832031 9.625 126.832031 9.625 C 126.9375 9.460938 126.953125 8.699219 126.953125 8.234375 C 126.980469 6.945312 126.875 6.675781 126.832031 6.617188 C 126.816406 6.617188 126.652344 6.46875 125.96875 6.46875 C 120.914062 6.527344 115.921875 6.542969 110.925781 6.542969 C 106.066406 6.542969 101.210938 6.515625 96.363281 6.46875 L 96.300781 5 L 96.300781 6.46875 C 95.707031 6.46875 95.527344 6.585938 95.527344 6.585938 C 95.453125 6.738281 95.4375 7.425781 95.4375 7.875 C 95.421875 8.488281 95.40625 9.429688 95.542969 9.625 Z M 91.144531 75.957031 C 91.128906 75.867188 91.113281 75.507812 91.097656 75.417969 C 90.980469 74.820312 90.785156 73.847656 90.578125 73.621094 C 86.820312 71.121094 83.628906 69.386719 80.542969 68.203125 C 79.695312 67.875 79.023438 67.722656 78.515625 67.722656 C 78.070312 67.722656 77.308594 67.722656 77.308594 70.734375 C 77.308594 74.402344 77.699219 74.894531 81.023438 75.554688 C 83.808594 76.09375 86.730469 76.121094 89.5625 76.152344 C 89.996094 76.152344 90.5625 76.199219 91.144531 75.957031 Z M 126.964844 83.921875 C 126.964844 82.785156 126.875 82.46875 126.816406 82.394531 C 126.816406 82.394531 126.652344 82.261719 125.984375 82.261719 C 120.972656 82.304688 116.007812 82.320312 111.046875 82.320312 C 107.808594 82.320312 104.589844 82.304688 101.355469 82.277344 L 96.035156 82.277344 C 95.992188 82.285156 95.953125 82.289062 95.914062 82.289062 C 95.875 82.300781 95.835938 82.308594 95.796875 82.320312 C 95.753906 82.320312 95.714844 82.324219 95.675781 82.335938 C 95.636719 82.34375 95.597656 82.355469 95.554688 82.367188 C 95.453125 82.53125 95.4375 83.308594 95.4375 83.773438 C 95.421875 84.3125 95.40625 85.238281 95.542969 85.449219 C 95.554688 85.449219 95.71875 85.539062 96.257812 85.539062 C 98.402344 85.480469 100.402344 85.464844 102.414062 85.464844 L 110.941406 85.507812 L 119.765625 85.480469 C 121.851562 85.480469 123.925781 85.492188 125.996094 85.539062 L 126.027344 85.539062 C 126.683594 85.539062 126.832031 85.433594 126.832031 85.433594 C 126.964844 85.269531 126.964844 84.429688 126.964844 83.9375 Z M 129.097656 55.148438 C 129.15625 53.097656 132.4375 53.277344 132.4375 53.277344 C 135.417969 52.964844 135.910156 54.699219 135.910156 54.699219 C 136 55.269531 135.507812 55.148438 135.507812 55.148438 L 135.507812 57.007812 C 135.566406 56.996094 135.628906 56.996094 135.6875 57.007812 C 135.746094 57.015625 135.800781 57.035156 135.851562 57.066406 C 135.910156 57.085938 135.964844 57.117188 136.015625 57.15625 C 136.066406 57.195312 136.109375 57.234375 136.148438 57.277344 C 136.535156 57.457031 136.863281 57.648438 137.074219 57.980469 C 138.28125 57.722656 139.488281 57.515625 140.710938 57.246094 C 143.675781 56.570312 145.003906 54.761719 145.019531 51.363281 C 145.027344 46.78125 145.035156 42.199219 145.035156 37.621094 C 145.023438 32.570312 145.027344 27.515625 145.050781 22.457031 C 145.050781 20.195312 144.140625 18.890625 142.171875 18.324219 C 139.59375 17.589844 137.027344 16.871094 134.585938 16.796875 C 131.214844 16.722656 127.847656 16.691406 124.476562 16.691406 C 122.253906 16.691406 114.667969 16.722656 113.074219 16.722656 L 113.074219 16.75 L 111.195312 16.75 C 108.957031 16.75 106.707031 16.738281 104.457031 16.722656 C 102.210938 16.703125 99.96875 16.691406 97.734375 16.691406 C 94.347656 16.691406 90.949219 16.738281 87.566406 16.839844 C 85.316406 16.917969 82.960938 17.574219 80.664062 18.21875 L 78.996094 18.683594 C 77.949219 18.96875 77.25 19.535156 77.265625 21.480469 C 77.324219 28.609375 77.324219 35.734375 77.308594 42.859375 L 77.308594 50.671875 C 77.308594 55.6875 78.023438 56.632812 82.796875 57.785156 C 92.933594 60.253906 101.953125 61.453125 110.375 61.453125 C 111.308594 61.453125 112.246094 61.4375 113.191406 61.40625 C 114.125 61.378906 115.058594 61.328125 115.996094 61.257812 C 116.9375 61.199219 117.878906 61.121094 118.8125 61.03125 C 119.734375 60.933594 120.664062 60.824219 121.601562 60.703125 C 123.507812 60.433594 125.429688 60.105469 127.367188 59.789062 C 127.292969 58.457031 128.578125 57.964844 128.578125 57.964844 C 128.578125 57.246094 129.546875 56.917969 129.546875 56.917969 L 129.546875 55.148438 Z M 145.078125 69.265625 C 145.0625 67.917969 144.648438 67.917969 144.003906 67.917969 L 143.675781 67.933594 C 138.953125 68.324219 134.734375 70.449219 131.140625 74.238281 C 131.140625 74.238281 131.035156 74.65625 130.992188 75.105469 C 130.992188 75.175781 130.992188 75.238281 130.992188 75.300781 C 130.992188 75.371094 130.992188 75.433594 130.992188 75.492188 C 130.992188 75.5625 130.996094 75.632812 131.007812 75.703125 C 131.007812 75.761719 131.011719 75.828125 131.019531 75.898438 C 131.019531 75.898438 136.449219 76.332031 139.875 75.898438 C 140.382812 75.808594 140.859375 75.71875 141.261719 75.628906 L 141.335938 75.613281 C 144.886719 74.851562 145.109375 73.96875 145.078125 69.265625 Z M 145.078125 69.265625 "/>
<path style=" stroke:none;fill-rule:nonzero;fill:rgb(6.666667%,77.254902%,5.490196%);fill-opacity:1;" d="M 127.21875 41.902344 L 124.9375 41.871094 L 127.203125 39.597656 L 138.445312 39.597656 L 138.445312 41.902344 C 138.28125 47.84375 132.855469 48.203125 132.855469 48.203125 C 126.773438 47.632812 127.21875 41.902344 127.21875 41.902344 Z M 127.21875 41.902344 "/>
<path style=" stroke:none;fill-rule:nonzero;fill:rgb(6.666667%,77.254902%,5.490196%);fill-opacity:1;" d="M 138.445312 37.53125 L 127.457031 37.53125 L 125.609375 34.609375 L 138.445312 35.867188 Z M 138.445312 37.53125 "/>
<path style=" stroke:none;fill-rule:nonzero;fill:rgb(6.666667%,77.254902%,5.490196%);fill-opacity:1;" d="M 128.589844 53.1875 C 128.160156 54.101562 127.683594 53.488281 127.683594 53.488281 C 127.519531 52.992188 126.726562 53.25 126.726562 53.25 C 125.59375 53.980469 128.578125 55.238281 128.578125 55.238281 C 129.054688 57.335938 127.890625 57.542969 127.890625 57.542969 C 122.332031 57.050781 121.734375 53.457031 121.734375 53.457031 C 123.179688 49.085938 130.113281 49.730469 130.113281 49.730469 L 135.507812 49.699219 C 142.632812 50.03125 143.15625 52.933594 143.15625 52.933594 C 143.230469 56.210938 139.28125 57.214844 139.28125 57.214844 C 136.386719 57.980469 136.34375 55.957031 136.34375 55.957031 C 136.269531 54.386719 138.28125 54.265625 138.28125 54.265625 C 139.128906 53.007812 138.160156 53.292969 138.160156 53.292969 C 137.28125 53.128906 137.164062 53.621094 137.164062 53.621094 C 136.507812 53.816406 136.386719 53.367188 136.386719 53.367188 C 135.984375 52.035156 134.421875 51.917969 134.421875 51.917969 L 130.933594 51.917969 C 129.992188 51.8125 128.589844 53.1875 128.589844 53.1875 Z M 128.589844 53.1875 "/>
<path style=" stroke:none;fill-rule:evenodd;fill:rgb(6.666667%,77.254902%,5.490196%);fill-opacity:1;" d="M 64.398438 52.050781 C 64.519531 52.378906 64.578125 52.558594 64.636719 52.769531 C 63.582031 53.351562 62.507812 53.636719 61.34375 53.863281 C 58.882812 54.296875 56.320312 54.476562 54.324219 56.121094 L 53.578125 55.957031 C 53.652344 56.183594 53.710938 56.332031 53.742188 56.480469 C 53.785156 56.632812 53.785156 56.765625 53.816406 56.976562 L 52.890625 57.199219 C 52.800781 56.871094 52.726562 56.601562 52.636719 56.273438 L 51.847656 56.46875 L 51.371094 57.066406 L 50.804688 56.960938 C 50.8125 57.011719 50.824219 57.0625 50.835938 57.109375 L 48.539062 57.46875 C 48.527344 57.421875 48.519531 57.371094 48.507812 57.320312 L 44.796875 57.769531 L 44.363281 57.441406 L 25.96875 60.972656 C 25.96875 61.003906 25.96875 61.03125 25.96875 61.0625 L 34.570312 60.554688 C 34.316406 70.570312 33.019531 80.492188 32.558594 90.507812 C 32.007812 90.507812 31.515625 90.492188 31.023438 90.507812 C 30.914062 90.507812 30.796875 90.515625 30.679688 90.523438 C 30.570312 90.535156 30.457031 90.542969 30.335938 90.554688 C 30.226562 90.5625 30.113281 90.578125 29.992188 90.597656 C 29.882812 90.617188 29.769531 90.640625 29.652344 90.660156 C 30.8125 90.703125 31.976562 90.6875 32.988281 91.199219 C 32.988281 92.277344 32.945312 93.277344 33.003906 94.296875 C 33.167969 96.796875 34.257812 97.710938 36.851562 97.542969 C 36.96875 97.695312 37.121094 97.890625 37.269531 98.082031 C 36.894531 98.832031 36.226562 98.863281 35.613281 98.96875 C 33.707031 99.28125 31.828125 98.980469 29.964844 98.652344 C 29.914062 98.644531 29.863281 98.632812 29.816406 98.621094 C 29.765625 98.621094 29.710938 98.617188 29.652344 98.609375 C 29.601562 98.609375 29.550781 98.613281 29.5 98.621094 C 29.453125 98.632812 29.398438 98.644531 29.335938 98.652344 C 27.625 99.25 25.863281 99.175781 24.121094 98.90625 C 22.914062 98.726562 21.734375 98.441406 20.648438 98.21875 C 20.691406 96.855469 20.8125 95.660156 20.765625 94.476562 C 20.722656 93.292969 20.527344 92.109375 20.410156 90.898438 L 20.898438 90.671875 C 21.347656 81.109375 21.75 71.527344 21.585938 61.839844 C 20.527344 62.035156 19.5 62.230469 18.484375 62.425781 C 15.996094 62.890625 13.519531 63.457031 11.015625 63.789062 C 7.363281 64.296875 4.382812 62.902344 2.085938 60.074219 C 0.625 58.292969 -0.0429688 56.210938 0 53.890625 C 0.105469 49.160156 0.195312 44.429688 0.296875 39.6875 C 0.34375 37.769531 0.371094 35.839844 0.523438 33.921875 C 0.820312 30.359375 3.683594 27.1875 7.214844 26.542969 C 9.867188 26.0625 12.417969 26.496094 14.714844 27.933594 C 16.679688 29.175781 17.664062 31.09375 17.753906 33.53125 L 18.203125 34.402344 C 19.527344 34.582031 19.632812 34.761719 19.320312 36.363281 L 18.410156 36.40625 L 19.664062 37.648438 C 20.78125 37.738281 21.347656 38.414062 21.242188 39.714844 C 20.976562 43.277344 20.734375 46.839844 20.496094 50.390625 L 20.214844 54.460938 C 20.15625 55.464844 19.515625 56.046875 18.515625 55.988281 C 15.425781 55.789062 12.332031 55.574219 9.242188 55.34375 C 9.035156 55.328125 8.824219 55.285156 8.644531 55.179688 C 8.453125 55.089844 8.289062 54.957031 8.15625 54.789062 C 8.003906 54.625 7.914062 54.445312 7.839844 54.238281 C 7.78125 54.042969 7.765625 53.832031 7.78125 53.621094 C 8.039062 49.851562 8.296875 46.078125 8.558594 42.304688 C 8.632812 41.226562 8.734375 40.148438 8.78125 39.070312 C 8.839844 37.722656 9.152344 37.320312 10.316406 36.871094 L 11.359375 35.972656 C 11.402344 35.253906 11.464844 34.339844 11.539062 33.367188 L 10.75 33.25 C 10.71875 32.769531 10.941406 32.589844 11.390625 32.589844 C 12.539062 32.558594 12.699219 32.648438 12.804688 33.367188 L 11.96875 33.429688 C 11.894531 34.355469 11.835938 35.285156 11.792969 35.988281 L 12.730469 37.066406 L 14.117188 36.03125 L 13.074219 35.972656 C 13.089844 35.328125 13 34.699219 13.492188 34.148438 L 16.128906 34.3125 L 16.726562 33.578125 C 16.53125 29.746094 14.117188 28.171875 10.957031 27.589844 C 8.304688 27.109375 5.859375 27.53125 3.816406 29.445312 C 2.355469 30.839844 1.535156 32.558594 1.476562 34.550781 C 1.296875 40.957031 1.175781 47.351562 1.058594 53.757812 C 0.984375 57.15625 2.414062 59.761719 5.277344 61.570312 C 7.425781 62.949219 9.75 63.054688 12.222656 62.574219 C 17.859375 61.453125 23.523438 60.417969 29.171875 59.355469 C 29.382812 59.3125 29.589844 59.238281 29.902344 59.148438 L 21.570312 59.820312 L 21.570312 53.382812 C 21.882812 53.742188 22.210938 54.132812 22.539062 54.519531 C 24.566406 56.992188 27.222656 57.753906 30.292969 57.351562 C 31.722656 57.15625 33.167969 56.902344 34.644531 56.675781 L 34.644531 58.261719 L 44.15625 56.453125 L 44.109375 56.347656 L 45.273438 55.761719 C 45.125 54.835938 45.898438 54.132812 45.972656 53.171875 C 45.617188 53.890625 45.257812 54.625 44.871094 55.402344 C 42.964844 55.253906 40.980469 55.132812 38.984375 54.941406 C 37.105469 54.777344 35.226562 54.566406 33.347656 54.339844 C 31.113281 54.085938 29.605469 52.8125 28.859375 50.75 C 28.175781 48.847656 27.726562 46.855469 27.160156 44.910156 C 27.152344 44.871094 27.140625 44.824219 27.132812 44.777344 C 27.113281 44.726562 27.089844 44.675781 27.070312 44.625 C 27.050781 44.585938 27.03125 44.546875 27.011719 44.507812 C 26.980469 44.457031 26.953125 44.410156 26.921875 44.371094 L 27.355469 46.707031 C 27.609375 48.097656 27.847656 49.492188 28.128906 50.898438 C 28.519531 52.890625 29.769531 54.191406 31.589844 54.941406 C 32.542969 55.3125 33.542969 55.539062 34.554688 55.839844 C 32.8125 56.289062 31.039062 56.585938 29.25 56.453125 C 28.101562 56.363281 26.921875 56.199219 25.847656 55.808594 C 23.195312 54.867188 21.71875 52.828125 21.378906 50.105469 C 21.269531 49.238281 21.203125 48.367188 21.183594 47.5 C 21.164062 46.621094 21.195312 45.75 21.273438 44.878906 C 21.34375 44.003906 21.460938 43.132812 21.628906 42.277344 C 21.800781 41.417969 22.011719 40.570312 22.273438 39.730469 C 22.972656 37.410156 25.296875 36.078125 27.699219 36.46875 C 28.5625 36.617188 29.425781 36.8125 30.277344 37.035156 C 32.765625 37.679688 34.109375 39.402344 34.527344 41.855469 C 34.585938 42.214844 34.636719 42.578125 34.675781 42.949219 C 34.722656 43.308594 34.765625 43.671875 34.792969 44.042969 C 34.824219 44.402344 34.847656 44.765625 34.867188 45.132812 C 34.886719 45.492188 34.902344 45.859375 34.914062 46.226562 C 34.941406 47.335938 35.375 48.070312 36.375 48.503906 C 39.652344 49.910156 42.933594 51.300781 46.183594 52.769531 C 47.226562 53.234375 48.210938 52.800781 49.210938 52.8125 C 50.3125 52.84375 51.414062 53.070312 52.503906 53.25 C 52.652344 53.277344 52.773438 53.578125 52.949219 53.832031 L 53.382812 53.773438 C 53.457031 53.90625 53.519531 54.042969 53.546875 54.101562 C 53.605469 54.09375 53.667969 54.082031 53.726562 54.070312 C 53.785156 54.0625 53.84375 54.058594 53.90625 54.058594 C 53.964844 54.046875 54.023438 54.042969 54.085938 54.042969 C 54.144531 54.03125 54.203125 54.027344 54.261719 54.027344 C 56.828125 54.191406 59.210938 53.367188 61.597656 52.621094 C 62.492188 52.351562 63.429688 52.246094 64.398438 52.050781 Z M 9.929688 39.6875 C 9.792969 41.796875 9.660156 43.878906 9.527344 46.019531 C 9.824219 45.972656 10.078125 45.957031 10.316406 45.914062 C 10.644531 45.84375 10.960938 45.75 11.269531 45.628906 C 11.578125 45.5 11.875 45.347656 12.164062 45.179688 C 12.453125 45.011719 12.726562 44.816406 12.984375 44.597656 C 13.234375 44.386719 13.464844 44.152344 13.683594 43.890625 C 14.996094 42.378906 16.667969 41.691406 18.648438 41.707031 C 19.050781 41.707031 19.453125 41.660156 19.886719 41.648438 C 19.929688 41.199219 19.960938 40.808594 19.992188 40.390625 Z M 25.507812 90.761719 C 24.375 90.582031 23.300781 90.359375 22.226562 90.6875 C 23.375 90.75 24.550781 90.644531 25.507812 91.199219 C 25.507812 92.277344 25.460938 93.277344 25.507812 94.265625 C 25.597656 96.167969 26.476562 97.304688 28.027344 97.574219 C 28.726562 95.3125 27.90625 93.082031 27.90625 90.824219 L 28.367188 90.703125 C 28.160156 85.75 27.9375 80.851562 27.726562 75.957031 L 27.667969 75.941406 C 26.941406 80.875 26.222656 85.8125 25.507812 90.761719 Z M 52.832031 54.417969 C 52.816406 54.402344 52.816406 54.386719 52.816406 54.355469 L 50.476562 54.117188 L 51.222656 54.6875 Z M 52.832031 54.417969 "/>
<path style=" stroke:none;fill-rule:evenodd;fill:rgb(6.666667%,77.254902%,5.490196%);fill-opacity:1;" d="M 36.417969 29.925781 C 36.6875 29.925781 36.957031 29.984375 37.195312 30.089844 C 37.449219 30.210938 37.671875 30.359375 37.851562 30.554688 C 38.042969 30.75 38.191406 30.972656 38.28125 31.226562 C 38.386719 31.46875 38.445312 31.738281 38.445312 32.007812 C 38.460938 32.558594 38.253906 33.097656 37.863281 33.488281 C 37.476562 33.878906 36.957031 34.101562 36.402344 34.101562 C 35.851562 34.101562 35.332031 33.878906 34.957031 33.472656 C 34.570312 33.082031 34.363281 32.542969 34.375 31.992188 C 34.375 30.867188 35.316406 29.910156 36.417969 29.925781 Z M 37.582031 31.992188 C 37.570312 31.839844 37.535156 31.695312 37.476562 31.558594 C 37.425781 31.417969 37.347656 31.292969 37.238281 31.183594 C 37.128906 31.074219 37.003906 30.988281 36.867188 30.929688 C 36.726562 30.867188 36.582031 30.839844 36.433594 30.839844 C 36.285156 30.828125 36.140625 30.851562 36 30.914062 C 35.851562 30.964844 35.722656 31.039062 35.613281 31.136719 C 35.503906 31.246094 35.421875 31.371094 35.359375 31.511719 C 35.289062 31.652344 35.257812 31.796875 35.257812 31.945312 C 35.246094 32.097656 35.265625 32.246094 35.316406 32.394531 C 35.367188 32.535156 35.445312 32.664062 35.554688 32.785156 C 35.652344 32.894531 35.773438 32.980469 35.910156 33.039062 C 36.050781 33.109375 36.195312 33.144531 36.34375 33.144531 C 36.507812 33.160156 36.65625 33.128906 36.804688 33.082031 C 36.957031 33.023438 37.089844 32.933594 37.207031 32.828125 C 37.3125 32.722656 37.417969 32.605469 37.476562 32.457031 C 37.535156 32.304688 37.566406 32.15625 37.582031 31.992188 Z M 37.582031 31.992188 "/>
<path style=" stroke:none;fill-rule:evenodd;fill:rgb(6.666667%,77.254902%,5.490196%);fill-opacity:1;" d="M 27.207031 33.457031 C 27.503906 32.53125 27.371094 31.617188 27.042969 30.703125 C 26.683594 29.671875 26.28125 28.636719 26 27.574219 C 25.238281 24.746094 27.355469 21.976562 29.964844 21.332031 C 33.378906 20.480469 36.253906 22.304688 37.121094 25.882812 C 37.492188 27.410156 37.582031 28.847656 37.34375 29.699219 C 36.105469 29.3125 35.015625 29.582031 34.332031 30.734375 C 33.707031 31.796875 33.929688 32.84375 34.628906 33.699219 L 33.257812 35.554688 L 34.601562 37.574219 C 32.007812 35.71875 29.308594 34.238281 25.820312 34.355469 Z M 34.046875 26.078125 C 33.960938 26.136719 33.878906 26.210938 33.808594 26.300781 C 33.742188 26.402344 33.691406 26.507812 33.660156 26.617188 C 33.632812 26.714844 33.617188 26.828125 33.617188 26.945312 C 33.632812 27.46875 33.824219 27.84375 34.273438 28.023438 C 35.179688 28.414062 36.105469 28.414062 37.121094 28.171875 C 37 25.179688 36.390625 25.480469 36.390625 25.480469 C 35.644531 25.628906 34.988281 25.734375 34.363281 25.929688 C 34.253906 25.957031 34.148438 26.007812 34.046875 26.078125 Z M 34.046875 26.078125 "/>
<path style=" stroke:none;fill-rule:nonzero;fill:rgb(6.666667%,77.254902%,5.490196%);fill-opacity:1;" d="M 64.488281 49.894531 L 64.636719 49.746094 L 64.9375 50.074219 L 64.773438 50.210938 Z M 64.488281 49.894531 "/>
<path style=" stroke:none;fill-rule:nonzero;fill:rgb(6.666667%,77.254902%,5.490196%);fill-opacity:1;" d="M 67.054688 47.589844 L 67.410156 47.277344 L 67.695312 47.605469 L 67.351562 47.902344 Z M 67.054688 47.589844 "/>
<path style=" stroke:none;fill-rule:nonzero;fill:rgb(6.666667%,77.254902%,5.490196%);fill-opacity:1;" d="M 65.683594 48.816406 L 66.023438 48.503906 L 66.308594 48.832031 L 65.964844 49.148438 Z M 65.683594 48.816406 "/>
<path style=" stroke:none;fill-rule:nonzero;fill:rgb(6.666667%,77.254902%,5.490196%);fill-opacity:1;" d="M 66.367188 48.203125 L 66.710938 47.890625 L 67.007812 48.21875 L 66.652344 48.53125 Z M 66.367188 48.203125 "/>
<path style=" stroke:none;fill-rule:nonzero;fill:rgb(6.666667%,77.254902%,5.490196%);fill-opacity:1;" d="M 67.753906 46.960938 L 68.097656 46.660156 L 68.378906 46.976562 L 68.039062 47.289062 Z M 67.753906 46.960938 "/>
<path style=" stroke:none;fill-rule:nonzero;fill:rgb(6.666667%,77.254902%,5.490196%);fill-opacity:1;" d="M 64.996094 49.429688 L 65.339844 49.132812 L 65.621094 49.445312 L 65.28125 49.761719 Z M 64.996094 49.429688 "/>
<path style=" stroke:none;fill-rule:nonzero;fill:rgb(6.666667%,77.254902%,5.490196%);fill-opacity:1;" d="M 68.441406 46.347656 L 68.605469 46.199219 L 68.886719 46.527344 L 68.722656 46.675781 Z M 68.441406 46.347656 "/>
<path style=" stroke:none;fill-rule:nonzero;fill:rgb(6.666667%,77.254902%,5.490196%);fill-opacity:1;" d="M 64.980469 50.71875 L 65.191406 50.644531 L 65.324219 51.0625 L 65.117188 51.121094 Z M 64.980469 50.71875 "/>
<path style=" stroke:none;fill-rule:nonzero;fill:rgb(6.666667%,77.254902%,5.490196%);fill-opacity:1;" d="M 66.5 50.195312 L 66.933594 50.058594 L 67.070312 50.464844 L 66.636719 50.613281 Z M 66.5 50.195312 "/>
<path style=" stroke:none;fill-rule:nonzero;fill:rgb(6.666667%,77.254902%,5.490196%);fill-opacity:1;" d="M 69.109375 49.328125 L 69.558594 49.175781 L 69.691406 49.582031 L 69.261719 49.730469 Z M 69.109375 49.328125 "/>
<path style=" stroke:none;fill-rule:nonzero;fill:rgb(6.666667%,77.254902%,5.490196%);fill-opacity:1;" d="M 68.246094 49.625 L 68.679688 49.476562 L 68.8125 49.878906 L 68.378906 50.03125 Z M 68.246094 49.625 "/>
<path style=" stroke:none;fill-rule:nonzero;fill:rgb(6.666667%,77.254902%,5.490196%);fill-opacity:1;" d="M 65.621094 50.492188 L 66.054688 50.34375 L 66.203125 50.761719 L 65.757812 50.914062 Z M 65.621094 50.492188 "/>
<path style=" stroke:none;fill-rule:nonzero;fill:rgb(6.666667%,77.254902%,5.490196%);fill-opacity:1;" d="M 67.367188 49.910156 L 67.8125 49.761719 L 67.949219 50.164062 L 67.515625 50.3125 Z M 67.367188 49.910156 "/>
<path style=" stroke:none;fill-rule:nonzero;fill:rgb(6.666667%,77.254902%,5.490196%);fill-opacity:1;" d="M 69.992188 49.027344 L 70.199219 48.953125 L 70.332031 49.371094 L 70.140625 49.429688 Z M 69.992188 49.027344 "/>
<path style=" stroke:none;fill-rule:nonzero;fill:rgb(6.666667%,77.254902%,5.490196%);fill-opacity:1;" d="M 65.488281 52.035156 L 65.695312 51.992188 L 65.769531 52.425781 L 65.546875 52.457031 Z M 65.488281 52.035156 "/>
<path style=" stroke:none;fill-rule:nonzero;fill:rgb(6.666667%,77.254902%,5.490196%);fill-opacity:1;" d="M 66.160156 51.929688 L 66.605469 51.855469 L 66.679688 52.277344 L 66.21875 52.351562 Z M 66.160156 51.929688 "/>
<path style=" stroke:none;fill-rule:nonzero;fill:rgb(6.666667%,77.254902%,5.490196%);fill-opacity:1;" d="M 67.070312 51.78125 L 67.515625 51.707031 L 67.589844 52.125 L 67.144531 52.199219 Z M 67.070312 51.78125 "/>
<path style=" stroke:none;fill-rule:nonzero;fill:rgb(6.666667%,77.254902%,5.490196%);fill-opacity:1;" d="M 67.976562 51.632812 L 68.441406 51.558594 L 68.515625 51.976562 L 68.050781 52.050781 Z M 67.976562 51.632812 "/>
<path style=" stroke:none;fill-rule:nonzero;fill:rgb(6.666667%,77.254902%,5.490196%);fill-opacity:1;" d="M 70.066406 51.496094 L 70.511719 51.421875 L 70.585938 51.855469 L 70.125 51.929688 Z M 70.066406 51.496094 "/>
<path style=" stroke:none;fill-rule:nonzero;fill:rgb(6.666667%,77.254902%,5.490196%);fill-opacity:1;" d="M 68.886719 51.480469 L 69.347656 51.40625 L 69.410156 51.839844 L 68.960938 51.917969 Z M 68.886719 51.480469 "/>
<path style=" stroke:none;fill-rule:nonzero;fill:rgb(6.666667%,77.254902%,5.490196%);fill-opacity:1;" d="M 70.972656 51.347656 L 71.199219 51.316406 L 71.257812 51.75 L 71.046875 51.78125 Z M 70.972656 51.347656 "/>
<path style=" stroke:none;fill-rule:nonzero;fill:rgb(6.666667%,77.254902%,5.490196%);fill-opacity:1;" d="M 65.59375 53.1875 L 65.757812 52.785156 L 65.949219 52.875 L 65.800781 53.277344 Z M 65.59375 53.1875 "/>
<path style=" stroke:none;fill-rule:nonzero;fill:rgb(6.666667%,77.254902%,5.490196%);fill-opacity:1;" d="M 66.234375 53.441406 L 66.382812 53.039062 L 66.816406 53.21875 L 66.652344 53.621094 Z M 66.234375 53.441406 "/>
<path style=" stroke:none;fill-rule:nonzero;fill:rgb(6.666667%,77.254902%,5.490196%);fill-opacity:1;" d="M 69.664062 54.820312 L 69.828125 54.417969 L 70.257812 54.582031 L 70.09375 54.984375 Z M 69.664062 54.820312 "/>
<path style=" stroke:none;fill-rule:nonzero;fill:rgb(6.666667%,77.254902%,5.490196%);fill-opacity:1;" d="M 68.8125 54.476562 L 68.960938 54.070312 L 69.394531 54.25 L 69.230469 54.65625 Z M 68.8125 54.476562 "/>
<path style=" stroke:none;fill-rule:nonzero;fill:rgb(6.666667%,77.254902%,5.490196%);fill-opacity:1;" d="M 67.082031 53.789062 L 67.246094 53.382812 L 67.679688 53.5625 L 67.515625 53.96875 Z M 67.082031 53.789062 "/>
<path style=" stroke:none;fill-rule:nonzero;fill:rgb(6.666667%,77.254902%,5.490196%);fill-opacity:1;" d="M 67.949219 54.132812 L 68.113281 53.726562 L 68.542969 53.90625 L 68.378906 54.3125 Z M 67.949219 54.132812 "/>
<path style=" stroke:none;fill-rule:nonzero;fill:rgb(6.666667%,77.254902%,5.490196%);fill-opacity:1;" d="M 70.527344 55.148438 L 70.675781 54.761719 L 70.882812 54.835938 L 70.722656 55.238281 Z M 70.527344 55.148438 "/>
<path style=" stroke:none;fill-rule:nonzero;fill:rgb(6.666667%,77.254902%,5.490196%);fill-opacity:1;" d="M 64.90625 54.085938 L 65.175781 53.742188 L 65.355469 53.878906 L 65.085938 54.222656 Z M 64.90625 54.085938 "/>
<path style=" stroke:none;fill-rule:nonzero;fill:rgb(6.666667%,77.254902%,5.490196%);fill-opacity:1;" d="M 68.335938 56.828125 L 68.605469 56.480469 L 68.960938 56.765625 L 68.691406 57.109375 Z M 68.335938 56.828125 "/>
<path style=" stroke:none;fill-rule:nonzero;fill:rgb(6.666667%,77.254902%,5.490196%);fill-opacity:1;" d="M 66.5 55.660156 L 66.769531 55.3125 L 67.128906 55.613281 L 66.859375 55.941406 Z M 66.5 55.660156 "/>
<path style=" stroke:none;fill-rule:nonzero;fill:rgb(6.666667%,77.254902%,5.490196%);fill-opacity:1;" d="M 66.160156 55.089844 L 66.425781 54.746094 L 66.800781 55.042969 L 66.53125 55.375 Z M 66.160156 55.089844 "/>
<path style=" stroke:none;fill-rule:nonzero;fill:rgb(6.666667%,77.254902%,5.490196%);fill-opacity:1;" d="M 65.445312 54.507812 L 65.710938 54.175781 L 66.070312 54.460938 L 65.800781 54.804688 Z M 65.445312 54.507812 "/>
<path style=" stroke:none;fill-rule:nonzero;fill:rgb(6.666667%,77.254902%,5.490196%);fill-opacity:1;" d="M 67.605469 56.242188 L 67.875 55.914062 L 68.246094 56.199219 L 67.976562 56.542969 Z M 67.605469 56.242188 "/>
<path style=" stroke:none;fill-rule:nonzero;fill:rgb(6.666667%,77.254902%,5.490196%);fill-opacity:1;" d="M 69.050781 57.394531 L 69.320312 57.066406 L 69.5 57.199219 L 69.230469 57.53125 Z M 69.050781 57.394531 "/>
</g>
</svg>
