<?xml version="1.0" encoding="UTF-8"?>
<svg xmlns="http://www.w3.org/2000/svg" xmlns:xlink="http://www.w3.org/1999/xlink" width="106px" height="100px" viewBox="0 0 105 100" version="1.1">
<g id="surface1">
<path style=" stroke:none;fill-rule:evenodd;fill:rgb(6.666667%,77.254902%,5.490196%);fill-opacity:1;" d="M 86.304688 91.246094 C 79.140625 92.539062 72.617188 87.6875 71.644531 80.351562 C 71.636719 80.320312 71.628906 80.289062 71.625 80.265625 C 71.609375 80.230469 71.601562 80.203125 71.59375 80.175781 C 71.582031 80.144531 71.570312 80.113281 71.566406 80.089844 C 71.550781 80.054688 71.539062 80.027344 71.527344 80 L 71.527344 77.765625 C 71.539062 77.726562 71.550781 77.683594 71.566406 77.636719 C 71.578125 77.597656 71.589844 77.558594 71.59375 77.519531 C 71.605469 77.472656 71.617188 77.429688 71.625 77.390625 C 71.636719 77.351562 71.644531 77.308594 71.652344 77.265625 C 72.265625 72.890625 74.519531 69.628906 78.410156 67.65625 C 79.800781 66.949219 81.421875 66.707031 82.949219 66.246094 L 85.175781 66.246094 C 86.0625 66.441406 86.964844 66.578125 87.832031 66.851562 C 93.207031 68.539062 96.882812 73.882812 96.53125 79.429688 C 96.152344 85.429688 92.011719 90.214844 86.304688 91.246094 Z M 93.449219 78.910156 C 93.488281 73.734375 89.25 69.421875 84.105469 69.390625 C 78.945312 69.363281 74.675781 73.589844 74.648438 78.773438 C 74.617188 84.019531 78.828125 88.324219 84.007812 88.351562 C 89.125 88.382812 93.421875 84.089844 93.449219 78.910156 Z M 93.449219 78.910156 "/>
<path style=" stroke:none;fill-rule:nonzero;fill:rgb(6.666667%,77.254902%,5.490196%);fill-opacity:1;" d="M 83.960938 71.570312 L 83.960938 73.558594 C 82.601562 73.675781 81.335938 74.136719 80.355469 75.136719 C 79.363281 76.136719 78.894531 77.363281 78.777344 78.785156 L 76.804688 78.785156 C 76.554688 75.070312 80.257812 71.324219 83.960938 71.570312 Z M 83.960938 71.570312 "/>
<path style=" stroke:none;fill-rule:evenodd;fill:rgb(6.666667%,77.254902%,5.490196%);fill-opacity:1;" d="M 22.742188 51.050781 C 22.722656 51.402344 22.730469 51.753906 22.742188 52.148438 C 22.75 52.46875 22.671875 52.726562 22.507812 52.902344 C 22.472656 52.933594 22.4375 52.96875 22.390625 53 C 22.34375 53.027344 22.300781 53.050781 22.253906 53.070312 C 22.203125 53.089844 22.152344 53.105469 22.097656 53.117188 C 22.046875 53.125 21.996094 53.128906 21.941406 53.128906 C 21.554688 53.128906 21.359375 52.949219 21.261719 52.804688 C 21.230469 52.75 21.199219 52.699219 21.175781 52.648438 C 21.15625 52.59375 21.140625 52.539062 21.125 52.480469 C 21.105469 52.429688 21.09375 52.371094 21.085938 52.3125 C 21.085938 52.253906 21.085938 52.199219 21.085938 52.148438 C 21.085938 51.765625 21.085938 50.851562 21.085938 50.46875 C 21.085938 50.40625 21.082031 50.339844 21.066406 50.273438 C 21.054688 50.214844 21.035156 50.152344 21.007812 50.089844 C 20.992188 50.03125 20.960938 49.972656 20.921875 49.921875 C 20.882812 49.871094 20.839844 49.820312 20.796875 49.773438 C 20.78125 49.820312 20.769531 49.863281 20.757812 49.902344 C 20.742188 49.949219 20.734375 49.992188 20.726562 50.039062 C 20.722656 50.078125 20.714844 50.121094 20.707031 50.167969 C 20.703125 50.210938 20.699219 50.257812 20.699219 50.304688 C 20.691406 53.132812 20.6875 55.960938 20.6875 58.785156 L 20.6875 61.03125 C 20.6875 62.460938 20.601562 62.648438 19.375 62.851562 C 19.371094 62.925781 19.359375 62.992188 19.347656 63.058594 C 19.289062 63.410156 19.242188 63.773438 19.046875 64.078125 C 18.910156 64.304688 18.617188 64.332031 18.355469 64.332031 C 18.257812 64.332031 18.152344 64.324219 18.054688 64.324219 C 17.976562 64.3125 17.898438 64.3125 17.832031 64.3125 C 17.167969 64.304688 17.101562 64.089844 16.976562 62.882812 L 9.507812 62.882812 C 9.496094 62.941406 9.484375 62.996094 9.480469 63.050781 C 9.429688 63.402344 9.382812 63.773438 9.1875 64.078125 C 9.03125 64.3125 8.683594 64.34375 8.4375 64.34375 C 8.394531 64.34375 8.347656 64.34375 8.304688 64.34375 C 8.257812 64.335938 8.210938 64.332031 8.167969 64.332031 C 8.121094 64.328125 8.074219 64.324219 8.03125 64.324219 C 7.984375 64.316406 7.941406 64.308594 7.902344 64.304688 C 7.058594 64.207031 7.085938 63.589844 7.105469 63.226562 C 7.113281 63.191406 7.117188 63.164062 7.117188 63.136719 C 7.117188 63.105469 7.117188 63.070312 7.117188 63.039062 C 7.117188 63.007812 7.117188 62.972656 7.117188 62.941406 C 7.109375 62.914062 7.105469 62.886719 7.097656 62.851562 C 7.027344 62.851562 6.875 62.851562 6.796875 62.851562 C 6.039062 62.8125 5.640625 62.410156 5.640625 61.636719 C 5.640625 60.65625 5.640625 59.675781 5.640625 58.695312 C 5.640625 58.695312 5.640625 52.03125 5.640625 49.921875 C 5.640625 49.894531 5.640625 49.867188 5.640625 49.832031 C 5.605469 49.871094 5.574219 49.914062 5.542969 49.960938 C 5.515625 50.007812 5.492188 50.054688 5.472656 50.109375 C 5.453125 50.160156 5.441406 50.210938 5.433594 50.265625 C 5.429688 50.316406 5.425781 50.371094 5.425781 50.421875 C 5.414062 50.65625 5.425781 50.902344 5.425781 51.136719 C 5.425781 51.230469 5.425781 51.320312 5.425781 51.410156 C 5.425781 51.511719 5.425781 51.605469 5.425781 51.695312 C 5.417969 51.789062 5.414062 51.882812 5.414062 51.980469 C 5.410156 52.070312 5.402344 52.164062 5.394531 52.253906 C 5.277344 53.128906 4.746094 53.109375 4.746094 53.109375 L 4.609375 53.117188 C 4.597656 53.117188 4.589844 53.117188 4.578125 53.117188 C 4.074219 53.128906 3.878906 52.8125 3.8125 52.550781 C 3.800781 52.539062 3.800781 52.53125 3.800781 52.511719 C 3.792969 52.488281 3.792969 52.46875 3.792969 52.441406 C 3.785156 52.414062 3.777344 52.390625 3.773438 52.371094 C 3.773438 52.347656 3.773438 52.320312 3.773438 52.292969 C 3.773438 52.273438 3.773438 52.25 3.773438 52.226562 C 3.753906 51.667969 3.753906 51.097656 3.773438 50.539062 C 3.792969 49.667969 4.179688 48.929688 4.929688 48.351562 C 5.386719 48 5.667969 47.65625 5.667969 47.039062 C 5.667969 45.921875 6.5625 45.128906 7.847656 45.128906 L 18.394531 45.128906 C 19.773438 45.128906 20.445312 45.714844 20.71875 47.167969 C 20.777344 47.5 21.046875 47.910156 21.390625 48.1875 C 22.371094 48.960938 22.816406 49.902344 22.742188 51.050781 Z M 10.21875 46.96875 C 10.222656 46.96875 10.234375 46.972656 10.246094 46.980469 C 10.261719 46.980469 10.273438 46.980469 10.285156 46.980469 C 10.292969 46.988281 10.300781 46.988281 10.316406 46.988281 C 10.328125 46.988281 10.339844 46.988281 10.355469 46.988281 C 10.773438 46.96875 11.160156 46.96875 11.550781 46.96875 L 13.171875 46.980469 L 14.847656 46.96875 C 15.246094 46.96875 15.648438 46.972656 16.050781 46.980469 C 16.0625 46.988281 16.078125 46.988281 16.089844 46.988281 C 16.101562 46.988281 16.117188 46.988281 16.128906 46.980469 C 16.140625 46.980469 16.15625 46.980469 16.167969 46.980469 C 16.179688 46.972656 16.195312 46.96875 16.207031 46.960938 C 16.214844 46.941406 16.214844 46.921875 16.214844 46.902344 C 16.222656 46.875 16.226562 46.851562 16.226562 46.832031 C 16.226562 46.8125 16.230469 46.789062 16.234375 46.765625 C 16.234375 46.746094 16.234375 46.722656 16.226562 46.695312 C 16.234375 46.449219 16.214844 46.402344 16.207031 46.382812 C 16.195312 46.375 16.179688 46.371094 16.167969 46.371094 C 16.15625 46.367188 16.140625 46.363281 16.121094 46.363281 C 16.105469 46.363281 16.09375 46.359375 16.082031 46.351562 C 16.066406 46.351562 16.054688 46.355469 16.042969 46.363281 C 15.070312 46.371094 14.117188 46.371094 13.152344 46.371094 C 12.226562 46.371094 11.296875 46.371094 10.363281 46.363281 L 10.355469 46.078125 L 10.355469 46.363281 C 10.339844 46.363281 10.328125 46.363281 10.316406 46.363281 C 10.308594 46.363281 10.300781 46.363281 10.285156 46.363281 C 10.273438 46.363281 10.261719 46.367188 10.246094 46.371094 C 10.234375 46.371094 10.222656 46.375 10.207031 46.382812 C 10.203125 46.402344 10.199219 46.421875 10.199219 46.441406 C 10.199219 46.460938 10.195312 46.484375 10.1875 46.511719 C 10.1875 46.53125 10.1875 46.550781 10.1875 46.570312 C 10.1875 46.589844 10.1875 46.609375 10.1875 46.628906 C 10.1875 46.746094 10.1875 46.929688 10.21875 46.96875 Z M 9.0625 59.765625 C 9.085938 59.769531 9.113281 59.773438 9.140625 59.773438 C 9.164062 59.773438 9.191406 59.769531 9.214844 59.765625 C 9.242188 59.765625 9.269531 59.761719 9.292969 59.753906 C 9.320312 59.75 9.347656 59.742188 9.371094 59.734375 C 9.363281 59.714844 9.363281 59.648438 9.363281 59.628906 C 9.34375 59.519531 9.304688 59.324219 9.265625 59.285156 C 9.109375 59.179688 8.953125 59.078125 8.796875 58.980469 C 8.644531 58.890625 8.488281 58.796875 8.332031 58.707031 C 8.167969 58.621094 8.003906 58.539062 7.835938 58.460938 C 7.675781 58.382812 7.507812 58.308594 7.339844 58.246094 C 7.308594 58.230469 7.277344 58.21875 7.242188 58.207031 C 7.210938 58.191406 7.179688 58.183594 7.144531 58.175781 C 7.113281 58.171875 7.082031 58.164062 7.046875 58.15625 C 7.015625 58.148438 6.984375 58.148438 6.953125 58.148438 C 6.863281 58.148438 6.71875 58.148438 6.71875 58.726562 C 6.71875 59.429688 6.796875 59.53125 7.429688 59.65625 C 7.960938 59.753906 8.527344 59.765625 9.0625 59.765625 Z M 16.207031 61.550781 C 16.214844 61.53125 16.214844 61.507812 16.214844 61.480469 C 16.222656 61.460938 16.226562 61.4375 16.226562 61.410156 C 16.234375 61.386719 16.234375 61.363281 16.234375 61.34375 C 16.234375 61.316406 16.234375 61.289062 16.234375 61.265625 C 16.234375 61.050781 16.214844 60.980469 16.207031 60.96875 C 16.207031 60.96875 16.167969 60.941406 16.042969 60.941406 C 15.089844 60.960938 14.136719 60.960938 13.183594 60.960938 C 12.5625 60.960938 11.949219 60.949219 11.328125 60.949219 L 10.304688 60.949219 C 10.300781 60.949219 10.292969 60.949219 10.285156 60.949219 C 10.28125 60.949219 10.269531 60.949219 10.257812 60.949219 C 10.25 60.957031 10.242188 60.960938 10.238281 60.960938 C 10.230469 60.960938 10.222656 60.964844 10.21875 60.96875 C 10.210938 60.988281 10.207031 61.011719 10.199219 61.03125 C 10.199219 61.054688 10.199219 61.078125 10.199219 61.097656 C 10.191406 61.125 10.1875 61.148438 10.1875 61.167969 C 10.1875 61.1875 10.1875 61.210938 10.1875 61.234375 C 10.1875 61.261719 10.1875 61.289062 10.1875 61.3125 C 10.1875 61.339844 10.1875 61.367188 10.1875 61.390625 C 10.195312 61.425781 10.199219 61.453125 10.199219 61.480469 C 10.207031 61.507812 10.210938 61.53125 10.21875 61.558594 C 10.222656 61.566406 10.234375 61.570312 10.246094 61.570312 C 10.261719 61.570312 10.273438 61.570312 10.285156 61.578125 C 10.292969 61.578125 10.300781 61.578125 10.316406 61.578125 C 10.328125 61.578125 10.339844 61.578125 10.355469 61.578125 C 10.761719 61.558594 11.140625 61.558594 11.53125 61.558594 L 13.164062 61.570312 L 14.855469 61.558594 C 15.25 61.558594 15.648438 61.566406 16.050781 61.578125 C 16.0625 61.578125 16.078125 61.578125 16.089844 61.578125 C 16.101562 61.578125 16.117188 61.578125 16.128906 61.578125 C 16.140625 61.570312 16.15625 61.570312 16.167969 61.570312 C 16.179688 61.5625 16.195312 61.558594 16.207031 61.558594 Z M 16.644531 55.714844 C 16.652344 55.324219 17.285156 55.363281 17.277344 55.363281 C 17.851562 55.304688 17.945312 55.636719 17.945312 55.636719 C 17.964844 55.746094 17.871094 55.726562 17.871094 55.726562 L 17.871094 56.078125 C 17.875 56.078125 17.886719 56.078125 17.898438 56.078125 C 17.910156 56.085938 17.925781 56.089844 17.9375 56.089844 C 17.945312 56.09375 17.953125 56.101562 17.964844 56.109375 C 17.972656 56.113281 17.980469 56.125 17.984375 56.136719 C 18.003906 56.144531 18.023438 56.148438 18.042969 56.15625 C 18.058594 56.164062 18.074219 56.171875 18.09375 56.1875 C 18.105469 56.199219 18.117188 56.210938 18.132812 56.226562 C 18.144531 56.238281 18.15625 56.25 18.160156 56.265625 C 18.394531 56.226562 18.628906 56.175781 18.859375 56.128906 C 19.433594 56 19.6875 55.648438 19.6875 55 C 19.6875 54.109375 19.6875 53.230469 19.6875 52.351562 C 19.6875 51.378906 19.6875 50.40625 19.6875 49.429688 C 19.6875 49 19.511719 48.746094 19.144531 48.636719 C 18.648438 48.488281 18.152344 48.351562 17.683594 48.34375 C 17.042969 48.324219 16.390625 48.324219 15.75 48.324219 C 15.320312 48.324219 13.875 48.324219 13.5625 48.324219 L 13.5625 48.332031 L 13.203125 48.332031 C 12.773438 48.332031 12.347656 48.324219 11.910156 48.324219 C 11.480469 48.324219 11.054688 48.324219 10.625 48.324219 C 9.976562 48.324219 9.332031 48.332031 8.683594 48.351562 C 8.246094 48.363281 7.796875 48.488281 7.359375 48.617188 L 7.039062 48.707031 C 6.835938 48.753906 6.707031 48.871094 6.707031 49.246094 C 6.71875 50.609375 6.71875 51.980469 6.71875 53.351562 L 6.71875 54.851562 C 6.71875 55.824219 6.855469 56.011719 7.769531 56.226562 C 9.710938 56.707031 11.433594 56.929688 13.046875 56.929688 C 13.230469 56.929688 13.410156 56.929688 13.589844 56.929688 C 13.765625 56.925781 13.945312 56.914062 14.125 56.902344 C 14.308594 56.890625 14.484375 56.871094 14.660156 56.851562 C 14.84375 56.832031 15.019531 56.8125 15.195312 56.792969 C 15.566406 56.746094 15.933594 56.675781 16.304688 56.617188 C 16.304688 56.578125 16.3125 56.542969 16.324219 56.511719 C 16.332031 56.46875 16.34375 56.433594 16.363281 56.402344 C 16.386719 56.375 16.414062 56.351562 16.441406 56.324219 C 16.472656 56.296875 16.503906 56.277344 16.539062 56.265625 C 16.539062 56.128906 16.722656 56.070312 16.722656 56.070312 L 16.722656 55.726562 L 16.644531 55.726562 Z M 18.988281 59.65625 C 19.667969 59.511719 19.707031 59.332031 19.707031 58.429688 C 19.707031 58.175781 19.621094 58.175781 19.503906 58.175781 L 19.433594 58.175781 C 18.53125 58.246094 17.722656 58.65625 17.035156 59.382812 C 17.035156 59.382812 17.015625 59.46875 17.003906 59.550781 C 17.003906 59.5625 17.003906 59.574219 17.003906 59.589844 C 17.003906 59.601562 17.003906 59.613281 17.003906 59.628906 C 17.003906 59.640625 17.003906 59.652344 17.003906 59.667969 C 17.003906 59.679688 17.003906 59.691406 17.003906 59.707031 C 17.003906 59.707031 18.054688 59.785156 18.707031 59.707031 C 18.804688 59.6875 18.890625 59.667969 18.96875 59.65625 Z M 18.988281 59.65625 "/>
<path style=" stroke:none;fill-rule:nonzero;fill:rgb(6.666667%,77.254902%,5.490196%);fill-opacity:1;" d="M 16.285156 53.167969 L 15.847656 53.167969 L 16.273438 52.734375 L 18.433594 52.734375 L 18.433594 53.175781 C 18.402344 54.324219 17.363281 54.390625 17.363281 54.390625 C 16.195312 54.285156 16.285156 53.167969 16.285156 53.167969 Z M 16.285156 53.167969 "/>
<path style=" stroke:none;fill-rule:nonzero;fill:rgb(6.666667%,77.254902%,5.490196%);fill-opacity:1;" d="M 18.433594 52.332031 L 16.324219 52.332031 L 15.972656 51.773438 L 18.433594 52.019531 Z M 18.433594 52.332031 "/>
<path style=" stroke:none;fill-rule:nonzero;fill:rgb(6.666667%,77.254902%,5.490196%);fill-opacity:1;" d="M 17.664062 55.109375 L 16.996094 55.109375 C 16.808594 55.078125 16.546875 55.34375 16.546875 55.34375 C 16.460938 55.519531 16.371094 55.402344 16.371094 55.402344 C 16.34375 55.3125 16.1875 55.363281 16.1875 55.363281 C 15.972656 55.5 16.546875 55.746094 16.546875 55.746094 C 16.632812 56.148438 16.410156 56.1875 16.410156 56.1875 C 15.351562 56.089844 15.234375 55.402344 15.234375 55.402344 C 15.507812 54.558594 16.839844 54.6875 16.839844 54.6875 L 17.871094 54.675781 C 19.242188 54.746094 19.335938 55.292969 19.335938 55.292969 C 19.347656 55.929688 18.597656 56.128906 18.597656 56.128906 C 18.042969 56.273438 18.035156 55.882812 18.035156 55.882812 C 18.015625 55.578125 18.402344 55.558594 18.402344 55.558594 C 18.558594 55.3125 18.375 55.371094 18.375 55.371094 C 18.210938 55.332031 18.179688 55.429688 18.179688 55.429688 C 18.0625 55.46875 18.035156 55.382812 18.035156 55.382812 C 17.957031 55.128906 17.664062 55.109375 17.664062 55.109375 Z M 17.664062 55.109375 "/>
<path style=" stroke:none;fill-rule:nonzero;fill:rgb(6.666667%,77.254902%,5.490196%);fill-opacity:1;" d="M 10.578125 53.03125 C 10.441406 52.96875 10.316406 52.882812 10.199219 52.773438 C 10.089844 52.667969 10.003906 52.539062 9.945312 52.390625 C 9.886719 52.253906 9.859375 52.097656 9.847656 51.949219 C 9.847656 51.460938 10.128906 51.019531 10.578125 50.824219 C 11.015625 50.636719 11.53125 50.734375 11.871094 51.078125 C 12.222656 51.421875 12.316406 51.941406 12.132812 52.382812 C 11.949219 52.832031 11.511719 53.128906 11.023438 53.128906 C 10.878906 53.117188 10.722656 53.089844 10.578125 53.03125 Z M 10.578125 53.03125 "/>
<path style=" stroke:none;fill-rule:nonzero;fill:rgb(6.666667%,77.254902%,5.490196%);fill-opacity:1;" d="M 12.851562 54.15625 C 12.867188 54.183594 12.878906 54.210938 12.890625 54.234375 C 12.898438 54.261719 12.90625 54.289062 12.921875 54.3125 C 12.925781 54.339844 12.9375 54.367188 12.949219 54.390625 L 12.980469 54.53125 C 12.726562 54.792969 12.433594 55 12.105469 55.148438 C 11.765625 55.285156 11.414062 55.363281 11.054688 55.363281 C 10.683594 55.363281 10.335938 55.292969 9.996094 55.148438 C 9.664062 55.011719 9.363281 54.804688 9.109375 54.539062 L 9.128906 54.46875 C 9.121094 54.46875 9.121094 54.46875 9.121094 54.46875 C 9.121094 54.464844 9.121094 54.460938 9.121094 54.460938 C 9.121094 54.453125 9.121094 54.449219 9.128906 54.449219 C 9.15625 54.308594 9.203125 54.171875 9.273438 54.039062 C 9.347656 53.910156 9.433594 53.789062 9.539062 53.6875 C 9.640625 53.582031 9.757812 53.492188 9.886719 53.421875 C 10.015625 53.351562 10.152344 53.300781 10.296875 53.273438 C 10.308594 53.269531 10.320312 53.265625 10.324219 53.265625 C 10.332031 53.265625 10.339844 53.265625 10.34375 53.265625 C 10.355469 53.265625 10.367188 53.269531 10.375 53.273438 C 10.378906 53.273438 10.386719 53.273438 10.394531 53.273438 C 10.496094 53.320312 10.605469 53.351562 10.714844 53.371094 C 10.816406 53.390625 10.925781 53.402344 11.035156 53.402344 C 11.144531 53.402344 11.253906 53.390625 11.367188 53.371094 C 11.46875 53.351562 11.574219 53.320312 11.675781 53.273438 C 11.683594 53.273438 11.6875 53.269531 11.695312 53.265625 C 11.707031 53.265625 11.71875 53.265625 11.726562 53.265625 C 11.730469 53.265625 11.738281 53.265625 11.746094 53.265625 C 11.757812 53.265625 11.765625 53.265625 11.773438 53.265625 C 11.882812 53.289062 11.992188 53.328125 12.09375 53.371094 C 12.203125 53.417969 12.304688 53.476562 12.394531 53.550781 C 12.488281 53.613281 12.566406 53.691406 12.640625 53.785156 C 12.710938 53.875 12.773438 53.96875 12.824219 54.070312 C 12.832031 54.09375 12.839844 54.125 12.851562 54.15625 Z M 12.851562 54.15625 "/>
<path style=" stroke:none;fill-rule:nonzero;fill:rgb(6.666667%,77.254902%,5.490196%);fill-opacity:1;" d="M 13.339844 52.765625 C 13.261719 52.730469 13.191406 52.6875 13.132812 52.628906 C 13.078125 52.570312 13.03125 52.5 13 52.421875 C 12.960938 52.34375 12.941406 52.261719 12.941406 52.175781 C 12.941406 51.910156 13.097656 51.667969 13.328125 51.558594 C 13.570312 51.460938 13.855469 51.511719 14.039062 51.695312 C 14.234375 51.882812 14.28125 52.167969 14.183594 52.410156 C 14.078125 52.65625 13.84375 52.8125 13.582031 52.8125 C 13.496094 52.8125 13.417969 52.796875 13.339844 52.765625 Z M 13.339844 52.765625 "/>
<path style=" stroke:none;fill-rule:nonzero;fill:rgb(6.666667%,77.254902%,5.490196%);fill-opacity:1;" d="M 14.574219 53.371094 C 14.582031 53.390625 14.585938 53.410156 14.59375 53.421875 C 14.597656 53.433594 14.605469 53.449219 14.613281 53.460938 C 14.613281 53.480469 14.617188 53.496094 14.621094 53.511719 L 14.640625 53.578125 C 14.503906 53.726562 14.339844 53.832031 14.164062 53.910156 C 13.980469 53.988281 13.785156 54.03125 13.589844 54.039062 C 13.398438 54.039062 13.203125 54 13.019531 53.921875 C 12.84375 53.84375 12.679688 53.726562 12.542969 53.589844 L 12.542969 53.550781 C 12.542969 53.550781 12.542969 53.546875 12.542969 53.539062 C 12.5625 53.460938 12.589844 53.386719 12.628906 53.3125 C 12.667969 53.242188 12.714844 53.175781 12.765625 53.117188 C 12.824219 53.058594 12.886719 53.011719 12.960938 52.980469 C 13.03125 52.941406 13.105469 52.910156 13.183594 52.890625 C 13.191406 52.890625 13.191406 52.890625 13.191406 52.890625 C 13.199219 52.890625 13.207031 52.890625 13.210938 52.890625 C 13.210938 52.890625 13.214844 52.890625 13.222656 52.890625 C 13.230469 52.890625 13.230469 52.890625 13.230469 52.890625 C 13.289062 52.917969 13.347656 52.9375 13.40625 52.949219 C 13.464844 52.957031 13.523438 52.960938 13.582031 52.960938 C 13.648438 52.960938 13.707031 52.957031 13.765625 52.949219 C 13.824219 52.9375 13.878906 52.917969 13.933594 52.890625 C 13.9375 52.890625 13.941406 52.890625 13.941406 52.890625 C 13.949219 52.890625 13.953125 52.890625 13.960938 52.890625 C 13.96875 52.890625 13.972656 52.890625 13.972656 52.890625 C 13.976562 52.890625 13.984375 52.890625 13.992188 52.890625 C 14.046875 52.90625 14.105469 52.925781 14.164062 52.949219 C 14.222656 52.976562 14.277344 53.011719 14.320312 53.050781 C 14.371094 53.089844 14.417969 53.128906 14.457031 53.175781 C 14.496094 53.222656 14.527344 53.273438 14.554688 53.332031 C 14.5625 53.347656 14.566406 53.359375 14.574219 53.371094 Z M 14.574219 53.371094 "/>
<path style=" stroke:none;fill-rule:nonzero;fill:rgb(6.666667%,77.254902%,5.490196%);fill-opacity:1;" d="M 8 52.765625 C 7.921875 52.730469 7.855469 52.6875 7.796875 52.628906 C 7.738281 52.570312 7.695312 52.5 7.660156 52.421875 C 7.621094 52.34375 7.601562 52.261719 7.601562 52.175781 C 7.601562 51.910156 7.757812 51.667969 7.992188 51.558594 C 8.234375 51.460938 8.515625 51.511719 8.703125 51.695312 C 8.894531 51.882812 8.945312 52.167969 8.847656 52.410156 C 8.742188 52.65625 8.507812 52.8125 8.246094 52.8125 C 8.160156 52.8125 8.078125 52.796875 8 52.765625 Z M 8 52.765625 "/>
<path style=" stroke:none;fill-rule:nonzero;fill:rgb(6.666667%,77.254902%,5.490196%);fill-opacity:1;" d="M 9.304688 53.578125 C 9.167969 53.714844 9.011719 53.832031 8.828125 53.910156 C 8.652344 53.988281 8.457031 54.03125 8.253906 54.03125 C 8.058594 54.03125 7.867188 53.988281 7.691406 53.910156 C 7.503906 53.832031 7.339844 53.726562 7.203125 53.578125 L 7.214844 53.550781 C 7.214844 53.542969 7.214844 53.539062 7.214844 53.539062 C 7.214844 53.539062 7.214844 53.535156 7.214844 53.53125 C 7.226562 53.449219 7.253906 53.375 7.292969 53.304688 C 7.332031 53.238281 7.378906 53.175781 7.4375 53.117188 C 7.496094 53.058594 7.558594 53.011719 7.621094 52.96875 C 7.695312 52.929688 7.769531 52.90625 7.855469 52.890625 C 7.855469 52.890625 7.859375 52.890625 7.867188 52.890625 C 7.871094 52.890625 7.875 52.890625 7.875 52.890625 C 7.882812 52.890625 7.886719 52.890625 7.894531 52.890625 C 7.894531 52.890625 7.898438 52.890625 7.902344 52.890625 C 7.957031 52.910156 8.011719 52.929688 8.070312 52.941406 C 8.128906 52.953125 8.1875 52.960938 8.253906 52.960938 C 8.3125 52.960938 8.371094 52.953125 8.429688 52.941406 C 8.488281 52.929688 8.546875 52.910156 8.605469 52.890625 C 8.605469 52.890625 8.605469 52.890625 8.613281 52.890625 C 8.621094 52.890625 8.625 52.890625 8.625 52.890625 C 8.628906 52.890625 8.636719 52.890625 8.644531 52.890625 C 8.644531 52.890625 8.644531 52.890625 8.652344 52.890625 C 8.710938 52.90625 8.769531 52.925781 8.828125 52.949219 C 8.886719 52.976562 8.9375 53.011719 8.984375 53.050781 C 9.035156 53.082031 9.082031 53.125 9.121094 53.175781 C 9.160156 53.222656 9.191406 53.273438 9.214844 53.332031 C 9.222656 53.347656 9.230469 53.359375 9.234375 53.371094 C 9.242188 53.386719 9.25 53.402344 9.253906 53.421875 C 9.261719 53.433594 9.265625 53.449219 9.265625 53.460938 C 9.273438 53.472656 9.277344 53.488281 9.285156 53.5 Z M 9.304688 53.578125 "/>
<path style=" stroke:none;fill-rule:nonzero;fill:rgb(6.666667%,77.254902%,5.490196%);fill-opacity:1;" d="M 93.539062 7.058594 L 91.671875 5.214844 C 92.378906 4.8125 93.070312 4.390625 93.789062 4.011719 C 95.375 3.167969 96.980469 2.351562 98.574219 1.53125 C 99.4375 1.078125 100.304688 0.648438 101.246094 0.167969 C 101.257812 0.421875 101.277344 0.617188 101.277344 0.8125 C 101.269531 23.730469 101.269531 46.644531 101.277344 69.558594 C 101.277344 69.910156 101.1875 70.117188 100.859375 70.285156 C 99.445312 71.015625 98.03125 71.746094 96.621094 72.46875 C 96.542969 72.328125 96.464844 72.183594 96.386719 72.039062 C 96.308594 71.894531 96.226562 71.753906 96.144531 71.617188 C 96.058594 71.472656 95.972656 71.332031 95.890625 71.195312 C 95.800781 71.058594 95.707031 70.921875 95.617188 70.785156 C 95.480469 70.601562 95.347656 70.417969 95.210938 70.234375 C 96.15625 69.746094 97.101562 69.257812 98.046875 68.773438 C 98.476562 68.558594 98.601562 68.3125 98.601562 67.84375 C 98.597656 55.726562 98.59375 43.609375 98.59375 31.488281 C 98.59375 22.835938 98.59375 14.183594 98.59375 5.53125 L 98.59375 4.570312 C 97.308594 5.226562 96.132812 5.84375 94.957031 6.441406 C 94.5 6.667969 94.015625 6.851562 93.539062 7.058594 Z M 93.539062 7.058594 "/>
<path style=" stroke:none;fill-rule:evenodd;fill:rgb(6.666667%,77.254902%,5.490196%);fill-opacity:1;" d="M 91.972656 29.53125 C 91.648438 30 91.300781 30.449219 90.933594 30.882812 C 90.5625 31.320312 90.175781 31.738281 89.773438 32.136719 C 89.367188 32.535156 88.945312 32.914062 88.511719 33.273438 C 88.480469 33.292969 88.449219 33.316406 88.421875 33.34375 C 88.390625 33.363281 88.359375 33.382812 88.328125 33.402344 C 88.292969 33.421875 88.261719 33.441406 88.230469 33.460938 C 88.203125 33.480469 88.175781 33.5 88.140625 33.519531 C 86.167969 31.675781 84.273438 29.804688 83.25 27.226562 C 81.910156 23.851562 84.078125 20.214844 87.65625 19.851562 C 90.914062 19.519531 93.617188 21.96875 93.617188 25.265625 C 93.621094 25.511719 93.609375 25.757812 93.578125 26 C 93.550781 26.25 93.503906 26.488281 93.441406 26.726562 C 93.382812 26.96875 93.304688 27.203125 93.207031 27.429688 C 93.117188 27.660156 93.007812 27.878906 92.886719 28.089844 C 92.605469 28.585938 92.304688 29.066406 91.972656 29.53125 Z M 89.511719 28.363281 C 89.921875 28.1875 90.300781 27.941406 90.609375 27.617188 C 90.921875 27.304688 91.175781 26.921875 91.339844 26.511719 C 91.503906 26.089844 91.582031 25.648438 91.574219 25.195312 C 91.5625 23.832031 90.738281 22.609375 89.484375 22.097656 C 88.230469 21.578125 86.789062 21.882812 85.835938 22.851562 C 84.882812 23.824219 84.601562 25.273438 85.117188 26.53125 C 85.644531 27.792969 86.867188 28.617188 88.21875 28.617188 C 88.667969 28.617188 89.105469 28.53125 89.511719 28.363281 Z M 89.511719 28.363281 "/>
<path style=" stroke:none;fill-rule:nonzero;fill:rgb(6.666667%,77.254902%,5.490196%);fill-opacity:1;" d="M 67.074219 55.078125 C 66.957031 56.039062 66.859375 56.882812 66.761719 57.734375 C 62.398438 57.726562 59.355469 55.449219 56.855469 52.148438 L 58.867188 50.382812 C 60.929688 53.15625 63.410156 55.15625 67.074219 55.078125 Z M 67.074219 55.078125 "/>
<path style=" stroke:none;fill-rule:nonzero;fill:rgb(6.666667%,77.254902%,5.490196%);fill-opacity:1;" d="M 86.441406 34.207031 L 89.015625 34.84375 C 88.179688 38.46875 87.246094 42.050781 85.566406 45.429688 L 83.144531 44.324219 C 84.75 41.109375 85.625 37.6875 86.441406 34.207031 Z M 86.441406 34.207031 "/>
<path style=" stroke:none;fill-rule:nonzero;fill:rgb(6.666667%,77.254902%,5.490196%);fill-opacity:1;" d="M 16.441406 42.707031 C 16.089844 42.636719 16.148438 42.480469 16.234375 42.324219 C 16.996094 40.863281 17.742188 39.390625 18.550781 37.941406 C 18.957031 37.207031 19.484375 36.5 19.980469 35.746094 L 22.253906 36.46875 L 18.519531 43.117188 C 17.871094 42.988281 17.160156 42.84375 16.441406 42.707031 Z M 16.441406 42.707031 "/>
<path style=" stroke:none;fill-rule:nonzero;fill:rgb(6.666667%,77.254902%,5.490196%);fill-opacity:1;" d="M 39.132812 24.410156 C 42.757812 25.832031 45.636719 28.195312 48.078125 31.285156 L 46.082031 33.03125 C 43.894531 30.292969 41.339844 28.117188 38.015625 26.863281 C 38.394531 26.03125 38.753906 25.246094 39.132812 24.410156 Z M 39.132812 24.410156 "/>
<path style=" stroke:none;fill-rule:nonzero;fill:rgb(6.666667%,77.254902%,5.490196%);fill-opacity:1;" d="M 51.363281 36.128906 L 56.253906 45.882812 L 53.878906 47.089844 L 49.007812 37.363281 Z M 51.363281 36.128906 "/>
<path style=" stroke:none;fill-rule:nonzero;fill:rgb(6.666667%,77.254902%,5.490196%);fill-opacity:1;" d="M 72.769531 56.488281 L 71.757812 54.070312 C 75.054688 52.882812 77.980469 51.167969 80.316406 48.570312 L 82.230469 50.429688 C 79.605469 53.285156 76.476562 55.265625 72.769531 56.488281 Z M 72.769531 56.488281 "/>
<path style=" stroke:none;fill-rule:nonzero;fill:rgb(6.666667%,77.254902%,5.490196%);fill-opacity:1;" d="M 32.628906 24.53125 L 33.601562 27.019531 C 30.253906 28.109375 27.398438 29.921875 25.082031 32.53125 L 23.179688 30.65625 C 25.820312 27.785156 28.921875 25.746094 32.628906 24.53125 Z M 32.628906 24.53125 "/>
<path style=" stroke:none;fill-rule:nonzero;fill:rgb(6.666667%,77.254902%,5.490196%);fill-opacity:1;" d="M 70.816406 13.480469 C 68.847656 12.46875 66.878906 11.449219 64.914062 10.429688 C 63.410156 9.648438 61.910156 8.851562 60.414062 8.078125 C 58.285156 6.980469 56.15625 5.890625 54.035156 4.792969 C 53.375 4.460938 52.714844 4.109375 51.957031 3.714844 L 51.957031 34.648438 C 51.429688 34.753906 50.992188 34.792969 50.585938 34.941406 C 50.15625 35.097656 49.757812 35.363281 49.351562 35.578125 L 49.195312 35.511719 C 49.292969 34.1875 49.398438 32.871094 49.484375 31.550781 C 49.496094 31.273438 49.4375 31 49.398438 30.726562 C 49.371094 30.519531 49.292969 30.3125 49.292969 30.109375 C 49.292969 21.808594 49.292969 13.507812 49.300781 5.207031 L 49.300781 3.753906 C 49.027344 3.863281 48.882812 3.910156 48.746094 3.980469 C 46.9375 4.914062 45.128906 5.851562 43.3125 6.792969 C 40.441406 8.296875 37.5625 9.792969 34.679688 11.285156 C 32.136719 12.597656 29.59375 13.90625 27.046875 15.207031 C 26.660156 15.402344 26.503906 15.628906 26.503906 16.089844 C 26.515625 19.128906 26.515625 22.171875 26.503906 25.214844 C 26.492188 25.488281 26.433594 25.863281 26.257812 26.019531 C 25.5 26.6875 24.695312 27.285156 23.847656 27.949219 L 23.847656 27.382812 C 23.847656 23.609375 23.828125 19.824219 23.847656 16.039062 C 23.847656 15.65625 23.730469 15.441406 23.382812 15.265625 C 21.542969 14.34375 19.726562 13.382812 17.898438 12.441406 C 13.589844 10.210938 9.277344 7.988281 4.96875 5.765625 C 4.238281 5.382812 3.492188 5.011719 2.691406 4.609375 L 2.691406 58.390625 L 2.671875 63.949219 L 2.671875 64.6875 C 2.683594 65.792969 2.683594 66.902344 2.664062 68.011719 C 2.652344 68.382812 2.789062 68.570312 3.109375 68.734375 C 7.078125 70.78125 11.042969 72.828125 15.011719 74.882812 C 17.667969 76.269531 20.328125 77.648438 22.992188 79.03125 C 23.246094 79.15625 23.507812 79.265625 23.847656 79.421875 L 23.847656 33.449219 C 24.871094 34.214844 25.054688 34.195312 26.523438 33.15625 L 26.523438 79.382812 C 26.695312 79.3125 26.785156 79.292969 26.863281 79.253906 C 29.625 77.828125 32.382812 76.402344 35.136719 74.96875 C 37.546875 73.726562 39.957031 72.460938 42.371094 71.207031 C 44.507812 70.097656 46.648438 68.988281 48.796875 67.902344 C 49.175781 67.714844 49.292969 67.46875 49.292969 67.050781 C 49.285156 59.257812 49.28125 51.46875 49.28125 43.675781 L 49.28125 41.03125 C 49.429688 41.292969 49.515625 41.441406 49.59375 41.589844 C 50.214844 42.863281 50.796875 44.15625 51.46875 45.402344 C 51.839844 46.109375 51.976562 46.8125 51.976562 47.609375 C 51.945312 53.84375 51.957031 60.070312 51.957031 66.292969 C 51.957031 66.628906 51.925781 66.96875 51.976562 67.292969 C 51.980469 67.347656 51.996094 67.394531 52.015625 67.441406 C 52.035156 67.492188 52.054688 67.539062 52.082031 67.578125 C 52.109375 67.625 52.136719 67.667969 52.167969 67.707031 C 52.207031 67.746094 52.246094 67.777344 52.285156 67.804688 C 52.78125 68.097656 53.308594 68.34375 53.8125 68.609375 C 57.105469 70.328125 60.402344 72.042969 63.710938 73.753906 C 65.835938 74.851562 67.964844 75.949219 70.097656 77.050781 C 70.085938 77.078125 70.078125 77.117188 70.066406 77.15625 C 70.046875 77.230469 70.027344 77.296875 70.007812 77.363281 L 69.960938 77.558594 L 69.960938 80 L 65.808594 77.851562 C 63.3125 76.558594 60.820312 75.265625 58.332031 73.96875 C 55.894531 72.707031 53.441406 71.429688 50.992188 70.1875 C 50.933594 70.160156 50.875 70.140625 50.808594 70.128906 C 50.742188 70.113281 50.679688 70.109375 50.613281 70.109375 C 50.550781 70.109375 50.484375 70.113281 50.417969 70.128906 C 50.355469 70.140625 50.292969 70.160156 50.234375 70.1875 C 46.382812 72.167969 42.554688 74.175781 38.703125 76.15625 C 35.71875 77.707031 32.714844 79.226562 29.722656 80.765625 C 28.359375 81.46875 26.988281 82.167969 25.648438 82.910156 C 25.269531 83.117188 24.996094 83.089844 24.636719 82.902344 C 21.5 81.261719 18.359375 79.625 15.214844 77.988281 C 11.800781 76.210938 8.378906 74.433594 4.957031 72.65625 C 3.492188 71.890625 2.023438 71.128906 0.542969 70.402344 C 0.105469 70.195312 0 69.921875 0 69.46875 C 0.0078125 64.175781 0 58.882812 0 53.589844 L 0 0.148438 C 0.796875 0.550781 1.488281 0.902344 2.179688 1.265625 C 5.222656 2.851562 8.265625 4.449219 11.316406 6.03125 C 13.902344 7.371094 16.5 8.6875 19.085938 10.03125 C 20.933594 10.980469 22.769531 11.921875 24.605469 12.902344 C 25.003906 13.117188 25.296875 13.109375 25.707031 12.902344 C 28.175781 11.597656 30.664062 10.332031 33.144531 9.058594 C 36.851562 7.136719 40.554688 5.21875 44.253906 3.304688 C 46.257812 2.265625 48.25 1.234375 50.246094 0.1875 C 50.527344 0.0390625 50.742188 0.0507812 51.011719 0.195312 C 55.019531 2.289062 59.027344 4.371094 63.039062 6.449219 C 66.15625 8.058594 69.273438 9.664062 72.390625 11.265625 C 73.460938 11.824219 74.550781 12.34375 75.589844 12.929688 C 75.980469 13.148438 76.261719 13.097656 76.601562 12.921875 C 78.285156 12.03125 79.976562 11.15625 81.667969 10.285156 C 84.5625 8.789062 87.460938 7.292969 90.359375 5.804688 C 90.785156 5.578125 91.234375 5.410156 91.671875 5.214844 L 93.539062 7.058594 C 93.503906 7.089844 93.472656 7.125 93.441406 7.15625 C 93.402344 7.183594 93.367188 7.210938 93.332031 7.246094 C 93.292969 7.269531 93.253906 7.296875 93.214844 7.324219 C 93.183594 7.351562 93.148438 7.375 93.109375 7.402344 C 88.074219 10.011719 83.03125 12.609375 77.980469 15.195312 C 77.554688 15.410156 77.390625 15.648438 77.390625 16.148438 C 77.394531 27.074219 77.398438 38 77.398438 48.921875 C 77.398438 49.089844 77.410156 49.324219 77.3125 49.421875 C 76.582031 50.148438 75.695312 50.648438 74.753906 51.175781 C 74.734375 51 74.726562 50.910156 74.726562 50.832031 L 74.726562 22.5 C 74.726562 20.3125 74.734375 18.136719 74.714844 15.949219 C 74.707031 15.746094 74.558594 15.429688 74.382812 15.332031 C 73.207031 14.6875 72.011719 14.089844 70.816406 13.480469 Z M 70.816406 13.480469 "/>
<path style=" stroke:none;fill-rule:nonzero;fill:rgb(6.666667%,77.254902%,5.490196%);fill-opacity:1;" d="M 75.734375 56.84375 C 76.203125 56.726562 76.609375 56.410156 77.046875 56.195312 C 77.082031 56.183594 77.109375 56.171875 77.136719 56.15625 C 77.167969 56.144531 77.199219 56.132812 77.234375 56.128906 C 77.257812 56.113281 77.289062 56.101562 77.320312 56.089844 C 77.351562 56.082031 77.386719 56.070312 77.417969 56.058594 L 77.417969 66.390625 C 77.179688 66.515625 76.941406 66.648438 76.707031 66.792969 C 76.476562 66.929688 76.246094 67.078125 76.019531 67.234375 C 75.796875 67.386719 75.578125 67.542969 75.355469 67.707031 C 75.144531 67.871094 74.933594 68.039062 74.726562 68.214844 C 74.726562 65 74.722656 61.785156 74.714844 58.570312 C 74.707031 57.746094 74.765625 57.078125 75.734375 56.84375 Z M 75.734375 56.84375 "/>
<path style=" stroke:none;fill-rule:nonzero;fill:rgb(6.666667%,77.254902%,5.490196%);fill-opacity:1;" d="M 93.617188 89.273438 C 93.273438 89.601562 92.910156 89.910156 92.527344 90.195312 C 92.152344 90.484375 91.761719 90.75 91.359375 91 C 90.957031 91.242188 90.542969 91.46875 90.117188 91.675781 L 89.667969 91.226562 L 90.960938 90.117188 C 91.214844 89.890625 91.464844 89.6875 91.71875 89.480469 C 92.253906 89.03125 92.757812 88.617188 93.207031 88.15625 C 93.652344 87.707031 94.082031 87.1875 94.539062 86.636719 C 94.753906 86.371094 94.976562 86.097656 95.210938 85.824219 L 96.316406 84.519531 L 96.734375 84.941406 C 96.601562 85.242188 96.449219 85.535156 96.289062 85.824219 C 96.125 86.109375 95.957031 86.390625 95.785156 86.667969 C 95.601562 86.949219 95.414062 87.21875 95.21875 87.480469 C 95.019531 87.742188 94.8125 87.996094 94.597656 88.246094 C 94.285156 88.605469 93.957031 88.949219 93.617188 89.273438 Z M 93.617188 89.273438 "/>
<path style=" stroke:none;fill-rule:nonzero;fill:rgb(6.666667%,77.254902%,5.490196%);fill-opacity:1;" d="M 103.660156 99.226562 C 103.605469 99.265625 103.554688 99.304688 103.503906 99.34375 C 103.449219 99.382812 103.394531 99.421875 103.335938 99.460938 C 103.285156 99.492188 103.230469 99.527344 103.171875 99.558594 C 103.113281 99.589844 103.050781 99.621094 102.988281 99.648438 C 102.941406 99.671875 102.894531 99.695312 102.839844 99.714844 C 102.789062 99.742188 102.738281 99.765625 102.6875 99.785156 C 102.632812 99.804688 102.582031 99.824219 102.53125 99.84375 C 102.480469 99.863281 102.425781 99.878906 102.375 99.890625 L 102.152344 99.890625 C 102.09375 99.898438 102.035156 99.90625 101.976562 99.910156 C 101.917969 99.917969 101.859375 99.921875 101.800781 99.921875 C 101.742188 99.921875 101.683594 99.917969 101.625 99.910156 C 101.566406 99.90625 101.507812 99.898438 101.453125 99.890625 L 101.199219 99.890625 L 101.089844 99.824219 C 100.441406 99.648438 99.703125 99.207031 98.941406 98.292969 C 96.601562 96.011719 94.316406 93.667969 91.992188 91.3125 C 92.789062 90.628906 93.605469 90.011719 94.324219 89.273438 C 95.042969 88.539062 95.675781 87.707031 96.40625 86.851562 C 96.871094 87.332031 97.347656 87.824219 97.835938 88.3125 C 99.285156 89.785156 100.75 91.226562 102.191406 92.707031 C 102.191406 92.707031 102.648438 93.15625 103.191406 93.746094 C 103.230469 93.789062 103.273438 93.835938 103.316406 93.882812 C 103.394531 93.96875 103.472656 94.054688 103.550781 94.148438 C 104.242188 94.921875 104.921875 95.792969 104.902344 96.15625 C 104.902344 96.15625 105.523438 97.851562 103.660156 99.226562 Z M 103.660156 99.226562 "/>
</g>
</svg>
