<?xml version="1.0" encoding="UTF-8"?>
<svg xmlns="http://www.w3.org/2000/svg" xmlns:xlink="http://www.w3.org/1999/xlink" width="94px" height="100px" viewBox="0 0 94 99" version="1.1">
<g id="surface1">
<path style=" stroke:none;fill-rule:nonzero;fill:rgb(6.666667%,77.254902%,5.490196%);fill-opacity:1;" d="M 4.421875 17.554688 C 4.441406 12.15625 8.707031 7.808594 14.109375 7.691406 C 19.628906 7.5625 24.144531 11.960938 24.210938 17.515625 C 24.265625 23.117188 19.96875 27.445312 14.332031 27.453125 C 8.726562 27.464844 4.40625 23.144531 4.421875 17.554688 Z M 4.421875 17.554688 "/>
<path style=" stroke:none;fill-rule:nonzero;fill:rgb(6.666667%,77.254902%,5.490196%);fill-opacity:1;" d="M 67.660156 38.371094 C 67.734375 38.535156 67.761719 38.710938 67.761719 38.894531 C 67.761719 39.066406 67.734375 39.25 67.660156 39.417969 C 67.597656 39.582031 67.496094 39.726562 67.367188 39.855469 L 47.238281 59.875 C 46.980469 60.125 46.632812 60.261719 46.273438 60.261719 C 45.914062 60.261719 45.570312 60.113281 45.3125 59.867188 C 45.054688 59.609375 44.917969 59.261719 44.90625 58.90625 C 44.90625 58.546875 45.046875 58.207031 45.304688 57.953125 L 65.429688 37.933594 C 65.558594 37.804688 65.707031 37.703125 65.875 37.636719 C 66.039062 37.566406 66.214844 37.527344 66.398438 37.527344 C 66.582031 37.527344 66.757812 37.566406 66.925781 37.636719 C 67.089844 37.703125 67.238281 37.804688 67.367188 37.933594 C 67.496094 38.050781 67.597656 38.207031 67.660156 38.371094 Z M 67.660156 38.371094 "/>
<path style=" stroke:none;fill-rule:nonzero;fill:rgb(6.666667%,77.254902%,5.490196%);fill-opacity:1;" d="M 64.425781 89.789062 C 66.269531 93.042969 65.605469 96.507812 62.769531 98.15625 C 59.78125 99.890625 56.722656 98.925781 54.714844 95.570312 C 51.570312 90.292969 48.382812 85.039062 45.367188 79.6875 C 44.347656 77.863281 43.101562 77.175781 41.039062 77.136719 C 36.117188 77.0625 31.214844 76.707031 26.300781 76.542969 C 21.011719 76.359375 18.070312 74.371094 16.992188 69.289062 C 14.976562 59.730469 13.234375 50.125 11.472656 40.507812 C 10.875 37.234375 11.769531 34.421875 14.828125 32.578125 C 17.980469 30.679688 20.917969 31.203125 23.710938 33.367188 C 23.792969 33.441406 23.90625 33.484375 23.988281 33.558594 C 30.355469 39.296875 37.535156 41.917969 46.179688 39.617188 C 48.878906 38.902344 51.460938 39.65625 53.046875 42.257812 C 54.511719 44.660156 53.867188 47.933594 51.820312 49.527344 L 51.839844 49.527344 C 50.695312 50.671875 45.976562 51.289062 41.691406 51.609375 C 39.195312 51.910156 36.6875 52.09375 34.125 51.964844 L 34.117188 51.964844 C 33.667969 51.941406 33.222656 51.90625 32.78125 51.863281 C 32.335938 51.820312 31.890625 51.769531 31.445312 51.710938 C 31 51.648438 30.5625 51.574219 30.125 51.488281 C 29.691406 51.402344 29.253906 51.308594 28.816406 51.203125 C 29.480469 54.066406 29.949219 56.84375 30.855469 59.472656 C 31.148438 60.316406 32.511719 61.207031 33.5 61.34375 C 37.113281 61.855469 40.769531 62.09375 44.417969 62.378906 C 47.921875 62.644531 50.273438 64.351562 51.949219 67.457031 C 56.003906 74.957031 60.242188 82.363281 64.425781 89.789062 Z M 64.425781 89.789062 "/>
<path style=" stroke:none;fill-rule:nonzero;fill:rgb(6.666667%,77.254902%,5.490196%);fill-opacity:1;" d="M 41.976562 86.421875 C 41.738281 88.835938 40.390625 90.035156 37.617188 90.21875 L 37.628906 90.238281 L 37.371094 90.226562 C 37 90.246094 36.613281 90.246094 36.199219 90.226562 C 34.964844 90.171875 33.738281 90.082031 32.503906 89.988281 L 29.351562 89.832031 L 29.351562 89.859375 C 24.789062 89.511719 20.226562 89.253906 15.683594 88.796875 C 8.746094 88.082031 5.953125 85.855469 4.78125 79.109375 C 2.984375 68.703125 1.605469 58.226562 0.109375 47.765625 C -0.285156 44.980469 0.996094 42.992188 3.851562 42.625 C 6.625 42.265625 8.027344 43.953125 8.40625 46.59375 C 9.667969 55.246094 10.855469 63.917969 12.238281 72.554688 C 13.160156 78.375 15.132812 80.0625 21.105469 80.5 C 26.347656 80.878906 31.601562 81.070312 36.84375 81.5 C 40.695312 81.8125 42.28125 83.472656 41.976562 86.421875 Z M 41.976562 86.421875 "/>
<path style=" stroke:none;fill-rule:nonzero;fill:rgb(6.666667%,77.254902%,5.490196%);fill-opacity:1;" d="M 63.488281 10.945312 L 51.699219 25.097656 C 48.832031 24.109375 45.996094 23.074219 43.175781 21.972656 C 42.335938 21.640625 41.324219 19.828125 41.554688 19.03125 C 42.761719 14.851562 44.289062 10.761719 45.820312 6.691406 C 46.058594 6.066406 46.917969 5.675781 47.582031 5.097656 C 53 7.078125 58.253906 8.992188 63.488281 10.945312 Z M 63.488281 10.945312 "/>
<path style=" stroke:none;fill-rule:nonzero;fill:rgb(6.666667%,77.254902%,5.490196%);fill-opacity:1;" d="M 38.207031 4.804688 C 36.863281 8.734375 35.628906 12.3125 34.328125 16.105469 C 42.953125 14.152344 43.929688 11.476562 38.207031 4.804688 Z M 38.207031 4.804688 "/>
<path style=" stroke:none;fill-rule:nonzero;fill:rgb(6.666667%,77.254902%,5.490196%);fill-opacity:1;" d="M 67.246094 19.972656 C 66.984375 19.789062 66.71875 19.601562 66.453125 19.40625 C 66.195312 19.214844 65.941406 19.019531 65.6875 18.820312 C 65.445312 18.617188 65.199219 18.410156 64.953125 18.195312 L 66.160156 16.785156 C 66.769531 17.296875 67.375 17.792969 68.019531 18.25 C 68.605469 18.679688 69.210938 19.074219 69.835938 19.433594 C 70.464844 19.792969 71.109375 20.121094 71.773438 20.414062 C 72.433594 20.703125 73.109375 20.957031 73.800781 21.183594 C 74.488281 21.402344 75.183594 21.585938 75.890625 21.734375 C 77.917969 22.148438 79.890625 21.917969 81.824219 21.257812 C 82.351562 21.082031 82.730469 21.09375 83.144531 21.460938 C 83.503906 21.769531 83.910156 22.027344 84.3125 22.503906 C 83.117188 22.84375 81.9375 23.273438 80.71875 23.511719 C 76.046875 24.429688 71.917969 22.980469 68.046875 20.503906 C 67.777344 20.335938 67.511719 20.15625 67.246094 19.972656 Z M 67.246094 19.972656 "/>
<path style=" stroke:none;fill-rule:nonzero;fill:rgb(6.666667%,77.254902%,5.490196%);fill-opacity:1;" d="M 93.363281 15.894531 C 91.980469 17.207031 90.515625 18.425781 89.089844 19.691406 C 88.8125 19.9375 88.582031 19.929688 88.296875 19.699219 C 87.9375 19.40625 87.558594 19.148438 87.226562 18.910156 C 88.664062 17.671875 90.046875 16.492188 91.429688 15.300781 C 91.53125 15.207031 91.613281 15.097656 91.789062 14.90625 C 91.03125 14.226562 90.3125 13.546875 89.546875 12.90625 C 86.800781 10.585938 83.695312 8.964844 80.167969 8.203125 C 77.882812 7.710938 75.671875 8.066406 73.476562 8.835938 C 73.21875 8.929688 72.980469 9.058594 72.722656 9.15625 L 75.082031 6.40625 C 78.582031 5.710938 81.992188 6.308594 85.308594 7.9375 C 88.378906 9.449219 91.03125 11.503906 93.375 13.980469 C 94.136719 14.785156 94.175781 15.144531 93.363281 15.894531 Z M 93.363281 15.894531 "/>
<path style=" stroke:none;fill-rule:evenodd;fill:rgb(6.666667%,77.254902%,5.490196%);fill-opacity:1;" d="M 90.230469 23.347656 C 90.195312 23.402344 90.152344 23.457031 90.109375 23.511719 C 90.066406 23.574219 90.023438 23.632812 89.980469 23.6875 C 89.9375 23.734375 89.894531 23.789062 89.84375 23.84375 C 89.800781 23.898438 89.753906 23.949219 89.707031 24 C 89.410156 24.300781 89.078125 24.347656 88.730469 24.097656 C 87.03125 22.90625 85.34375 21.710938 83.660156 20.503906 C 83.550781 20.433594 83.394531 20.285156 83.410156 20.195312 C 83.503906 19.609375 82.996094 19.480469 82.691406 19.203125 C 82.386719 18.929688 82.175781 18.992188 81.882812 19.257812 C 78.96875 21.878906 74.398438 21 72.703125 17.488281 C 70.757812 13.4375 73.863281 9.175781 77.898438 9.128906 C 81.855469 9.085938 85.050781 13.152344 83.328125 17.261719 C 83.246094 17.445312 83.179688 17.628906 83.089844 17.855469 C 83.640625 18.140625 83.972656 18.828125 84.765625 18.582031 C 84.886719 18.542969 85.089844 18.71875 85.234375 18.820312 C 86.832031 19.9375 88.425781 21.0625 90.019531 22.191406 C 90.535156 22.558594 90.582031 22.808594 90.230469 23.347656 Z M 82.296875 14.960938 C 82.296875 12.550781 80.351562 10.570312 77.964844 10.558594 C 75.605469 10.542969 73.699219 12.550781 73.605469 14.941406 C 73.523438 17.011719 75.429688 19.3125 77.957031 19.3125 C 80.507812 19.3125 82.480469 16.996094 82.296875 14.960938 Z M 82.296875 14.960938 "/>
<path style=" stroke:none;fill-rule:nonzero;fill:rgb(6.666667%,77.254902%,5.490196%);fill-opacity:1;" d="M 79.925781 14.96875 C 79.925781 16.152344 79.125 16.929688 77.910156 16.921875 C 76.765625 16.902344 75.992188 16.097656 75.992188 14.921875 C 76 13.804688 76.847656 12.933594 77.957031 12.925781 C 79.070312 12.914062 79.9375 13.8125 79.925781 14.96875 Z M 79.925781 14.96875 "/>
<path style=" stroke:none;fill-rule:nonzero;fill:rgb(6.666667%,77.254902%,5.490196%);fill-opacity:1;" d="M 74.40625 0.414062 C 74.839844 -0.0820312 75.585938 -0.136719 76.085938 0.285156 L 76.09375 0.292969 C 76.589844 0.714844 76.648438 1.457031 76.222656 1.953125 L 52.546875 29.488281 C 52.125 29.984375 51.378906 30.046875 50.878906 29.625 L 50.871094 29.617188 C 50.371094 29.195312 50.316406 28.445312 50.742188 27.949219 Z M 74.40625 0.414062 "/>
</g>
</svg>
