<?xml version="1.0" encoding="utf-8"?>
<!-- Generator: Adobe Illustrator 24.0.1, SVG Export Plug-In . SVG Version: 6.00 Build 0)  -->
<svg version="1.1" id="Layer_1" xmlns="http://www.w3.org/2000/svg" xmlns:xlink="http://www.w3.org/1999/xlink" x="0px" y="0px"
	 viewBox="0 0 500 500" style="enable-background:new 0 0 500 500;" xml:space="preserve">
<style type="text/css">
	.st0{fill:#FFFFFF;}
</style>
<title>02</title>
<g>
	<path class="st0" d="M401.3,381.5c2.9-26.1,0.8-52.5-6.2-77.9c-6.7-24.5-10.3-49.7-15.6-74.6c-2.1-10-2.8-21.9-8.8-29
		c-12.9-15.5-22.8-31-23.3-51.9c-0.1-4.3-5.4-11.6-9-12.1c-8.1-1.1-16.8,2.1-18.9,11.6c-4.3,19.5-3.6,39.8,2.2,59
		c3.3,11.3,7.5,23.8,5.8,34.9c-6.8,46-15.8,91.7-24.1,138.3H164.1c2.2,3.4,3.1,5.4,4.5,7c31.3,35.3,49.1,80.7,84.9,112.5h164.2
		C401,461.6,396.7,422.5,401.3,381.5z"/>
	<path class="st0" d="M127.8,292.8c-8.3-6.5-20.7-6.1-25.7,0.9c-9.8,13.6-9.5,25.2,1.5,32.9c6.2,4.4,13.1,7.8,18.4,10.9
		c3.1-5.3,5.5-10.3,8.7-14.7C137.4,313.8,136.2,299.3,127.8,292.8z"/>
	<path class="st0" d="M178.4,133.7c7.5-15.2,14-26.6,18.9-38.7c3.4-8.2,0.7-16.1-6.8-21.5c-8.1-5.8-16.5-5.7-24.6,0
		c-7.4,5.3-10.7,13-7.2,21.3C163.9,107.1,170.7,118.7,178.4,133.7z M177.9,77c7.9-0.3,12.6,4.9,13.7,12.8
		c-0.7,8.3-5.3,13.4-13.3,13.5s-13-5.3-13-13.4C165.3,82.2,170.6,77.3,177.9,77z"/>
	<path class="st0" d="M300.6,209.7c-14.9-10.3-30.4-10-45.3,0.1c-13.7,9.2-19.6,22.9-13.2,37.4c9.5,21.6,22,42,36.1,68.3
		c13.8-26.7,25.7-46.8,34.8-68C319.2,233,314.3,219.1,300.6,209.7z M278.1,262c-14.9,0.1-24-9.4-23.9-23.6
		c0.1-13.6,9.8-22.2,23.1-22.6c14.6-0.5,23.3,8.5,25.3,22.5C301.3,253,292.7,262,278.1,262z"/>
	<path class="st0" d="M122.2,213.2l0.3-37.9c0-0.3,0-0.6,0-0.9v-1.9l-0.1,0.1c-0.7-8-5.8-10.6-14.5-10.6c-2.9,0-5.9-0.3-8.8-0.1
		c-15.3,1.4-20.8,11.9-13.7,25.6C92.9,201.9,107.1,206.2,122.2,213.2z"/>
	<path class="st0" d="M99.2,252.3c1.7,1.1,3.4,2.2,5.2,3.1l0,0l0.5,0.3c0.9,0.5,1.8,0.9,2.8,1.4l15.4,7.7l-0.6-37.9
		c-0.4-3.4-4.6-5.6-6.8-6.6c-0.4-0.2-0.9-0.4-1.4-0.5c-7.3-1.2-15.7-3.7-20.5,5.4C89.4,233.7,91.5,247,99.2,252.3z"/>
	<path class="st0" d="M118.7,150.2L118.7,150.2c0.2,0.1,0.3,0.2,0.5,0.2c0.4,0.2,0.7,0.3,1.1,0.5v-0.1c1.1,0.3,2.2,0.6,2.2,0.6
		v-32.6h-2.2c-7.3,0.1-14.5-0.9-16.3,8C102.3,134.9,109.7,145.9,118.7,150.2z"/>
	<path class="st0" d="M287,357.6c3.4-10,5.8-20.3,9-31.9h-99.7v-68.3h30.9V90.4h87.5v29.5l0,0v6.4c2.5-2.1,7.7-2.8,7.7-2.8v-13l0,0
		c0.2-23.6-0.8-47.3,0.5-70.8c1-18-5.3-30.5-20.5-39.1h-142c-17,7-23.9,19.7-22.4,37.7c0.4,5.1,0.1,10.3,0.1,15.5
		c0,71.8-0.1,143.7,0.3,215.5l0,0v20.1l8.8-3.4V162.8h63.5v79.9h-30.8v83.2c-9.3,0-17.7-0.2-26.1,0s-12.6,7.1-12.6,19.5
		c-0.1,8.8,0.3,16.7,12.3,16.7c42.1-0.1,84.3,0,126.4-0.2C282.3,361.9,286.3,359.7,287,357.6z M227.3,43.3h86.1v30.9h-86.1V43.3z
		 M210.4,146h-62.8V43.2h62.8V146z"/>
</g>
</svg>
