<?xml version="1.0" encoding="utf-8"?>
<!-- Generator: Adobe Illustrator 24.0.1, SVG Export Plug-In . SVG Version: 6.00 Build 0)  -->
<svg version="1.1" id="Layer_1" xmlns="http://www.w3.org/2000/svg" xmlns:xlink="http://www.w3.org/1999/xlink" x="0px" y="0px"
	 viewBox="0 0 500 500" style="enable-background:new 0 0 500 500;" xml:space="preserve">
<style type="text/css">
	.st0{fill:#FFFFFF;}
</style>
<title>01</title>
<g>
	<path class="st0" d="M116.9,401.3l-10.3-4.1l7.4-18.3v-8.4h3.1v0.6L250.8,37.9C233.6,34.8,221,19.8,221,2.3H61.2
		c0,20-16.2,36.2-36.2,36.2c0,0,0,0,0,0v371.8c20,0,36.2,16.2,36.2,36.2c0,0,0,0,0,0h71l-5.5-2.2l4.1-10.2
		C136,421.2,129.8,406.5,116.9,401.3z M31.4,379.9h-3.1v-9.5h3.1L31.4,379.9z M37.1,379.9H34v-9.5h3.1L37.1,379.9z M42.8,379.9h-3.1
		v-9.5h3.1L42.8,379.9z M48.5,379.9h-3.1v-9.5h3.1L48.5,379.9z M54.2,379.9h-3.1v-9.5h3.1L54.2,379.9z M59.9,379.9h-3.1v-9.5h3.1
		V379.9z M111.4,379.9h-3.1v-9.5h3.1V379.9z M184.4,59.2h10.9v85.5h-10.9L184.4,59.2z M164.9,59.2h10.9v85.5h-10.9L164.9,59.2z
		 M145.4,59.2h10.9v85.5h-10.9L145.4,59.2z M125.9,59.2h10.9v85.5h-10.9L125.9,59.2z M86.9,59.2h10.9v85.5H87L86.9,59.2z
		 M65.7,379.9h-3.1v-9.5h3.1V379.9z M71.4,379.9h-3.1v-9.5h3.1V379.9z M77.1,379.9H74v-9.5h3.1L77.1,379.9z M82.8,379.9h-3.1v-9.5
		h3.1V379.9z M88.5,379.9h-3.1v-9.5h3.1V379.9z M94.2,379.9h-3.1v-9.5h3.1V379.9z M100,379.9h-3.1v-9.5h3.2L100,379.9z M105.7,379.9
		h-3.1v-9.5h3.1V379.9z M106.5,59.2h10.9v85.5h-10.9L106.5,59.2z"/>
	<path class="st0" d="M454.9,85.4L306.6,25.9C299.1,44.5,278,53.5,259.5,46L121,391.1c18.6,7.5,27.6,28.6,20.1,47.1l148.3,59.5
		c7.5-18.6,28.6-27.6,47.1-20.1l11.3-28.2l3.5-8.8L475,132.6C456.4,125.1,447.4,104,454.9,85.4C454.9,85.4,454.9,85.4,454.9,85.4z
		 M373.6,114.1l-31.9,79.4l-10.1-4.1l31.9-79.4L373.6,114.1z M355.6,106.9l-31.9,79.4l-10.1-4.1l31.9-79.4L355.6,106.9z M337.5,99.6
		L305.6,179l-10.1-4.1l31.9-79.4L337.5,99.6z M309.3,88.3l10.1,4.1l-31.9,79.4l-10.1-4.1L309.3,88.3z M135.3,364.1l3.5-8.8l2.9,1.2
		l-3.5,8.8L135.3,364.1z M143.5,367.4l-2.9-1.2l3.5-8.8l2.9,1.2L143.5,367.4z M145.9,368.4l3.5-8.8l2.9,1.2l-3.5,8.8L145.9,368.4z
		 M151.2,370.5l3.5-8.8l2.9,1.2l-3.5,8.8L151.2,370.5z M156.5,372.6l3.5-8.8l2.9,1.2l-3.5,8.8L156.5,372.6z M161.8,374.8l3.5-8.8
		l2.9,1.2l-3.5,8.8L161.8,374.8z M167.1,376.9l3.5-8.8l2.9,1.2L170,378L167.1,376.9z M172.4,379l3.5-8.8l2.9,1.2l-3.5,8.8L172.4,379
		z M177.8,381.2l3.5-8.8l2.9,1.2l-3.5,8.8L177.8,381.2z M183.1,383.3l3.5-8.8l2.9,1.2l-3.5,8.7L183.1,383.3z M188.4,385.4l3.5-8.8
		l2.9,1.2l-3.5,8.8L188.4,385.4z M193.7,387.5l3.5-8.8l2.9,1.2l-3.5,8.8L193.7,387.5z M199,389.7l3.5-8.8l2.9,1.2l-3.5,8.8
		L199,389.7z M204.3,391.8l3.5-8.8l2.9,1.2l-3.5,8.8L204.3,391.8z M209.6,393.9l3.5-8.8l2.9,1.2l-3.5,8.7L209.6,393.9z M214.9,396.1
		l3.5-8.8l2.9,1.2l-3.5,8.8L214.9,396.1z M220.2,398.2l3.5-8.8l2.9,1.2l-3.5,8.8L220.2,398.2z M225.5,400.3l3.5-8.8l2.9,1.2
		l-3.5,8.8L225.5,400.3z M230.8,402.4l3.5-8.8l2.9,1.2l-3.5,8.8L230.8,402.4z M236.1,404.6l3.5-8.8l2.9,1.2l-3.5,8.7L236.1,404.6z
		 M241.4,406.7l3.5-8.8l2.9,1.2l-3.5,8.8L241.4,406.7z M246.7,408.8l3.5-8.8l2.9,1.2l-3.5,8.8L246.7,408.8z M252,411l3.5-8.8
		l2.9,1.2l-3.5,8.8L252,411z M257.3,413.1l3.5-8.8l2.9,1.2l-3.5,8.8L257.3,413.1z M262.6,415.2l3.5-8.8l2.9,1.2l-3.5,8.8
		L262.6,415.2z M267.9,417.3l3.5-8.8l2.9,1.2l-3.5,8.8L267.9,417.3z M273.2,419.5l3.5-8.8l2.9,1.2l-3.5,8.8L273.2,419.5z
		 M278.5,421.6l3.5-8.8l2.9,1.2l-3.5,8.8L278.5,421.6z M283.8,423.7l3.5-8.8l2.9,1.2l-3.5,8.8L283.8,423.7z M289.1,425.9l3.5-8.8
		l2.9,1.2L292,427L289.1,425.9z M294.4,428l3.5-8.8l2.9,1.2l-3.5,8.8L294.4,428z M299.7,430.1l3.5-8.8l2.9,1.2l-3.5,8.8L299.7,430.1
		z M305,432.2l3.5-8.8l2.9,1.2l-3.5,8.7L305,432.2z M310.4,434.4l3.5-8.8l2.9,1.2l-3.5,8.8L310.4,434.4z M315.7,436.5l3.5-8.8
		l2.9,1.2l-3.5,8.8L315.7,436.5z M321,438.6l3.5-8.8l2.9,1.2l-3.5,8.8L321,438.6z M326.3,440.8l3.5-8.8l2.9,1.2l-3.5,8.8
		L326.3,440.8z M334.5,444l-2.9-1.2l3.5-8.8l2.9,1.2L334.5,444z M336.9,445l3.5-8.8l2.9,1.2l-3.5,8.8L336.9,445z M345.1,448.3
		l-2.9-1.2l3.5-8.8l2.9,1.2L345.1,448.3z M349.7,196.8l31.9-79.4l10.1,4.1l-31.9,79.4L349.7,196.8z M377.9,208l-10.1-4l31.9-79.4
		l10.1,4.1L377.9,208z"/>
</g>
</svg>
