<?xml version="1.0" encoding="UTF-8"?>
<svg xmlns="http://www.w3.org/2000/svg" xmlns:xlink="http://www.w3.org/1999/xlink" width="100px" height="100px" viewBox="0 0 100 100" version="1.1">
<g id="surface1">
<path style=" stroke:none;fill-rule:nonzero;fill:rgb(6.666667%,77.254902%,5.490196%);fill-opacity:1;" d="M 80.09375 76.15625 C 80.675781 70.960938 80.261719 65.707031 78.871094 60.667969 C 77.542969 55.804688 76.832031 50.777344 75.765625 45.839844 C 75.335938 43.859375 75.210938 41.496094 74.019531 40.066406 C 71.460938 36.980469 69.476562 33.902344 69.378906 29.746094 C 69.359375 28.886719 68.304688 27.429688 67.582031 27.335938 C 65.964844 27.121094 64.230469 27.746094 63.816406 29.652344 C 62.953125 33.535156 63.101562 37.578125 64.246094 41.390625 C 64.90625 43.640625 65.742188 46.121094 65.410156 48.332031 C 64.046875 57.484375 62.273438 66.574219 60.621094 75.84375 L 32.90625 75.84375 C 33.335938 76.515625 33.519531 76.910156 33.800781 77.226562 C 40.027344 84.238281 43.570312 93.269531 50.6875 99.605469 L 83.339844 99.605469 C 80.03125 92.097656 79.179688 84.304688 80.09375 76.15625 Z M 80.09375 76.15625 "/>
<path style=" stroke:none;fill-rule:nonzero;fill:rgb(6.666667%,77.254902%,5.490196%);fill-opacity:1;" d="M 25.703125 58.5 C 24.054688 57.207031 21.589844 57.296875 20.589844 58.6875 C 18.644531 61.390625 18.707031 63.703125 20.878906 65.226562 C 22.117188 66.09375 23.480469 66.777344 24.546875 67.402344 C 25.164062 66.351562 25.640625 65.355469 26.28125 64.480469 C 27.59375 62.683594 27.355469 59.804688 25.703125 58.5 Z M 25.703125 58.5 "/>
<path style=" stroke:none;fill-rule:nonzero;fill:rgb(6.666667%,77.254902%,5.490196%);fill-opacity:1;" d="M 35.75 26.863281 C 37.246094 23.84375 38.527344 21.566406 39.511719 19.164062 C 40.179688 17.539062 39.644531 15.964844 38.167969 14.894531 C 36.5625 13.734375 34.882812 13.769531 33.277344 14.902344 C 31.792969 15.949219 31.15625 17.496094 31.847656 19.128906 C 32.878906 21.574219 34.226562 23.882812 35.75 26.863281 Z M 35.648438 15.589844 C 37.222656 15.53125 38.160156 16.554688 38.378906 18.140625 C 38.242188 19.796875 37.316406 20.816406 35.742188 20.824219 C 34.136719 20.832031 33.148438 19.765625 33.15625 18.152344 C 33.160156 16.617188 34.210938 15.648438 35.648438 15.589844 Z M 35.648438 15.589844 "/>
<path style=" stroke:none;fill-rule:nonzero;fill:rgb(6.666667%,77.254902%,5.490196%);fill-opacity:1;" d="M 60.0625 41.976562 C 57.109375 39.933594 54.011719 39.996094 51.058594 41.988281 C 48.332031 43.828125 47.15625 46.542969 48.425781 49.421875 C 50.324219 53.714844 52.804688 57.773438 55.613281 63.011719 C 58.363281 57.707031 60.722656 53.699219 62.535156 49.480469 C 63.765625 46.621094 62.78125 43.855469 60.0625 41.976562 Z M 55.589844 52.394531 C 52.636719 52.410156 50.820312 50.535156 50.832031 47.695312 C 50.84375 45 52.777344 43.289062 55.429688 43.195312 C 58.332031 43.089844 60.0625 44.894531 60.457031 47.675781 C 60.199219 50.59375 58.5 52.378906 55.589844 52.394531 Z M 55.589844 52.394531 "/>
<path style=" stroke:none;fill-rule:nonzero;fill:rgb(6.666667%,77.254902%,5.490196%);fill-opacity:1;" d="M 24.574219 42.675781 L 24.636719 35.132812 C 24.636719 35.070312 24.636719 35.015625 24.636719 34.960938 L 24.636719 34.589844 L 24.621094 34.605469 C 24.492188 33.015625 23.460938 32.496094 21.746094 32.5 C 21.160156 32.5 20.574219 32.4375 19.996094 32.488281 C 16.953125 32.765625 15.851562 34.863281 17.269531 37.582031 C 18.757812 40.433594 21.574219 41.296875 24.574219 42.675781 Z M 24.574219 42.675781 "/>
<path style=" stroke:none;fill-rule:nonzero;fill:rgb(6.666667%,77.254902%,5.490196%);fill-opacity:1;" d="M 20.011719 50.464844 C 20.34375 50.6875 20.691406 50.894531 21.046875 51.078125 L 21.152344 51.132812 C 21.332031 51.226562 21.515625 51.316406 21.707031 51.410156 L 24.769531 52.941406 L 24.644531 45.40625 C 24.566406 44.722656 23.738281 44.289062 23.296875 44.105469 C 23.210938 44.054688 23.121094 44.019531 23.023438 44 C 21.570312 43.765625 19.910156 43.261719 18.949219 45.074219 C 18.046875 46.757812 18.46875 49.402344 20.011719 50.464844 Z M 20.011719 50.464844 "/>
<path style=" stroke:none;fill-rule:nonzero;fill:rgb(6.666667%,77.254902%,5.490196%);fill-opacity:1;" d="M 23.890625 30.152344 C 23.914062 30.164062 23.949219 30.179688 23.992188 30.195312 C 24.0625 30.226562 24.132812 30.257812 24.207031 30.285156 L 24.207031 30.265625 C 24.417969 30.328125 24.644531 30.386719 24.644531 30.386719 L 24.644531 23.90625 L 24.207031 23.90625 C 22.765625 23.933594 21.324219 23.730469 20.964844 25.492188 C 20.628906 27.109375 22.089844 29.300781 23.890625 30.152344 Z M 23.890625 30.152344 "/>
<path style=" stroke:none;fill-rule:nonzero;fill:rgb(6.666667%,77.254902%,5.490196%);fill-opacity:1;" d="M 57.363281 71.410156 C 58.035156 69.425781 58.523438 67.378906 59.160156 65.070312 L 39.3125 65.070312 L 39.3125 51.488281 L 45.464844 51.488281 L 45.464844 18.25 L 62.851562 18.25 L 62.851562 25.398438 C 63.34375 24.972656 64.386719 24.839844 64.386719 24.839844 L 64.386719 22.261719 C 64.429688 17.5625 64.21875 12.855469 64.480469 8.175781 C 64.679688 4.589844 63.417969 2.117188 60.398438 0.390625 L 32.15625 0.390625 C 28.785156 1.773438 27.398438 4.316406 27.695312 7.890625 C 27.777344 8.910156 27.71875 9.945312 27.71875 10.976562 C 27.71875 25.261719 27.707031 39.550781 27.773438 53.835938 L 27.773438 57.832031 L 29.527344 57.15625 L 29.527344 32.660156 L 42.160156 32.660156 L 42.160156 48.558594 L 36.035156 48.558594 L 36.035156 65.101562 C 34.195312 65.101562 32.523438 65.0625 30.851562 65.109375 C 29.179688 65.160156 28.359375 66.527344 28.332031 68.980469 C 28.320312 70.71875 28.402344 72.296875 30.769531 72.292969 C 39.152344 72.28125 47.53125 72.304688 55.917969 72.253906 C 56.421875 72.25 57.222656 71.820312 57.363281 71.410156 Z M 45.488281 8.894531 L 62.617188 8.894531 L 62.617188 15.042969 L 45.488281 15.042969 Z M 42.128906 29.316406 L 29.628906 29.316406 L 29.628906 8.867188 L 42.128906 8.867188 Z M 42.128906 29.316406 "/>
</g>
</svg>
