<?xml version="1.0" encoding="utf-8"?>
<!-- Generator: Adobe Illustrator 24.0.1, SVG Export Plug-In . SVG Version: 6.00 Build 0)  -->
<svg version="1.1" id="Layer_1" xmlns="http://www.w3.org/2000/svg" xmlns:xlink="http://www.w3.org/1999/xlink" x="0px" y="0px"
	 viewBox="0 0 500 500" style="enable-background:new 0 0 500 500;" xml:space="preserve">
<style type="text/css">
	.st0{fill:#FFFFFF;}
</style>
<title>003</title>
<g>
	<path class="st0" d="M343,106.8c26.4,0,46.2-21.4,47.8-46.2c0-26.4-21.4-47.8-47.8-47.8c-26.4,0-46.2,21.4-46.2,47.8
		C296.8,85.4,318.3,106.8,343,106.8z"/>
	<path class="st0" d="M102.2,459.8c-11.6,0-19.8,8.3-19.8,19.8c0,9.9,8.3,18.1,19.8,18.1S122,489.5,122,478l0,0
		C122,468.1,112.1,459.9,102.2,459.8L102.2,459.8z"/>
	<path class="st0" d="M245.7,332.8v8.2l0,0C244,390.5,211,420.2,183,454.9l-1.6,1.6c-9.9,9.9-8.3,26.4,1.6,34.6l0,0
		c9.9,8.3,24.8,8.3,33-1.6l1.6-1.6c19.8-19.8,38-41.2,57.7-61c3.3-5,6.6-8.3,8.3-13.2l-33-70.9L245.7,332.8z"/>
	<path class="st0" d="M440.3,237.1c-13.2-6.6-26.4-11.6-38-18.1c-8.2-4.9-16.5-11.6-21.4-19.8c-11.5-18.2-21.4-37.9-31.3-56.1
		c-9.9-21.4-36.3-31.3-57.7-23.1c-6.6,3.3-11.5,6.6-14.9,11.5c-39.6,37.9-77.5,77.5-115.5,117.1c-3.3,3.3-5,8.3-6.6,13.2
		c0,5,1.6,9.9,6.6,13.2l3.3,1.6c0,0-3.3,0-6.6,8.3L145,329.5h-37.9c-16.5,0-33,11.5-37.9,26.4C61,383.5,54.4,411.6,49.4,440
		c-3.3,13.2,3.3,26.4,16.5,29.7l0,0c4.9-19.8,24.7-29.7,44.5-24.8c14.8,5,26.4,18.1,26.4,33l3.3-14.8v-5l0,0
		c11.6-54.4,23.1-108.9,34.6-163.3c0-4.9,3.3-9.9,6.6-14.8c23.1-21.5,46.2-42.9,72.6-67.6c-3.3,13.2-3.3,21.4-6.6,29.7
		c-8.3,24.7-5,52.8,8.3,75.9c28,51.1,52.8,105.6,80.8,158.4c8.3,18.1,21.4,23.1,34.6,18.1s16.5-19.8,9.9-36.3
		c-18.1-46.2-37.9-92.4-56.1-138.5c-1.6-5-3.3-9.9-3.3-16.5c6.6-28,13.2-54.4,18.1-82.5c8.3,9.9,14.8,21.4,24.7,26.4
		c19.8,9.9,39.6,16.5,59.4,24.7c8.3,5,19.8,1.6,24.7-6.6c0-0.9,0.7-1.6,1.6-1.6c0,0,0,0,0.1,0C453.5,253.6,450.2,242.1,440.3,237.1
		L440.3,237.1z"/>
	<path class="st0" d="M98.9,149.7c9.9,4.9,19.8,6.6,31.3,6.6c5,0,6.6,0,5,5c0,4.9-3.3,9.9-6.6,14.9c-3.5,3.7-7.4,7-11.6,9.9
		c19.8-1.6,37.9-11.6,49.5-29.7c6.6,0,13.2-1.6,18.1-1.6c19.8-1.6,34.6-16.5,37.9-36.3c1.6-11.6,3.3-24.7,1.6-36.3
		c0-13.2,0-24.7-1.6-37.9c-1.7-16.1-12.7-29.6-28-34.6c-9.9-4.9-21.4-6.6-33-6.6c-16-1.4-32.2-0.3-47.8,3.3
		c-9.9,3.3-18.2,8.2-26.4,14.8c-6.6,8.3-11.6,18.1-11.6,29.7c0,14.8-1.7,29.7-1.7,42.9c0,10.6,1.7,21.2,5,31.3
		C82.4,136.5,89,144.8,98.9,149.7z M150,139.8c-4.9,0-8.3-3.3-8.3-8.3s3.3-8.3,8.3-8.3s8.3,3.3,8.3,8.3l0,0
		C156.6,136.5,153.3,139.8,150,139.8z M141.8,24.3c3.3-3.3,9.9-3.3,13.2-1.6c5,3.3,6.6,8.3,6.6,13.2c0,8.3-1.6,16.5-1.6,26.4
		l-3.3,46.2v3.3c-0.2,3.5-3.1,6.4-6.6,6.6h-1.6c-1.6,0-4.9-1.7-4.9-4.9c0-5-1.6-11.5-1.6-16.5l-1.6-26.4c-1.6-11.5-1.6-21.4-3.3-33
		C136.8,32.5,138.5,27.6,141.8,24.3L141.8,24.3z"/>
</g>
<polygon class="st0" points="139.5,465.9 161.5,357.4 123.9,376.9 "/>
<path class="st0" d="M151.2,2.2c0,0-75.3-6-78.1,50c0,0-1.8,53.1,5.9,72.8l36.9-74l29.4-39.3L151.2,2.2z"/>
<path class="st0" d="M147.5,2c0,0,73.9-4.2,77.4,41.2c0,0,1.5,58.2-2.3,75.1l-36.2-81L147.5,2z"/>
<path class="st0" d="M134.8,156.7c0,0,1.6,17.6-17.8,29.3l30.5-17.3l1.7-7.4v-4.6L134.8,156.7z"/>
<path class="st0" d="M166.5,156.3c0,0,28.8,1.6,42.6-12.3l-37.9,2.1L166.5,156.3z"/>
</svg>
